<svg width="37" height="24" fill="none" xmlns="http://www.w3.org/2000/svg"><g clip-path="url(#clip0_1_193)" fill="#BB9D60"><path d="M35.185 14.83a.657.657 0 01-.657-.656v-.656h1.313v1.313l-.656-.001zm-4.326 7.416a2.513 2.513 0 01-2.51-2.51 2.513 2.513 0 012.51-2.51 2.513 2.513 0 012.51 2.51 2.513 2.513 0 01-2.51 2.51zm-20.392 0a2.513 2.513 0 01-2.51-2.51 2.513 2.513 0 012.51-2.51 2.513 2.513 0 012.51 2.51 2.513 2.513 0 01-2.51 2.51zM27.113 9.897V6.102h5.156l.948 3.795h-6.104zm0-6.266h4.364c.703 0 1.275.571 1.275 1.274v.039h-5.64l.001-1.313zm7.297 6.291l-.958-3.832a.58.58 0 00.458-.567v-.618a2.436 2.436 0 00-2.433-2.433h-4.364V1.197c0-.66-.537-1.197-1.198-1.197H3.67c-.66 0-1.197.537-1.197 1.197v10.506a.58.58 0 001.158 0V1.197a.04.04 0 01.04-.038h22.245c.022 0 .039.017.039.038v10.506a.58.58 0 001.159 0v-.657h6.837c.84 0 1.555.553 1.8 1.313H33.95a.58.58 0 00-.58.58v1.235c0 1.001.815 1.816 1.816 1.816h.656v2.549h-1.515a3.675 3.675 0 00-3.467-2.472 3.675 3.675 0 00-3.468 2.472h-.278v-4.365a.58.58 0 10-1.16 0v4.365H13.935a3.675 3.675 0 00-3.467-2.472A3.675 3.675 0 007 18.539H3.67a.038.038 0 01-.015-.003.038.038 0 01-.024-.037v-1.274h2.51a.58.58 0 000-1.158H.58a.58.58 0 000 1.158h1.892V18.5c0 .66.537 1.197 1.197 1.197H6.8l-.001.039a3.673 3.673 0 003.669 3.669 3.674 3.674 0 003.669-3.67l-.001-.038H27.19l-.001.039a3.673 3.673 0 003.669 3.669 3.674 3.674 0 003.669-3.67l-.001-.038h1.894a.58.58 0 00.579-.58v-6.179a3.056 3.056 0 00-2.59-3.016h.001z"/><path d="M10.467 18.54a1.198 1.198 0 000 2.395 1.199 1.199 0 000-2.395zm20.39 0a1.198 1.198 0 000 2.395 1.199 1.199 0 000-2.395zm-6.797-2.47h-8.65a.58.58 0 000 1.159h8.65a.58.58 0 000-1.159zM9.235 13.6H1.819a.58.58 0 000 1.159h7.416a.58.58 0 000-1.159zM20.15 5.74a.58.58 0 00-.819 0l-5.152 5.152-2.68-2.68a.58.58 0 10-.82.819l3.09 3.09a.576.576 0 00.82 0l5.561-5.562a.58.58 0 000-.82v.001z"/></g><defs><clipPath id="clip0_1_193"><path fill="#fff" d="M0 0h37v24H0z"/></clipPath></defs></svg>