<svg width="25" height="24" fill="none" xmlns="http://www.w3.org/2000/svg"><mask id="a" maskUnits="userSpaceOnUse" x="0" y="0" width="25" height="24" fill="#000"><path fill="#fff" d="M0 0h25v24H0z"/><path fill-rule="evenodd" clip-rule="evenodd" d="M1.284 1.07c-.139.068-.284.29-.284.434 0 .141.125.362.253.447.118.078.236.088 1.299.109 1.107.021 1.18.028 1.363.123.25.13.517.403.627.639.047.103.843 2.43 1.769 5.171l1.682 4.984-.081.207c-.335.858-.32.795-.318 1.356.002.466.017.567.121.83.32.8.94 1.349 1.763 1.555.394.099 10.937.102 11.131.003.42-.213.341-.824-.122-.95-.109-.03-1.98-.046-5.435-.046-5.974 0-5.56.024-5.956-.355-.336-.322-.421-.52-.424-.993-.002-.34.016-.44.126-.693.124-.288.133-.297.315-.322.103-.013 2.626-.273 5.608-.575 3.408-.346 5.562-.584 5.803-.64.895-.207 1.568-.732 1.964-1.533.166-.335.244-.63 1.098-4.15.507-2.087.503-2.051.232-2.247-.18-.129-.607-.14-9.21-.243-4.23-.051-7.878-.103-8.104-.117l-.412-.024-.234-.714c-.32-.977-.449-1.223-.83-1.602a2.497 2.497 0 00-1.23-.677C3.663 1.02 3.097 1 2.494 1c-.876 0-1.092.013-1.21.07zm14.494 4.176c3.86.053 7.024.102 7.033.108.009.007-.252 1.093-.58 2.412-.41 1.661-.633 2.477-.721 2.649-.243.475-.799.877-1.309.947-.115.015-2.693.28-5.728.589-4.873.495-5.522.553-5.553.492-.034-.063-1.105-3.242-2.054-6.094L6.45 5.095l1.156.028c.635.015 4.313.07 8.173.123zM8.04 18.302c-1.196.178-2.094 1.186-2.09 2.348.002 1.284 1.105 2.353 2.422 2.35.62-.002 1.2-.248 1.668-.708.738-.724.912-1.743.457-2.665a2.382 2.382 0 00-1.992-1.325 3.16 3.16 0 00-.465 0zm10.089.015c-.949.167-1.708.84-1.949 1.73-.084.31-.082.881.004 1.207.143.54.515 1.04 1.018 1.367.924.602 2.183.47 2.98-.312.48-.471.702-1.001.701-1.67-.001-.816-.38-1.503-1.084-1.964-.457-.3-1.154-.45-1.67-.358zm-9.314 1.11c.709.257 1.07 1.13.734 1.772-.243.464-.61.701-1.133.732-.297.017-.377.005-.585-.089-.342-.154-.508-.308-.665-.617-.316-.62-.089-1.344.542-1.726.3-.182.725-.209 1.107-.071zm10.07-.029c1.146.335 1.273 1.869.2 2.417-.297.151-.878.149-1.185-.006a1.275 1.275 0 01-.575-1.743c.292-.583.923-.853 1.56-.668z"/></mask><path fill-rule="evenodd" clip-rule="evenodd" d="M1.284 1.07c-.139.068-.284.29-.284.434 0 .141.125.362.253.447.118.078.236.088 1.299.109 1.107.021 1.18.028 1.363.123.25.13.517.403.627.639.047.103.843 2.43 1.769 5.171l1.682 4.984-.081.207c-.335.858-.32.795-.318 1.356.002.466.017.567.121.83.32.8.94 1.349 1.763 1.555.394.099 10.937.102 11.131.003.42-.213.341-.824-.122-.95-.109-.03-1.98-.046-5.435-.046-5.974 0-5.56.024-5.956-.355-.336-.322-.421-.52-.424-.993-.002-.34.016-.44.126-.693.124-.288.133-.297.315-.322.103-.013 2.626-.273 5.608-.575 3.408-.346 5.562-.584 5.803-.64.895-.207 1.568-.732 1.964-1.533.166-.335.244-.63 1.098-4.15.507-2.087.503-2.051.232-2.247-.18-.129-.607-.14-9.21-.243-4.23-.051-7.878-.103-8.104-.117l-.412-.024-.234-.714c-.32-.977-.449-1.223-.83-1.602a2.497 2.497 0 00-1.23-.677C3.663 1.02 3.097 1 2.494 1c-.876 0-1.092.013-1.21.07zm14.494 4.176c3.86.053 7.024.102 7.033.108.009.007-.252 1.093-.58 2.412-.41 1.661-.633 2.477-.721 2.649-.243.475-.799.877-1.309.947-.115.015-2.693.28-5.728.589-4.873.495-5.522.553-5.553.492-.034-.063-1.105-3.242-2.054-6.094L6.45 5.095l1.156.028c.635.015 4.313.07 8.173.123zM8.04 18.302c-1.196.178-2.094 1.186-2.09 2.348.002 1.284 1.105 2.353 2.422 2.35.62-.002 1.2-.248 1.668-.708.738-.724.912-1.743.457-2.665a2.382 2.382 0 00-1.992-1.325 3.16 3.16 0 00-.465 0zm10.089.015c-.949.167-1.708.84-1.949 1.73-.084.31-.082.881.004 1.207.143.54.515 1.04 1.018 1.367.924.602 2.183.47 2.98-.312.48-.471.702-1.001.701-1.67-.001-.816-.38-1.503-1.084-1.964-.457-.3-1.154-.45-1.67-.358zm-9.314 1.11c.709.257 1.07 1.13.734 1.772-.243.464-.61.701-1.133.732-.297.017-.377.005-.585-.089-.342-.154-.508-.308-.665-.617-.316-.62-.089-1.344.542-1.726.3-.182.725-.209 1.107-.071zm10.07-.029c1.146.335 1.273 1.869.2 2.417-.297.151-.878.149-1.185-.006a1.275 1.275 0 01-.575-1.743c.292-.583.923-.853 1.56-.668z" fill="#7A7A7A"/><path d="M1.284 1.07l.088.18-.088-.18zm-.031.88l.11-.166-.11.167zm1.299.11l.004-.2-.004.2zm1.363.123l-.093.178.093-.178zm.627.639l.181-.084-.181.084zM6.31 7.993l.19-.064-.19.064zm1.682 4.984l.186.073.026-.068-.023-.069-.19.064zm-.081.207l-.187-.072.187.072zm-.318 1.356h.2-.2zm.121.83l.186-.074-.186.074zm1.763 1.555l.049-.194-.049.194zm11.131.003l-.09-.178.09.178zm-.122-.95l.053-.193-.053.193zm-5.435-.046v.2-.2zm-5.956-.355l.138-.144-.138.144zm-.424-.993l-.2.002.2-.002zm.126-.693l-.184-.08.184.08zm.315-.322l-.027-.198.027.198zm5.608-.575l-.02-.2.02.2zm5.803-.64l.045.195-.045-.194zm1.964-1.533l-.179-.09.18.09zm1.098-4.15l-.194-.047.194.047zm.232-2.247l-.117.163.117-.163zm-9.21-.243l-.002.2.002-.2zm-8.104-.117l-.012.2.012-.2zm-.412-.024l-.19.062.043.13.135.007.012-.2zm-.234-.714l.19-.063-.19.063zm-.83-1.602l.14-.142-.14.142zm-1.23-.677l-.04.196.04-.196zM2.494 1v.2V1zM22.81 5.354l-.123.158.123-.158zm-.58 2.412l.195.049-.194-.049zm-.721 2.649l.178.09-.178-.09zm-1.309.947l-.027-.199.027.199zm-5.728.589l-.02-.199.02.199zm-5.553.492l-.177.094.177-.094zM6.866 6.35l.19-.063-.19.063zM6.45 5.095l.005-.2-.285-.007.09.27.19-.063zm1.156.028l.004-.2-.004.2zm.435 13.179l.03.198-.03-.198zM5.95 20.65h.2-.2zM8.371 23v-.2.2zm1.668-.708l.14.143-.14-.143zm.457-2.665l.18-.089-.18.089zm-1.992-1.325l-.012.2.012-.2zm9.624.015l-.035-.197.035.197zm-1.949 1.73l.194.052-.194-.053zm.004 1.207l-.193.051.193-.051zm1.018 1.367l-.11.167.11-.167zm2.98-.312l.14.143-.14-.143zm.701-1.67h.2-.2zm-1.084-1.964l.11-.168-.11.168zm-10.984.753l.068-.188-.068.188zm.734 1.77l-.177-.092.177.093zm-1.133.733l-.012-.2.012.2zm-.585-.089l.083-.182-.083.182zm-.665-.617l-.179.09.179-.09zm.542-1.726l-.103-.171.103.17zm11.177-.1l-.056.191.056-.192zm.2 2.416l-.092-.178.091.178zm-1.185-.006l-.09.179.09-.179zm-.575-1.743l.178.09-.178-.09zM1.197.89a.735.735 0 00-.274.258.685.685 0 00-.123.356h.4c0-.017.013-.07.057-.136a.353.353 0 01.115-.118L1.197.89zM.8 1.504c0 .12.049.245.104.343a.8.8 0 00.238.27l.221-.333a.418.418 0 01-.11-.134.36.36 0 01-.053-.146H.8zm.342.613c.1.067.199.093.39.11.185.015.488.022 1.016.033l.008-.4c-.534-.01-.822-.018-.991-.033-.164-.013-.184-.031-.202-.043l-.221.333zm1.406.143c.557.01.843.018 1.014.033.083.008.13.017.163.026.031.009.056.02.097.042l.185-.355a.883.883 0 00-.171-.071 1.266 1.266 0 00-.238-.04 18.34 18.34 0 00-1.042-.035l-.008.4zm1.274.1c.214.112.448.353.538.546l.363-.168c-.13-.28-.43-.583-.716-.732l-.185.355zm.538.546l.012.03.033.093.114.325a964.057 964.057 0 011.602 4.703l.38-.128a965.851 965.851 0 00-1.604-4.707 45.108 45.108 0 00-.115-.328 2.708 2.708 0 00-.06-.156l-.362.168zm1.761 5.151l1.682 4.984.38-.128L6.5 7.93l-.379.128zm1.685 4.847l-.08.207.372.146.08-.207-.372-.146zm-.08.207c-.164.42-.252.637-.294.817-.045.19-.04.342-.038.613l.4-.002c-.001-.29-.004-.387.027-.52.034-.143.106-.324.277-.762l-.373-.146zm-.332 1.43c0 .231.005.387.024.519.02.139.057.246.112.384l.371-.148a1.21 1.21 0 01-.087-.294 3.5 3.5 0 01-.02-.463l-.4.002zm.136.903c.342.859 1.014 1.453 1.9 1.675l.097-.388c-.759-.19-1.33-.693-1.626-1.435l-.371.148zm1.9 1.675c.047.012.134.018.225.023.101.006.237.01.4.015.329.01.775.018 1.299.024 1.048.013 2.41.02 3.765.02s2.704-.006 3.727-.018c.511-.006.942-.013 1.251-.023a12.624 12.624 0 00.487-.024.61.61 0 00.045-.007.23.23 0 00.07-.023l-.18-.356c.025-.013.045-.015.037-.014l-.017.002c-.02.003-.052.005-.095.008-.085.005-.206.01-.359.015-.306.009-.733.016-1.244.022-1.02.012-2.368.018-3.722.018s-2.714-.007-3.76-.02a84.323 84.323 0 01-1.292-.023 16.566 16.566 0 01-.505-.023l-.035-.004-.098.388zm11.27-.012c.6-.305.46-1.153-.16-1.322l-.106.386c.306.083.324.457.085.579l.18.357zm-.16-1.322a.452.452 0 00-.077-.012 13.457 13.457 0 00-.38-.015c-.247-.006-.6-.01-1.057-.014a514.33 514.33 0 00-3.974-.012v.4c1.727 0 3.058.004 3.97.012.457.004.808.008 1.051.014a11.81 11.81 0 01.356.014c.023.001.019.002.006-.002l.105-.385zm-5.488-.053c-2.993 0-4.373.006-5.058-.035-.346-.02-.484-.052-.556-.086-.07-.032-.078-.058-.204-.178l-.276.289c.072.069.162.183.312.252.148.069.355.102.7.122.7.042 2.1.036 5.082.036v-.4zm-5.818-.3c-.16-.153-.243-.261-.291-.373-.048-.113-.07-.25-.07-.476l-.4.002c0 .246.023.446.102.63.08.186.207.339.383.507l.276-.29zm-.362-.849c0-.17.004-.263.018-.342a1.2 1.2 0 01.091-.271l-.367-.159a1.586 1.586 0 00-.118.358 2.26 2.26 0 00-.024.416l.4-.002zm.11-.613a3.08 3.08 0 01.07-.157c.018-.036.026-.043.025-.042-.015.016-.04.01.062-.003l-.053-.397c-.079.01-.199.022-.295.12a.557.557 0 00-.095.141c-.025.048-.051.109-.082.18l.367.158zm.157-.202c.099-.014 2.617-.272 5.602-.575l-.04-.398c-2.978.302-5.508.562-5.615.576l.053.397zm5.602-.575a538.76 538.76 0 004.091-.429c.498-.055.897-.1 1.187-.136a7.86 7.86 0 00.55-.079l-.09-.39a7.071 7.071 0 01-.509.072c-.287.035-.685.08-1.182.135-.994.11-2.384.256-4.088.429l.04.398zm5.828-.644c.952-.22 1.675-.783 2.099-1.64l-.359-.177c-.369.746-.992 1.233-1.83 1.428l.09.39zm2.099-1.64c.091-.186.157-.359.304-.918.148-.558.382-1.514.808-3.273l-.388-.094c-.427 1.76-.66 2.712-.806 3.265-.146.552-.203.694-.277.843l.358.177zm1.113-4.19c.25-1.034.381-1.566.412-1.86.015-.149.01-.278-.05-.39-.057-.106-.154-.168-.208-.207l-.234.325c.082.059.086.065.09.072.001.002.017.03.004.159-.027.259-.147.752-.403 1.806l.389.094zm.154-2.457c-.09-.064-.195-.093-.401-.115a17.16 17.16 0 00-1.157-.054c-1.206-.032-3.466-.06-7.766-.112l-.005.4c4.302.051 6.558.08 7.76.112.604.016.935.032 1.126.052.096.01.148.02.177.029.024.006.03.01.032.013l.234-.325zm-9.324-.281c-4.236-.051-7.875-.103-8.095-.116l-.024.399c.233.014 3.888.066 8.114.117l.005-.4zm-8.095-.116l-.412-.025-.024.4.412.024.024-.4zm-.234.112l-.234-.714-.38.125.234.714.38-.125zm-.234-.714c-.16-.487-.277-.807-.405-1.054a2.354 2.354 0 00-.475-.627l-.282.283c.181.18.294.32.402.528.111.215.22.506.38.995l.38-.125zm-.88-1.681a2.697 2.697 0 00-1.33-.73l-.08.391c.4.082.808.305 1.128.622l.282-.283zm-1.33-.73a4.182 4.182 0 00-.51-.039A23.263 23.263 0 002.494.8v.4c.3 0 .59.005.821.013.24.009.396.02.444.03l.08-.392zM2.493.8c-.437 0-.715.004-.9.014-.18.01-.299.03-.396.076l.175.36c.02-.01.068-.026.244-.036.172-.01.439-.014.878-.014V.8zm13.282 4.646a3085.51 3085.51 0 016.473.096 107.918 107.918 0 01.544.011h-.007l-.016-.003a.37.37 0 01-.02-.006.362.362 0 01-.061-.032l.247-.315a.364.364 0 00-.061-.033.332.332 0 00-.038-.008l-.013-.001a.449.449 0 00-.044-.002l-.11-.003-.414-.008a3099.87 3099.87 0 00-6.474-.096l-.006.4zm6.913.066a.2.2 0 01-.077-.156l.001-.02v-.003a257.544 257.544 0 01-.575 2.385l.389.097a255.185 255.185 0 00.539-2.222 8.38 8.38 0 00.041-.19l.004-.023a.21.21 0 00-.015-.104.2.2 0 00-.06-.08l-.247.316zm-.65 2.206a90.2 90.2 0 01-.482 1.878 14.95 14.95 0 01-.145.506c-.04.128-.066.196-.08.222l.357.182c.03-.06.066-.16.105-.284.04-.13.09-.303.15-.52a99.15 99.15 0 00.483-1.887l-.388-.097zm-.706 2.606c-.215.42-.715.779-1.158.84l.054.396c.578-.08 1.188-.523 1.46-1.054l-.356-.182zm-1.158.84c-.11.014-2.682.28-5.72.588l.04.398a1282.5 1282.5 0 005.734-.59l-.054-.397zm-5.72.588c-2.438.248-3.817.386-4.59.454-.388.035-.62.051-.755.056a1.03 1.03 0 01-.12 0c-.009-.002-.002-.002.013.003.01.004.062.023.095.085l-.354.187c.036.07.098.095.123.104.03.011.059.015.08.018.045.005.104.005.176.002.148-.004.39-.022.777-.056.777-.07 2.159-.207 4.595-.455l-.04-.398zm-5.357.598c.006.011.008.02.004.007a1206.142 1206.142 0 01-2.044-6.071l-.38.127a1205.522 1205.522 0 001.852 5.517 71.041 71.041 0 00.198.57.248.248 0 00.016.037l.354-.187zm-2.04-6.064l-.418-1.254-.38.126.418 1.255.38-.127zm-.613-.991l1.156.028.01-.4-1.156-.028-.01.4zm1.156.028c.637.015 4.316.07 8.175.123l.005-.4c-3.86-.052-7.536-.108-8.17-.123l-.01.4zm.41 12.78c-1.288.193-2.264 1.28-2.26 2.548l.4-.001c-.004-1.057.815-1.986 1.92-2.15l-.06-.396zm-2.26 2.548c.003 1.399 1.2 2.553 2.623 2.549l-.001-.4c-1.212.003-2.22-.982-2.223-2.15h-.4zM8.372 23.2c.674-.002 1.305-.272 1.808-.765l-.28-.286c-.434.426-.966.65-1.529.651l.001.4zm1.808-.765c.798-.785.99-1.897.495-2.897l-.358.177c.416.844.258 1.77-.418 2.434l.28.286zm.495-2.897a2.582 2.582 0 00-2.158-1.436l-.025.4c.782.047 1.477.51 1.825 1.213l.358-.177zm-2.158-1.436a3.265 3.265 0 00-.507.002l.059.396c.051-.008.241-.01.423.001l.025-.399zm9.576.018c-1.02.18-1.844.906-2.107 1.874l.386.105c.22-.81.914-1.43 1.79-1.585l-.069-.394zm-2.107 1.874c-.048.18-.07.42-.069.651 0 .232.024.475.073.66l.386-.103a2.38 2.38 0 01-.059-.558c0-.213.02-.414.055-.545l-.386-.105zm.004 1.311c.157.592.56 1.13 1.102 1.483l.218-.335c-.465-.303-.804-.762-.934-1.25l-.386.102zm1.102 1.483c1.004.654 2.367.51 3.229-.336l-.28-.285c-.731.717-1.887.836-2.73.286l-.22.335zm3.229-.336c.518-.509.762-1.09.761-1.814l-.4.001c0 .615-.2 1.094-.642 1.528l.28.285zm.761-1.814c-.001-.885-.416-1.633-1.175-2.13l-.219.334c.65.426.993 1.051.994 1.797h.4zm-1.175-2.13c-.497-.327-1.245-.488-1.814-.388l.07.394c.464-.082 1.109.055 1.525.328l.22-.335zM8.746 19.615c.605.218.902.963.626 1.49l.354.186c.397-.758-.029-1.758-.843-2.052l-.136.376zm.626 1.49c-.109.207-.24.354-.394.453-.153.1-.34.159-.574.172l.024.4c.29-.017.546-.093.768-.236.221-.143.395-.346.53-.603l-.354-.186zm-.968.625a1.408 1.408 0 01-.284 0 .76.76 0 01-.206-.07l-.165.364c.11.049.201.084.312.101.105.016.218.013.367.005l-.024-.4zm-.49-.07a1.254 1.254 0 01-.349-.216 1.059 1.059 0 01-.221-.311l-.357.181c.086.169.18.306.306.423.125.116.273.204.456.287l.165-.365zm-.57-.527c-.264-.519-.082-1.131.468-1.464l-.207-.342c-.712.43-.985 1.265-.618 1.987l.357-.181zm.468-1.464c.24-.145.6-.175.934-.054l.137-.376c-.429-.155-.918-.13-1.278.088l.207.342zm11.017-.08c.964.282 1.084 1.577.164 2.047l.182.356c1.227-.627 1.095-2.4-.234-2.787l-.112.384zm.164 2.047a1.163 1.163 0 01-.496.09 1.234 1.234 0 01-.508-.096l-.179.357c.191.096.447.138.685.139.237 0 .492-.038.68-.134l-.182-.356zm-1.004-.006a1.075 1.075 0 01-.486-1.475l-.357-.18a1.475 1.475 0 00.664 2.012l.18-.357zm-.486-1.475c.249-.495.78-.725 1.326-.566l.112-.384c-.727-.212-1.458.098-1.795.77l.357.18z" fill="#7A7A7A" mask="url(#a)"/></svg>