<?xml version="1.0" encoding="UTF-8" standalone="no"?>
<svg
   xmlns:dc="http://purl.org/dc/elements/1.1/"
   xmlns:cc="http://creativecommons.org/ns#"
   xmlns:rdf="http://www.w3.org/1999/02/22-rdf-syntax-ns#"
   xmlns:svg="http://www.w3.org/2000/svg"
   xmlns="http://www.w3.org/2000/svg"
   viewBox="0 0 5093.3335 1242.6667"
   height="1242.6667"
   width="5093.3335"
   xml:space="preserve"
   id="svg2"
   version="1.1"><metadata
     id="metadata8"><rdf:RDF><cc:Work
         rdf:about=""><dc:format>image/svg+xml</dc:format><dc:type
           rdf:resource="http://purl.org/dc/dcmitype/StillImage" /></cc:Work></rdf:RDF></metadata><defs
     id="defs6" /><g
     transform="matrix(1.3333333,0,0,-1.3333333,0,1242.6667)"
     id="g10"><g
       transform="scale(0.1)"
       id="g12"><g
         transform="scale(1.70969)"
         id="g14"><path
           id="path16"
           style="fill:#bf2329;fill-opacity:1;fill-rule:nonzero;stroke:none"
           d="m 14346.3,2205.17 c 47.3,18.19 94.6,46.39 141.9,84.59 47.2,38.21 92.7,82.77 136.4,133.71 -61.9,-18.2 -120.1,-34.56 -174.6,-49.11 -54.6,-14.56 -103.7,-30.93 -147.4,-49.12 -50.9,-21.84 -90,-42.75 -117.3,-62.77 -27.3,-20.01 -46.4,-37.29 -57.3,-51.84 -3.7,-3.64 -5.5,-7.28 -5.5,-10.92 v -5.46 c 0,-7.27 5.5,-12.73 16.4,-16.36 40,-21.84 109.1,-12.74 207.4,27.28 z M 16169,5004.81 c 25.5,72.76 40.1,136.43 43.7,191.01 3.6,54.56 -5.5,96.41 -27.3,125.51 -29.1,40.02 -74.6,60.04 -136.4,60.04 -80.1,0 -166.5,-35.48 -259.3,-106.43 -92.7,-70.95 -188.2,-166.45 -286.5,-286.51 -98.2,-120.06 -196.4,-258.31 -294.7,-414.75 -98.2,-156.45 -192.8,-319.27 -283.8,-488.44 -90.9,-169.18 -175.5,-338.36 -253.7,-507.54 -78.2,-169.18 -144.6,-326.53 -199.2,-472.07 134.6,76.42 269.2,168.27 403.8,275.61 134.6,107.33 263.8,221.93 387.5,343.81 123.7,121.88 239.2,247.4 346.5,376.55 107.4,129.16 202.9,255.6 286.6,379.3 61.8,94.59 116.4,186.46 163.7,275.6 47.3,89.14 83.7,171.9 109.1,248.31 z m 76.4,365.64 c 54.6,-76.4 52.8,-200.1 -5.4,-371.1 -29.1,-80.05 -68.2,-165.54 -117.4,-256.5 -49.1,-90.95 -106.4,-185.55 -171.9,-283.78 -87.3,-130.98 -188.3,-264.68 -302.9,-401.12 -114.6,-136.44 -237.3,-269.23 -368.3,-398.39 -131,-129.16 -267.4,-248.31 -409.3,-357.46 -141.9,-109.15 -285.6,-201.92 -431.2,-278.32 l -76.4,-218.29 c 43.7,61.84 87.4,114.59 131,158.25 50.9,58.21 104.6,105.52 161,141.89 56.4,36.39 111.9,54.58 166.5,54.58 72.7,0 125.5,-17.28 158.2,-51.85 32.8,-34.56 50,-80.95 51.9,-139.16 1.8,-58.21 -10.9,-122.78 -38.2,-193.73 -27.3,-70.94 -64.6,-140.99 -111.9,-210.11 87.3,29.11 180.1,59.12 278.3,90.05 98.2,30.91 189.2,75.49 272.9,133.7 29.1,18.19 49.1,19.11 60,2.73 10.9,-16.37 -1.8,-35.47 -38.2,-57.3 -101.9,-69.13 -208.3,-121.88 -319.3,-158.27 -110.9,-36.38 -217.3,-69.13 -319.2,-98.23 -61.8,-72.77 -131.9,-139.17 -210.1,-199.19 -78.2,-60.03 -162.8,-106.42 -253.8,-139.17 -123.7,-40.01 -209.2,-47.3 -256.5,-21.83 -21.8,7.27 -36.4,21.83 -43.6,43.66 -7.3,21.84 0,45.48 21.8,70.95 32.7,50.93 105.5,101.87 218.3,152.8 47.3,18.2 100,36.39 158.3,54.58 58.2,18.19 120,36.38 185.5,54.57 l 49.1,10.92 c 43.7,65.48 81.9,132.8 114.6,201.92 32.8,69.13 56.4,131.89 71,188.28 14.5,56.39 17.3,102.78 8.2,139.16 -9.1,36.38 -33.7,54.58 -73.7,54.58 -43.7,0 -88.2,-14.55 -133.7,-43.66 -45.5,-29.11 -88.3,-67.31 -128.3,-114.61 -50.9,-54.57 -96.4,-114.61 -136.4,-180.09 -40,-65.49 -71,-129.16 -92.8,-191 -3.6,-10.92 -10,-20.02 -19.1,-27.3 -9.1,-7.27 -17.3,-10.92 -24.5,-10.92 -7.3,0 -14.6,2.73 -21.9,8.19 -7.3,5.46 -9.1,15.47 -5.4,30.03 14.5,130.97 50,292.87 106.4,485.7 56.4,192.82 129.1,396.57 218.3,611.23 89.1,214.65 191.9,428.4 308.3,641.23 116.5,212.84 240.2,404.76 371.1,575.75 131,171 266.5,309.26 406.6,414.77 140.1,105.5 279.2,158.26 417.5,158.26 83.7,0 141.9,-25.46 174.6,-76.4" /></g><g
         transform="scale(1.49729)"
         id="g18"><path
           id="path20"
           style="fill:#bf2329;fill-opacity:1;fill-rule:nonzero;stroke:none"
           d="m 16214.8,3184.75 c 29.1,24.92 52,31.15 68.6,18.7 16.6,-12.47 8.3,-35.32 -25,-68.55 -49.8,-54.02 -108,-100.75 -174.4,-140.22 -66.5,-39.46 -137.1,-77.88 -211.9,-115.28 -170.3,-83.09 -328.2,-128.77 -473.6,-137.09 -162,-4.15 -274.2,37.39 -336.5,124.64 -62.3,87.23 -87.2,193.16 -74.8,317.8 -62.3,-54 -137.1,-114.25 -224.3,-180.72 -87.3,-66.46 -180.7,-128.78 -280.4,-186.93 -99.7,-58.17 -201.5,-106.99 -305.4,-146.45 -103.8,-39.47 -201.5,-59.2 -292.9,-59.2 -108,0 -182.7,25.96 -224.3,77.89 -41.5,51.94 -57.1,117.36 -46.7,196.29 10.4,78.93 44.6,164.1 102.8,255.5 58.2,91.39 134,176.56 227.4,255.49 93.5,78.93 202.6,144.37 327.2,196.29 124.6,51.93 257.6,77.89 398.8,77.89 87.3,-4.14 167.2,-25.96 239.9,-65.43 72.7,-39.47 100.8,-106.97 84.2,-202.52 -8.3,-24.93 -25,-37.38 -49.9,-37.38 -24.9,0 -35.3,12.45 -31.2,37.38 8.4,66.47 -14.5,114.24 -68.5,143.32 -54,29.08 -118.4,43.62 -193.2,43.62 -132.9,0 -261.7,-46.73 -386.3,-140.2 -124.7,-93.47 -228.5,-197.34 -311.6,-311.57 -83.1,-114.25 -132.9,-218.11 -149.6,-311.59 -16.6,-93.47 18.7,-140.2 106,-140.2 91.4,0 191.1,22.85 299.1,68.55 108,45.7 211.9,99.7 311.6,162.02 99.7,62.31 192.1,127.73 277.3,196.28 85.1,68.55 154.7,127.75 208.7,177.6 0,8.31 1.1,13.5 3.1,15.59 2.1,2.07 3.2,7.27 3.2,15.57 12.4,37.39 33.2,66.48 62.3,87.25 29.1,20.76 58.1,32.19 87.2,34.26 29.1,2.09 53,-5.18 71.7,-21.8 18.7,-16.62 21.8,-41.55 9.3,-74.78 -20.8,-70.62 -36.3,-137.1 -46.7,-199.4 -10.4,-62.32 -11.4,-118.41 -3.1,-168.26 8.3,-49.85 29,-89.31 62.3,-118.4 33.2,-29.08 87.2,-43.61 162,-43.61 66.5,4.15 137.1,17.65 211.9,40.5 74.7,22.85 149.5,52.96 224.3,90.35 70.6,33.23 137.1,68.55 199.4,105.93 62.3,37.4 116.3,81.02 162,130.87" /></g><g
         transform="scale(1.22613)"
         id="g22"><path
           id="path24"
           style="fill:#bf2329;fill-opacity:1;fill-rule:nonzero;stroke:none"
           d="m 14138.9,3788.48 c -38.1,-149.66 -69.8,-277.76 -95.1,-384.28 25.3,25.36 52,55.8 79.9,91.3 27.9,35.52 57,76.1 87.5,121.77 50.7,81.17 107.8,166.14 171.2,254.92 63.4,88.78 129.3,169.95 197.8,243.5 68.5,73.56 139.5,133.17 213.1,178.82 73.6,45.67 148.4,68.49 224.5,68.49 126.8,-5.07 202.9,-40.59 228.3,-106.53 25.3,-65.94 24.1,-148.39 -3.8,-247.31 -27.9,-98.93 -69.8,-204.2 -125.6,-315.81 -55.8,-111.59 -100.2,-215.6 -133.2,-311.99 -32.9,-96.39 -45.6,-176.29 -38,-239.7 7.6,-63.41 64.7,-95.12 171.2,-95.12 76.1,0 162.3,24.1 258.7,72.29 96.4,48.2 194.1,106.53 293,175.02 98.9,68.48 194.1,142.06 285.4,220.68 91.3,78.64 167.4,150.93 228.3,216.88 40.5,45.65 72.3,60.88 95.1,45.65 22.8,-15.22 13.9,-43.11 -26.7,-83.71 -71,-76.08 -154.7,-157.26 -251.1,-243.5 -96.4,-86.23 -197.8,-166.14 -304.4,-239.7 -106.5,-73.57 -213,-134.44 -319.6,-182.64 -106.5,-48.18 -202.9,-72.28 -289.1,-72.28 -157.3,0 -260,31.7 -308.2,95.12 -48.2,63.41 -63.4,144.58 -45.7,243.5 17.8,98.93 53.3,204.19 106.6,315.81 53.2,111.59 102.7,216.86 148.3,315.79 45.7,98.94 72.3,180.1 79.9,243.51 7.7,63.41 -24,95.12 -95.1,95.12 -60.9,0 -121.7,-21.55 -182.6,-64.68 -60.9,-43.12 -120.5,-97.65 -178.8,-163.61 -58.4,-65.95 -114.2,-138.24 -167.4,-216.86 -53.3,-78.65 -102.8,-156.01 -148.4,-232.11 -40.6,-55.8 -77.4,-105.26 -110.4,-148.39 -32.9,-43.11 -67.2,-79.9 -102.7,-110.33 -40.6,-40.58 -78.6,-67.22 -114.1,-79.9 -35.6,-12.69 -50.8,16.48 -45.7,87.51 15.2,172.49 53.3,399.51 114.1,681.07 31.5,145.38 68.7,296.18 111.6,452.39 62.1,226.07 287.2,272.5 200.4,40.85 -38.2,-101.66 -100.6,-294.24 -209.2,-721.54" /></g><g
         transform="scale(1.00673)"
         id="g26"><path
           id="path28"
           style="fill:#bf2329;fill-opacity:1;fill-rule:nonzero;stroke:none"
           d="m 16182.2,4643.74 c 53.6,30.66 87.9,31.05 102.9,1.18 14.9,-29.89 -1,-57.49 -47.7,-82.78 -302.7,-180.17 -615,-337.36 -936.8,-471.55 -321.9,-134.19 -652.9,-267.23 -993.1,-399.14 -98.1,-187.01 -224.5,-414.08 -379.2,-681.2 -154.8,-267.12 -332.5,-543.82 -533.2,-830.11 -200.7,-286.29 -418,-567.4 -651.6,-843.34 -233.7,-275.96 -480.4,-519.144 -740.2,-729.576 -259.7,-210.428 -527.4,-371.633 -802.8,-483.583 -275.5,-111.9656 -550.8,-147.663 -826,-107.1154 -202.3,25.2403 -354.1,106.4514 -455.25,243.6034 -69,95.789 -98.53,208.442 -88.59,337.95 2.28,68.213 13.94,136.806 35.01,205.772 21.05,68.993 45.76,142.176 74.09,219.599 155.54,347.97 380.54,654.56 675.14,919.79 294.6,265.24 622.8,499.83 984.5,703.77 361.6,203.96 736,384.51 1122.9,541.72 387,157.19 753.3,298.29 1098.9,423.29 32.2,8.45 63.2,20.14 93.1,35.1 29.9,14.93 61,26.63 93.1,35.07 81.2,151.77 157.3,299.49 228.1,443.2 70.9,143.72 139.6,283.03 206.3,417.93 -93.5,-100.42 -195.4,-181.11 -305.8,-242.06 -110.3,-60.95 -232.9,-83.01 -367.8,-66.18 -128.8,16.07 -220.2,57.04 -274.2,122.92 -54,65.9 -81.9,142.53 -83.4,229.91 -1.6,87.35 14.9,181.82 49.3,283.37 34.5,101.56 72.8,196.41 114.9,284.55 25.3,52.88 61.1,90.44 107.5,112.68 46.4,22.24 89.5,30.87 129.3,25.9 39.9,-4.97 68.6,-24.14 86.2,-57.47 17.7,-33.33 10.4,-79.13 -21.7,-137.37 -39.9,-69.75 -77.6,-147.55 -113.2,-233.39 -35.6,-85.84 -61.3,-166.69 -77,-242.57 -15.7,-75.88 -15.9,-139.69 -0.5,-191.41 15.3,-51.72 59.8,-82.18 133.3,-91.36 110.4,-13.77 210.8,4.83 301.2,55.83 90.4,50.99 172,118.63 244.8,202.95 72.8,84.33 137.4,177.46 193.7,279.4 56.3,101.94 108.6,196.6 156.8,283.98 l 12.6,26.42 c 17.7,41.4 42.4,77.24 74.2,107.52 31.8,30.28 62,48.29 90.8,54.04 28.7,5.76 51.1,-1.71 67.2,-22.4 16.1,-20.67 17.7,-58.23 4.6,-112.64 -53.6,-180.12 -129.6,-390.12 -228,-630.02 -98.4,-239.9 -217.3,-494.35 -356.8,-763.39 320.4,121.92 630.3,248.26 930,379 299.6,130.74 590.4,278.15 872.4,442.21 z M 10415.9,123.455 c 244.5,-36.7259 488.8,-0.276 732.8,109.37 244.1,109.664 481.2,263.757 711.5,462.308 230.2,198.543 450.5,429.467 660.8,692.757 210.3,263.31 405.1,526.98 584.4,791.04 179.2,264.07 340.1,517.96 482.6,761.7 142.5,243.73 258.2,447.22 347,610.5 l -97.7,-34.52 C 13504,3390.08 13149,3252.25 12772.4,3103.1 c -376.7,-149.16 -740.8,-323.21 -1092.6,-522.16 -351.7,-198.96 -672.8,-426.65 -963.1,-683.07 -290.4,-256.42 -509.6,-552.87 -657.4,-889.33 -67.38,-141.051 -101.84,-267.501 -103.34,-379.401 -2.28,-118.022 22.66,-217.637 74.74,-298.857 91.3,-117.227 219.7,-186.173 385.2,-206.827" /></g><g
         transform="scale(2.34356)"
         id="g30"><path
           id="path32"
           style="fill:#bf2329;fill-opacity:1;fill-rule:nonzero;stroke:none"
           d="m 15163.4,2040.75 c 157.6,-24.42 305.8,-39.41 444.5,-44.96 138.8,-5.55 260.3,6.11 364.6,34.96 51.1,13.32 97.7,33.3 139.9,59.94 42.1,26.63 77.6,62.15 106.5,106.54 15.6,26.64 26.6,56.6 33.3,89.9 6.7,44.39 0.6,83.24 -18.3,116.53 -18.9,33.3 -45,62.15 -78.3,86.57 -15.5,11.1 -19.9,22.2 -13.3,33.3 6.7,11.1 18.9,11.1 36.7,0 39.9,-28.85 71,-63.82 93.2,-104.88 22.2,-41.07 28.8,-87.13 20,-138.18 -6.7,-37.73 -20,-72.14 -40,-103.22 -31.1,-51.05 -70.5,-91.01 -118.2,-119.86 -47.7,-28.85 -99.3,-51.05 -154.8,-66.59 -106.6,-31.07 -230.3,-45.5 -371.3,-43.28 -140.9,2.21 -290.7,14.98 -449.5,38.28 -273.8,40.22 -533,109.58 -807.2,144.48 -215,18.58 -402.7,9.95 -563.3,-25.88 -160.6,-35.83 -304.6,-79.63 -432,-131.38 -127.4,-51.76 -244.8,-100.86 -352.3,-147.31 -107.5,-46.45 -214.4,-71 -320.5,-73.65 -103.5,-2.66 -175.2,23.88 -215,79.62 -39.8,55.74 -55.8,123.42 -47.8,203.05 -39.8,-34.5 -87.6,-72.99 -143.3,-115.46 -55.8,-42.47 -115.5,-82.28 -179.2,-119.43 -63.7,-37.17 -128.7,-68.36 -195.1,-93.57 -66.3,-25.22 -128.7,-37.82 -187.1,-37.82 -69,0 -116.8,16.59 -143.3,49.77 -26.6,33.18 -36.5,74.97 -29.9,125.4 6.7,50.43 28.6,104.85 65.7,163.24 37.2,58.39 85.6,112.8 145.3,163.23 59.8,50.43 129.4,92.24 209.1,125.41 79.6,33.18 164.5,49.77 254.8,49.77 58.4,-2.65 110.1,-16.59 155.2,-41.81 45.2,-25.21 62.4,-68.34 51.8,-129.39 -2.7,-15.93 -12.6,-23.88 -29.9,-23.88 -17.2,0 -24.5,7.95 -21.9,23.88 5.3,42.47 -8.6,72.99 -41.8,91.57 -33.2,18.58 -75,27.87 -125.4,27.87 -84.9,0 -167.2,-29.86 -246.8,-89.58 -79.6,-59.71 -146,-126.07 -199.1,-199.06 -53.1,-72.99 -84.9,-139.34 -95.5,-199.07 -10.7,-59.72 11.9,-89.57 67.6,-89.57 58.4,0 122.1,14.59 191.1,43.79 69.1,29.2 135.4,63.7 199.1,103.51 63.7,39.82 122.8,81.61 177.2,125.41 54.4,43.8 98.8,81.62 133.4,113.47 l 7.9,19.9 c 5.3,23.9 17.3,42.48 35.8,55.75 18.6,13.27 37.2,20.57 55.8,21.89 18.6,1.33 33.8,-3.31 45.8,-13.93 11.9,-10.62 13.9,-26.55 5.9,-47.78 -13.2,-45.12 -23.2,-87.59 -29.8,-127.4 -6.7,-39.81 -7.3,-75.64 -2,-107.49 5.3,-31.85 19.2,-57.07 41.8,-75.65 22.6,-18.58 56.4,-27.86 101.5,-27.86 100.9,2.65 203.1,27.86 306.6,75.63 103.5,47.78 218.9,97.55 346.4,149.3 127.3,51.76 272.7,94.89 435.9,129.39 163.2,34.51 353.7,42.48 571.3,23.9 290.8,-26.43 518,-92.36 808.2,-137.31" /></g><g
         transform="scale(1.52083)"
         id="g34"><path
           id="path36"
           style="fill:#bf2329;fill-opacity:1;fill-rule:nonzero;stroke:none"
           d="m 9838.06,1257.6 h -42.11 v 156.07 H 9624.3 V 1257.6 h -42.12 v 334.81 h 42.12 v -141.62 h 171.65 v 141.62 h 42.11 z m 637.94,0 -40.3,103.79 h -132.8 l -39.8,-103.79 h -42.6 l 130.7,336.21 h 38.1 l 130.4,-336.21 z m -52.9,141.14 -37.5,101.45 -16,50.09 c -4.6,-18.29 -9.4,-35.01 -14.5,-50.09 l -37.9,-101.45 z m 585.1,-141.14 h -42.4 v 297.68 h -104.5 v 37.13 h 250.8 v -37.13 h -103.9 z m 512.7,-4.69 c -17.2,0 -32.5,2.27 -45.6,6.86 v 39.87 c 13.9,-6.25 28.7,-9.39 44.2,-9.39 16.4,0 29.5,3.76 39.5,11.43 10,7.65 19.7,21.57 29,41.73 l -129,249 h 46.3 l 95.8,-186.24 c 3.8,-7.19 7.1,-15.17 9.8,-23.85 h 1.8 l 1.9,5.48 7,18.84 80.2,185.77 h 44.6 l -106.9,-239.62 c -12.7,-28.36 -24.2,-49.09 -34.5,-62.07 -10.4,-12.96 -22.3,-22.58 -35.7,-28.68 -13.3,-6.08 -29.4,-9.13 -48.4,-9.13 z m 821.8,241.02 c 0,-34.15 -11.7,-60.41 -35.1,-78.62 -23.3,-18.22 -56.2,-27.35 -98.7,-27.35 h -38.4 V 1257.6 h -42.1 v 334.81 h 88.6 c 83.8,0 125.7,-32.83 125.7,-98.48 z m -172.2,-69.78 h 33.7 c 33.3,0 57.3,5.39 72.3,16.09 15,10.79 22.5,28.06 22.5,51.9 0,21.49 -7,37.59 -20.9,48.3 -13.9,10.7 -35.6,16.02 -65,16.02 h -42.6 z m 787.9,-166.55 -40.4,103.79 h -132.8 l -39.7,-103.79 h -42.6 l 130.7,336.21 h 38 L 13002,1257.6 Z m -53,141.14 -37.5,101.45 -16,50.09 c -4.6,-18.29 -9.4,-35.01 -14.4,-50.09 l -38,-101.45 z m 720,-141.14 h -42.1 v 297.68 h -106.1 l -7,-54.47 c -9.6,-75.02 -18.1,-128.86 -25.3,-161.39 -7.1,-32.51 -16.4,-55.1 -27.9,-67.84 -11.6,-12.73 -27.3,-19.15 -47.2,-19.15 -11.2,0 -21.4,1.88 -30.4,5.71 v 35.25 c 7.9,-3.75 16.6,-5.71 25.9,-5.71 12.1,0 21.7,7.59 28.8,22.83 7,15.14 14.7,49.55 23,103.08 8.4,53.61 16.8,113.17 25.1,178.82 h 183.2 z m 659,97.99 c 0,-31.49 -10.5,-55.64 -31.7,-72.6 -21,-16.96 -50.9,-25.39 -89.7,-25.39 h -110.1 v 334.81 h 42.1 v -141.62 h 62.8 c 41,0 72.4,-8.13 94.1,-24.38 21.6,-16.26 32.5,-39.86 32.5,-70.82 z m -189.4,-61.81 h 63.9 c 54.6,0 82,20.63 82,61.81 0,20.25 -7,35.1 -21,44.47 -14,9.39 -36.3,14.09 -67.2,14.09 h -57.7 z m 851.3,-36.18 h -42.1 v 156.07 h -171.7 V 1257.6 h -42.1 v 334.81 h 42.1 v -141.62 h 171.7 v 141.62 h 42.1 z m 645.5,97.99 c 0,-31.64 -10,-55.87 -30,-72.68 -20.1,-16.88 -49.6,-25.31 -88.5,-25.31 h -99 v 334.81 h 42.2 v -141.62 h 51.5 c 40.5,0 71.3,-8.05 92.3,-24.07 21.1,-16.02 31.5,-39.7 31.5,-71.13 z m -175.3,-62.28 h 52.9 c 27.2,0 47.1,5.16 59.8,15.47 12.6,10.25 19,25.86 19,46.81 0,20.41 -6.6,35.25 -19.7,44.4 -13.2,9.15 -34.8,13.68 -65.1,13.68 h -46.9 z m 269.3,-35.71 h -42.4 v 334.81 h 42.4 z m 614.2,0 h -187 v 334.81 h 187 v -37.13 h -144.9 v -104.49 h 136.4 v -36.64 h -136.4 V 1294.72 H 16300 Z M 11632.2,495.29 h -42.4 v 297.684 h -104.6 v 37.125 h 250.9 v -37.125 h -103.9 z m 735.4,0 h -50.8 l -151.3,169.67 V 495.29 h -42.1 v 334.809 h 42.1 V 667.927 l 147.6,162.172 h 47.9 l -145.4,-162.56 z m 591.9,0 -40.3,103.793 h -132.8 l -39.7,-103.793 h -42.7 l 130.7,336.211 h 38.1 l 130.4,-336.211 z m -52.9,141.144 -37.5,101.44 -16,50.099 c -4.6,-18.29 -9.4,-35.011 -14.5,-50.099 l -37.9,-101.44 z m 735,-141.144 h -42.1 v 156.067 h -171.7 V 495.29 h -42.1 v 334.809 h 42.1 V 688.485 h 171.7 v 141.614 h 42.1 z m 428.5,334.809 h 39.4 V 646.202 c 0,-12.978 -0.4,-30.172 -1.2,-51.506 -0.8,-21.408 -1.5,-35.319 -2.2,-41.743 h 2 l 184,277.146 h 47 V 495.29 h -39.4 v 182.096 c 0,15.856 0.6,34.398 1.7,55.488 1,21.192 1.8,34.867 2.2,41.116 h -2 L 14117,495.29 h -46.9 v 334.809" /></g><path
         id="path38"
         style="fill:#bf2329;fill-opacity:1;fill-rule:nonzero;stroke:none"
         d="M 9012.55,4813.86 C 8838,4556.57 8658.76,4301.51 8508.43,4029.57 l -210.35,-337.25 c -195.65,-236.4 -369.98,-208.94 -284.64,-9.47 260.56,609.05 829.92,1347.35 1203.08,1939.76 120.95,191.09 232.81,377.12 336,557.59 70.08,121.33 125.79,220.92 167.71,298.77 42.33,77.34 92.28,176.93 150.43,298.76 58.3,122.34 102.44,229 132.74,321.01 30.1,91.5 54.2,191.09 72,298.26 17.8,107.17 20.8,205.75 10,295.23 -9.4,81.39 -37.3,153.17 -83.5,216.36 -79.42,103.63 -193.85,165.82 -342.14,186.54 -91.39,13.14 -188,11.63 -289.67,-4.04 -101.83,-16.18 -202.16,-43.98 -300.73,-84.43 -99.31,-40.95 -193.31,-86.95 -283.64,-139.52 -90.17,-52.07 -179.86,-111.72 -268.02,-177.44 -190.19,-142.56 -346.85,-311.91 -470.3,-509.06 -123.85,-196.66 -188.32,-385.72 -193.65,-566.19 -2.4,-93.02 14.2,-176.93 51.12,-251.25 36.33,-74.31 89.33,-135.99 157.85,-185.02 69.09,-49.04 146.41,-88.47 232.93,-118.8 86.69,-29.83 182.85,-51.56 287.64,-64.2 19.51,-2.02 28.81,-12.64 27.17,-32.35 -0.9,-19.22 -10.02,-29.83 -29.4,-32.86 -4.92,-1.01 -8.95,-1.01 -13.24,0 -113.01,12.13 -216.81,33.36 -310.91,65.21 -94.27,31.34 -177.69,73.3 -252.16,125.37 -74.05,51.56 -132.83,116.77 -175.95,195.13 -42.96,78.87 -65.18,166.82 -67.1,264.39 -4.5,138.52 25.35,280.06 89.14,425.15 63.78,145.08 146.46,282.59 248.45,412 101.26,128.91 221.06,252.76 358.84,371.57 170.33,147.1 360.4,267.42 571.49,361.44 210.36,93.53 413.07,141.05 606.8,142.06 164.37,1.01 306.89,-37.92 427.38,-117.29 120.7,-78.86 203.7,-181.98 250.3,-309.38 27.2,-75.83 43.3,-157.72 47.9,-245.17 4.7,-86.96 -2.8,-177.95 -21.2,-272.49 -18.9,-94.02 -41.4,-185.02 -68.1,-272.98 -26.7,-87.96 -63.4,-184.01 -109.5,-287.64 -46.6,-103.63 -89.1,-194.12 -127.4,-271.47 -38.84,-77.34 -84.85,-166.32 -138.83,-265.91 -79.38,-147.42 -172.04,-309.65 -278.61,-487.1 697.74,557.56 1724.84,1266.37 2047.24,1471.5 918.6,555.92 1639.9,820.27 2162.4,777.35 75.1,-6.17 121.8,-43.33 136,-86.14 28.4,-85.68 -21.5,-197.05 -103,-137.06 -39,28.73 76.6,126.35 -124.3,128.06 -262.5,2.25 -566.7,-66.85 -912.2,-201.67 -386.3,-150.76 -824.4,-395.74 -1314.4,-734.95 -432.4,-290.25 -780.8,-543.34 -1060.9,-759.75 11.4,0.64 23.2,0.96 35.6,0.96 76.1,0 140.2,-20.78 192.2,-62.35 65.8,-45.02 117.7,-119.49 155.8,-223.4 l 26,-88.31 c 45,-183.57 50.2,-441.6 15.6,-774.1 -24.2,-259.77 -37.2,-494.42 -39,-703.96 -1.7,-209.55 27.7,-387.06 88.4,-532.52 60.6,-145.47 153.2,-237.25 277.9,-275.36 17.3,-3.46 32.9,-5.19 46.8,-5.19 79.6,-13.85 174,0 283.1,41.56 479.6,182.7 929.2,661.48 1292.1,1009.81 24.8,23.75 47.7,25.12 70.2,2.6 22.5,-22.51 22.1,-46.4 -2.6,-70.14 -378.3,-363.06 -790.2,-807.4 -1287,-1015 -116,-48.49 -219,-72.73 -309.1,-72.73 -3.4,0 -10.4,1.73 -20.8,5.19 -3.4,0 -6.9,0 -10.4,0 -121.2,6.93 -226.8,34.64 -316.9,83.12 -90,48.5 -160.2,116.9 -210.4,205.22 -50.2,88.32 -90.9,180.97 -122.1,277.95 -31.1,96.98 -49.3,211.27 -54.5,342.89 -5.2,131.61 -6.1,252.84 -2.6,363.67 3.4,110.83 12.1,235.52 26,374.06 21.3,189.4 30.3,365.44 27,528.13 0,0.14 -28.6,319.34 -29.4,323.92 -9.1,49.11 -18.6,88.2 -34,114.28 -19,32.27 -48.5,48.48 -83.1,51.95 -14.8,0 -28.5,-0.55 -41.2,-1.62 v 0 0 c -32.7,-2.78 -58.2,-9.16 -76.5,-19.14 -13.9,-3.42 -25.7,-6.8 -31.4,-9.67 -13.2,-6.74 -28.2,-8.8 -43.9,-11.79 C 9689.84,5615.9 9458.01,5348.8 9379.43,5273.3 9309.5,5206.12 9130.4,4957.16 9012.55,4813.86" /><path
         id="path40"
         style="fill:#bf2329;fill-opacity:1;fill-rule:nonzero;stroke:none"
         d="m 890.996,5590.21 c 14.551,14.93 38.496,15.28 53.445,0.72 14.938,-14.52 15.278,-38.49 0.743,-53.41 -7.606,-7.78 -16.2,-15.06 -25.579,-21.68 -55.093,-39.08 -133.042,-49.68 -218.765,-28.22 -80.813,20.24 -169.742,69.31 -252.668,150.34 -33.66,32.93 -66.434,71.13 -97.176,114.63 C 88.5391,6123.98 6.3125,6544.23 56.9922,6962.18 c 43.3828,357.78 184.4258,713.83 393.1208,1035.78 208.196,321.23 484.004,608.78 797.447,830.27 464.67,328.37 1012.74,512.25 1547.67,447.39 152.86,-18.55 262.63,-73.39 324.01,-139.71 31.55,-34.06 50.98,-71.43 57.59,-109.08 6.95,-39.41 0.1,-78.77 -21.09,-114.92 -29.21,-49.8 -85.99,-92.41 -171.43,-118.14 -20.02,-5.95 -41.12,5.43 -47.06,25.47 -5.95,20.02 5.43,41.1 25.45,47.06 65.87,19.82 108.03,49.89 127.92,83.79 11.69,19.96 15.47,41.78 11.61,63.71 -4.18,23.67 -17.07,47.95 -38.31,70.89 -50.19,54.2 -143.81,99.54 -277.58,115.76 C 2271.06,9262.93 1741.37,9084.56 1291.08,8766.37 985.359,8550.3 716.406,8269.95 513.445,7956.82 310.941,7644.41 174.141,7299.41 132.164,6953.3 83.6211,6553.05 162.113,6150.95 412.875,5796.11 c 28.117,-39.82 57.762,-74.43 87.996,-103.98 72.777,-71.15 149.531,-113.9 218.332,-131.11 63.902,-15.99 119.781,-9.67 156.887,16.54 5.191,3.54 10.183,7.8 14.906,12.65 z M 1991.11,2995.94 c 8.14,-37.66 16.95,-74.31 26.37,-109.98 12.21,121.5 57.07,246.87 101.92,372.22 55.51,155.1 111.05,310.25 100.67,452.14 -11.03,151.08 -88.38,294.7 -165.7,438.25 -39.23,72.79 -78.45,145.6 -109.63,220.04 -23.1,-160.3 -80.46,-286.34 -136.28,-409 -72.83,-160.02 -143.03,-314.2 -125.11,-532.89 2.84,-34.43 96.6,-285.32 216.07,-512.87 19.2,-36.54 39,-72.37 59.14,-106.43 -76.77,264.36 -51.56,499.87 -28.26,717.17 20.92,195.25 40.24,375.47 -20.15,544.7 -5.55,15.53 4.78,32.5 23.04,37.86 18.26,5.36 37.6,-2.93 43.15,-18.47 64.39,-180.43 44.48,-366.17 22.92,-567.39 -17.53,-163.54 -36.17,-337.65 -10,-525.75 z m 335.08,-787.83 c 133.55,-190.57 272.97,-314.84 369.85,-387.47 l -1.66,-2.23 c 121.99,-83.72 233.43,-161.01 396.48,-358.77 18.27,-22.15 33.14,-50.82 44.63,-83.5 53.97,35.1 119.74,72.99 194.91,106.69 168.87,75.7 385.12,130.22 622.56,85.19 19.44,-3.66 32.22,-22.41 28.57,-41.86 -3.66,-19.44 -22.41,-32.22 -41.86,-28.57 -220.04,41.75 -421.82,-9.38 -579.85,-80.23 -80.89,-36.27 -150.43,-77.74 -205.25,-114.71 6.18,-34.11 9.46,-70.12 9.8,-106.03 0.54,-57.91 -6.54,-116.63 -21.29,-167.41 -15.6,-53.823 -40.22,-99.323 -74.11,-127.23 -23.48,-19.359 -50.9,-30.464 -82.33,-30.765 -30.27,-0.297 -56.07,8.09 -76.85,23.094 -26.52,19.218 -43.73,48.656 -50.75,84.129 -6.35,32.052 -4.3,69.272 6.84,107.852 17.91,62.13 59.76,129.6 128.15,185.91 17.41,14.34 44.51,36.19 79.97,61.8 -9.34,32.36 -22.22,60.13 -38.59,79.96 -130.76,158.61 -227.22,236.74 -323.87,305.16 -1.31,-0.46 -2.66,-0.86 -4.06,-1.16 -1210.92,-264.8 -1465.41,53.75 -1720.738,373.41 -73.281,91.74 -146.695,183.61 -243.109,258.87 -14.5,11.35 -18.207,32.17 -7.922,47.87 10.801,16.56 33.039,21.23 49.578,10.41 270.051,-176.28 515.301,-164.44 759.331,-152.61 145.2,7.03 290.03,14.05 440.03,-15.71 -572.92,363.3 -439.04,629.13 -721.7,1116.62 -97.23,141.14 -256.18,251.07 -415.079,360.93 -164.894,113.98 -329.828,228.02 -434.285,380.27 -111.133,162.02 -158.031,356.66 -204.84,551.25 -45.281,188.09 -90.59,376.29 -194.0937,527.14 l -0.1679,0.28 c -11.06252,16.38 -6.7344,38.67 9.6289,49.74 16.2851,10.98 38.4258,6.79 49.5703,-9.36 l 1.9414,-2.85 c 186.777,-274.81 384.512,-390.32 574.672,-501.36 183.891,-107.4 361.113,-210.89 518.503,-444.11 25.47,-37.73 143.98,-351.55 219.89,-654.43 165.91,-662.2 29.67,-934.91 698.32,-1354.03 l 2.29,-1.31 27.41,-17.19 109.92,-70.32 c 25.84,-17.03 51.51,-34.42 76.91,-52.39 -11.77,15.73 -23.51,31.92 -35.21,48.61 -78.17,111.54 -154.33,244.83 -219.43,402.52 -72.17,72.49 -146.47,191.25 -212.72,317.39 -122.22,232.77 -218.61,495.25 -221.7,532.81 -19.02,232.16 54.01,392.61 129.8,559.11 78.39,172.18 159.87,351.23 138.46,625.51 l -0.22,2.84 c -1.15,16.2 13.16,30.7 32.05,32.44 19,1.75 35.51,-10.09 36.84,-26.4 l 0.03,-0.27 c 11.03,-151.06 88.38,-294.69 165.72,-438.23 80,-148.5 159.98,-297.08 171.85,-459.31 11.14,-152.46 -46.32,-313.04 -103.78,-473.56 -55.36,-154.71 -110.74,-309.49 -100.72,-451.03 41.08,-252.46 79.76,-352.36 241.68,-583.4 z m 762.79,-952.38 c -20.82,-15.78 -37.41,-29.19 -49.27,-38.98 -56.32,-46.36 -90.47,-100.84 -104.76,-150.4 -7.99,-27.66 -9.71,-53.24 -5.56,-74.123 3.46,-17.481 11.12,-31.446 22.52,-39.684 8.49,-6.145 19.9,-9.574 34.05,-9.438 13.92,0.133 26.4,5.313 37.33,14.325 22.21,18.289 39.29,51.3 51,91.74 12.63,43.44 18.66,94.98 18.19,146.77 -0.18,20.19 -1.36,40.28 -3.5,59.79 z m -769.85,762.91 c -273.53,189.68 -521.63,177.72 -770.9,165.61 -192.05,-9.29 -384.83,-18.64 -591.707,57.53 29.762,-34.7 58.067,-70.1 86.347,-105.51 237.12,-296.86 473.61,-592.7 1587.9,-361.29 -19.77,13.61 -39.92,27.63 -60.72,42.52 l -3.5,1.4 c -223.83,103.47 -437.66,97.03 -646.03,90.74 -232.79,-7.01 -459.16,-13.82 -693.02,125.08 -16.81,9.99 -22.5,31.97 -12.72,49.03 9.78,17.05 31.38,22.77 48.21,12.78 216.12,-128.4 432.55,-121.88 655.1,-115.16 156.82,4.74 316.6,9.54 483.7,-30.25 -26.8,23.59 -54.43,46.01 -82.66,67.52 z m -968.02,1437.61 c -9.32,45.84 -20.2,93.12 -32.12,140.67 -74.25,296.08 -186.23,597.12 -209.56,631.72 -148.274,219.68 -318.539,319.13 -495.262,422.34 -135.484,79.13 -274.668,160.43 -412.094,297.21 30.555,-91.58 53.512,-186.97 76.449,-282.37 45.278,-188.09 90.586,-376.27 194.086,-527.14 97.215,-141.7 256.582,-251.87 415.883,-362.01 137.398,-95 274.808,-190 377.228,-307.1 -130.01,269.13 -310.329,460.32 -477.337,637.41 -166.653,176.66 -320.449,339.74 -403.422,554.2 -7.137,18.47 2.059,39.29 20.555,46.43 18.453,7.13 39.293,-2.07 46.402,-20.54 77.805,-201.14 227.066,-359.37 388.762,-530.79 179.96,-190.77 374.95,-397.57 510.43,-700.03 z m 2254.1,4082.68 c 49.22,-89.25 96.31,-172.08 142.48,-249.56 121.48,137.8 138.53,280.56 -24.05,425.84 -47.6,42.54 -83.83,60.01 -109.62,59.98 -10.73,-0.03 -19.41,-4.05 -25.91,-10.92 -8.56,-8.97 -14.77,-22.99 -18.44,-40.24 -10.84,-50.93 0.96,-122.35 35.54,-185.1 z M 2176.58,5078.86 c -30.43,44.33 -48.31,98.31 -48.31,156.43 0,65.54 22.7,125.76 60.47,172.82 -85.04,-27.52 -191.15,-86.76 -263.41,-142.06 70.49,-84.71 156.67,-146.44 251.25,-187.19 z m 456.36,280.77 c 18.76,-37.29 29.36,-79.59 29.36,-124.34 0,-75.01 -29.81,-143.16 -77.91,-192.53 -7.76,-7.94 -15.98,-15.38 -24.62,-22.32 129.64,10.84 258.07,49.88 371.44,113.31 -70.13,63.63 -138.36,121.98 -208.23,170.25 -29.52,20.38 -59.42,39.04 -90.04,55.63 z m -149,10.85 c -17.51,17.95 -41.76,29.08 -68.54,29.08 -26.79,0 -51.06,-11.13 -68.55,-29.08 -17.8,-18.25 -28.81,-43.62 -28.81,-71.7 0,-28.15 11.01,-53.5 28.81,-71.73 17.49,-17.97 41.76,-29.1 68.55,-29.1 26.78,0 51.03,11.13 68.54,29.1 17.79,18.23 28.81,43.58 28.81,71.73 0,28.08 -11.02,53.45 -28.81,71.7 z m 100.84,-108.3 c -7.05,-33.86 -23.58,-64.17 -46.69,-87.84 -31.39,-32.24 -74.8,-52.17 -122.69,-52.17 -47.9,0 -91.32,19.93 -122.7,52.17 -31.13,31.91 -50.43,75.96 -50.43,124.44 0,26.48 5.77,51.65 16.06,74.22 -33.58,-35.5 -54.29,-84.09 -54.29,-137.71 0,-54.72 21.55,-104.14 56.31,-139.83 34.47,-35.37 82.22,-57.28 134.94,-57.28 52.72,0 100.45,21.93 134.93,57.28 34.76,35.69 56.32,85.11 56.32,139.83 0,9.12 -0.62,18.11 -1.76,26.89 z m 3127.92,845.03 1.38,18.15 c 4.92,67.21 8.3,140.75 8.78,218.22 4.25,671.86 -198.49,1189.49 -524.08,1554.75 -366.33,410.9 -888.91,629.82 -1447.45,659.1 -156.96,8.22 -303.77,5.28 -441.19,-7.3 -9.14,-5.08 -19.93,-6.08 -29.71,-3.01 -1112.67,-114.35 -1596.4,-869.76 -1796.69,-1487.28 -64.93,-200.14 -100.25,-386.11 -117.59,-531.24 -10.41,-87.05 -14.36,-158.39 -14.44,-208.77 12.94,23.91 28.16,53.58 45.75,87.82 250.78,488 959.18,1866.37 2679.12,1558.15 363.17,-65.08 865.39,-259.85 1221.78,-736.12 204.09,-272.73 360.18,-637.5 414.34,-1122.47 z M 4431.22,4940.28 c -29.78,42.85 -47.22,94.95 -47.22,151.13 0,67.48 25.2,129.07 66.66,175.9 -25.94,-8.15 -51.77,-17.54 -77.6,-28 -79.06,-32.01 -158.3,-74.01 -240.39,-120.65 86.58,-77.47 189.08,-138.59 298.55,-178.38 z m 427.12,314.98 c 35.46,-45.12 56.6,-102.03 56.6,-163.85 0,-77.47 -33.19,-147.17 -86.12,-195.71 76.35,11.25 151.02,34.87 221.2,72.31 l 0.77,0.46 c 15.97,9.13 31.41,18.24 46.35,27.24 15.66,10.08 31.04,20.94 46.13,32.58 -15,17.87 -30.61,35.28 -46.77,52.06 -71.13,73.9 -152.43,135.54 -238.16,174.91 z m -395.32,-105.39 0.02,1.02 c -5.98,-18.73 -9.22,-38.74 -9.22,-59.48 0,-108.05 87.58,-195.64 195.63,-195.64 108.1,0 195.68,87.59 195.68,195.64 0,36.32 -9.91,70.34 -27.16,99.47 3.08,-13.15 4.73,-26.91 4.73,-41.01 0,-119.68 -91.24,-176.89 -181.74,-178.53 -77.83,-1.41 -177.94,60.17 -177.94,178.53 z m 283.62,-0.05 c 0,56.35 -45.69,102.02 -102.02,102.02 -56.36,0 -102.03,-45.67 -102.03,-102.02 0,-65.62 49.57,-99.22 99.83,-100.32 51.71,-1.13 104.22,32.13 104.22,100.32 z M 6262.62,3368.39 c 12.24,-16.89 8.45,-40.56 -8.45,-52.83 -16.92,-12.25 -40.57,-8.45 -52.83,8.45 -207.79,219.13 -388.2,-144.55 -82.59,-277.45 50.74,-22.03 109.11,-32.08 169.14,-26.89 60.24,5.19 122.06,25.83 179.47,65.04 69.96,47.77 133.81,123.34 181.23,232.37 184.45,424.26 66.02,898.78 -232.57,1358.09 l -6.07,9.19 c -413.01,-429.27 -833.24,-984.88 -1018.54,-1509.88 -142.9,-404.87 -145.13,-790.8 107.55,-1082.64 47.45,-54.81 95.81,-86.4 140.48,-101.68 52.91,-18.13 100.32,-13.3 133.85,2.18 18.94,8.72 41.44,0.44 50.17,-18.52 8.72,-18.93 0.42,-41.42 -18.51,-50.14 -48.99,-22.63 -116.55,-30.2 -189.8,-5.14 -56.25,19.25 -116.15,57.85 -173.29,123.85 -273.61,315.99 -273.35,727.79 -121.76,1157.24 190.99,541.08 623.88,1111.61 1046.64,1548.82 -358.76,517.09 -938.36,1009.43 -1565.16,1385.49 -322.53,193.52 -546.63,369.63 -736.24,580.85 -119.42,133.03 -224.86,279.71 -332.35,453.12 -259.63,-234.32 -752.55,-451.85 -1195.72,-647.41 -354.19,-156.25 -676.15,-298.37 -811.96,-418.54 -55.1,-48.78 -75.2,-90.94 -45.45,-124.56 29.35,-33.17 103.94,-25.63 227.16,-13.18 113.63,11.48 264.72,26.78 461.76,16.44 352.01,-18.48 635.26,-111.88 818.08,-303.91 183.53,-192.74 264.02,-482 209.36,-890.92 -10.39,-78.1 -24.11,-152.88 -39.49,-224.25 -15.37,-71.37 -32.71,-140.4 -50.22,-206.45 -16.71,-62.92 -51.72,-121.59 -84.31,-176.18 -17.89,-29.98 -35.07,-58.72 -47.03,-85.2 -25.48,-56.38 -32.7,-103.45 -28.87,-138.1 1.89,-17.09 6.38,-30.33 12.34,-39.25 3.57,-5.17 6.99,-8.19 9.72,-8.7 1.02,-0.2 2.37,0.01 3.91,0.68 77.57,33.85 130.69,11.78 188.1,-12.04 33.4,-13.86 68.74,-28.5 110.17,-27.33 25.12,0.69 52.33,5.88 79.93,11.14 69.99,13.31 142.58,27.14 227.92,-14.34 18.79,-9.08 26.68,-31.68 17.61,-50.48 -9.08,-18.79 -31.69,-26.67 -50.47,-17.59 -62.97,30.6 -123.14,19.14 -181.16,8.12 -30.17,-5.77 -59.95,-11.44 -91.77,-12.32 -57.82,-1.63 -100.69,16.14 -141.24,32.96 -42,17.43 -80.88,33.55 -128.92,12.61 -16.04,-6.98 -32.49,-8.75 -48.27,-5.72 -22.78,4.39 -43.15,18.43 -58.2,40.72 -12.49,18.72 -21.54,43.55 -24.83,73.28 -5.15,46.62 3.46,107.59 35.06,177.45 13.34,29.51 31.86,60.55 51.18,92.9 29.92,50.15 62.08,104 76.04,156.62 17.07,64.38 34.05,132.07 49.31,202.88 15.25,70.77 28.68,143.85 38.63,218.38 51.35,384.04 -21.61,652.95 -189.27,829.04 -168.32,176.78 -434.22,263.05 -767.16,280.53 -191.6,10.06 -339.38,-4.89 -450.5,-16.12 -147.1,-14.88 -236.07,-23.87 -291.11,38.31 -65.35,73.89 -38.84,150.77 51.99,231.12 145.04,128.39 471.92,272.64 831.46,431.29 444.84,196.3 940.53,415.04 1186.2,643.73 -49.97,83.19 -100.77,172.43 -154.04,269 -43.27,78.5 -57.55,170.19 -43.25,237.18 6.51,30.66 19.09,57.16 37.64,76.66 20.55,21.63 47.52,34.21 80.7,34.29 43.25,0.12 97.02,-22.99 159.93,-79.18 204.8,-183.01 181.85,-362.5 27.2,-535.58 l -12.72,-13.84 c 108.29,-175.98 213.77,-323.62 333.16,-456.65 184.52,-205.54 403.32,-377.37 718.8,-566.63 630.16,-378.11 1213.98,-873.22 1579.76,-1394.89 778.31,823.17 803.53,1826.21 429.77,2656.29 -142.74,317.06 -343.55,608.92 -582.63,855.98 -238.96,246.92 -516.32,449.17 -812.26,587.16 -665.17,310.17 -1425.44,294.54 -2055.66,-270.68 112.64,6.42 231.08,6.78 355.81,0.26 578.19,-30.28 1119.78,-257.57 1500.14,-684.24 337.34,-378.44 547.36,-913.08 543,-1605.37 -0.49,-81.44 -3.87,-156.32 -8.76,-223.25 -6.14,-83.48 -14.74,-156.23 -23.33,-214.87 -10.96,-74.38 -21.3,-127.02 -27.75,-150.85 -1.87,-6.7 -3.78,-12.27 -5.67,-16.54 -23.28,-53.05 -47.94,-53.85 -71.25,-1.96 -2.48,5.59 -3.79,12.34 -3.82,20.35 -5.9,646.18 -177.9,1105.01 -419.77,1428.23 -342.23,457.32 -825.31,644.52 -1174.71,707.12 -1664.89,298.37 -2354.48,-1043.44 -2598.61,-1518.52 -39.14,-76.21 -67.35,-131.03 -88.44,-157.18 -21.57,-26.76 -42.77,-35.47 -64.8,-23.49 -15.19,5.04 -25.39,19.89 -29.9,43.87 -7.51,40.08 -8.56,150.47 9.48,301.27 17.77,148.77 54.06,339.58 120.82,545.45 207.88,640.95 710.34,1425.49 1867.05,1540.36 669.16,652.7 1491.93,682.68 2208.14,348.71 304.15,-141.82 589.05,-349.59 834.44,-603.14 245.27,-253.42 451.14,-552.64 597.45,-877.58 387.18,-859.85 358.87,-1899.9 -455.19,-2751.14 l 15.65,-23.82 c 311.99,-479.92 434.44,-978.76 238.51,-1429.4 -53.53,-123.13 -126.91,-209.32 -207.89,-264.62 -68.9,-47.08 -143.19,-71.83 -215.58,-78.08 -72.59,-6.3 -143.65,6.08 -205.82,33.07 -424.66,184.77 -131.38,715.55 174.05,391.12 z m -2805.49,-40.8 c 131.48,91.64 219.47,65.35 323.33,-30.09 l 19.04,-13.98 c 58.57,-42.31 158.32,-56.21 227.4,-65.85 59.77,-8.31 103.04,-14.39 112.6,-47.9 1.92,-6.48 2.05,-12.89 0.86,-19.25 l -0.85,-3.54 c -1.25,-4.41 -3.27,-8.45 -5.9,-11.96 -8.38,-12.4 -23.91,-25.11 -46.01,-36.14 l -2,-0.91 c -22.05,-10.75 -53.33,-22.7 -92.85,-33.7 -134.36,-37.38 -371.48,-66 -682.25,-5.21 l -95.78,19.49 c -103.45,21.34 -191.69,39.56 -230.05,36.27 39.62,-89.94 108.49,-154.05 187.6,-196.64 104.19,-56.14 225.89,-75.41 323.67,-68.2 46.22,3.39 95.9,10 141.97,21.24 37.4,9.12 72.67,21.37 101.88,37.47 18.29,10.02 41.3,3.35 51.35,-14.96 10.04,-18.3 3.37,-41.3 -14.93,-51.36 -35.15,-19.31 -76.78,-33.88 -120.55,-44.54 -51.02,-12.45 -104.89,-19.71 -154.39,-23.33 -110.03,-8.1 -247.14,13.65 -364.8,77.09 -95.97,51.7 -179.38,131.11 -225.73,244.46 -17.78,43.5 -4.83,70.85 32.41,86.05 48.51,19.61 156.61,-2.7 286.69,-29.55 26.63,-5.46 53.71,-11.11 95.17,-19.2 297.05,-58.08 521.23,-31.39 647.6,3.75 l 27.02,8.08 c -75.51,10.73 -155.77,24.04 -224.21,73.53 l -19.35,14.24 c -104.3,76.86 -135.64,100.43 -258.22,29.36 -36.03,-20.9 -60.38,-34.83 -82.85,-3.47 -4.62,6.61 -9.66,13.04 -14.9,19.17 -38.47,44.97 -82.53,65.37 -126.26,67.38 -103.09,4.7 -187.63,-107.7 -321.26,-124.16 -54.88,-6.76 -123.94,-5.25 -207.52,14.23 -20.32,4.71 -32.99,25.09 -28.28,45.44 4.73,20.31 25.1,32.97 45.44,28.25 73.68,-17.15 133.81,-18.58 181.2,-12.77 79.17,9.78 120.06,38.69 129.92,47.15 8.5,7.26 16.81,13.83 24.7,19.48 l 2.69,1.76 c 53.36,37.56 114.76,58.92 176.35,56.1 63.79,-2.94 126.76,-31.22 180.05,-93.28 z M 1815.78,5287.61 c -23.53,34.91 -58.4,88.53 -87.55,140.6 -25.75,46 -47.68,92.05 -55.18,126.08 -4.49,20.32 8.38,40.5 28.71,44.98 20.35,4.47 40.51,-8.38 44.99,-28.7 5.62,-25.45 24.67,-64.64 47.47,-105.4 27.9,-49.78 60.67,-100.38 82.99,-133.56 91.24,62.79 203.59,124 309.29,154.81 99.69,29.04 201.16,36.08 296.91,12.59 102.86,-25.28 194.63,-72.14 282.48,-132.82 86.45,-59.73 168.53,-132.37 253.93,-210.96 15.34,-14.14 16.34,-38.07 2.21,-53.43 -2.94,-3.17 -6.26,-5.74 -9.86,-7.65 -188.52,-119.24 -422.85,-173.19 -642.9,-144.85 -192.49,24.77 -374.32,112.14 -505.98,273.08 -144.37,-106.99 -222.15,-250.4 -260.89,-398.76 -8.86,0.92 -17.67,1.5 -26.4,1.5 -19.43,0 -38.06,-2.4 -55.94,-6.89 38.89,173.45 124.82,344.18 295.72,469.38 z M 2872.21,2126.85 c 165.68,-93.03 362.71,-140.87 560.19,-142.36 255.35,-1.97 510.79,73.41 699.42,228.49 193.1,158.78 363.75,332.93 511.79,514.42 l 0.59,0.7 0.58,0.71 c 163.77,200.98 299.76,410.91 407.72,619.01 234.41,451.86 336.38,893.57 303.02,1213.9 l -0.43,3.56 c -9.65,126.45 -70.82,272.01 -163.28,400.56 -18.05,-11.8 -36.9,-23.61 -56.54,-35.5 -15.23,-9.72 -30.67,-18.8 -46.32,-27.25 l -0.59,-0.36 -1.71,-0.91 -0.86,-0.43 c -138.55,-74.09 -292.64,-99.39 -444.82,-85.34 -221.3,20.36 -438.52,124.33 -596.52,282.11 -2.82,2.57 -5.32,5.61 -7.34,9.09 -10.46,18.07 -4.28,41.2 13.79,51.64 100.71,58.23 196.84,111.34 293.76,150.57 98.88,40 198.62,65.65 304.77,67.88 182.34,3.87 361.18,-98.75 501.54,-244.6 19.89,-20.65 39.01,-42.17 57.27,-64.42 162.53,115.93 238.06,222.04 244.26,321.48 10.51,167.66 -164.27,280.38 -300.15,335.31 -295.36,119.42 -735.46,119.44 -1035.02,-90.3 -17.08,-11.91 -40.62,-7.75 -52.54,9.33 -11.92,17.1 -7.77,40.62 9.32,52.54 321.39,225.04 791.55,225.85 1106.34,98.57 169.76,-68.63 360.34,-204.84 347.53,-410.16 -7.51,-119.82 -91.99,-245.2 -273.94,-376.57 99.46,-139.05 165.53,-297.5 176.4,-436.4 l 0.12,-1.21 c 35.19,-334.21 -69.35,-792.23 -310.87,-1257.71 -109.17,-210.44 -246.48,-422.72 -411.55,-626.12 -60.08,-270.04 -57.06,-514.67 -18.82,-724.48 49.79,-273.17 159,-486.91 265.94,-620.72 13,-16.26 10.37,-40 -5.9,-52.98 -16.25,-12.99 -39.99,-10.35 -52.97,5.92 -113.44,141.9 -229.08,367.57 -281.37,654.45 -33.47,183.57 -41.11,392.52 -5.79,620.84 -128.41,-145.75 -271.57,-285.62 -429.48,-415.44 -202.77,-166.71 -475.7,-247.73 -747.64,-245.65 -194.36,1.45 -388.64,45.33 -556.91,130.61 1.62,8.22 2.33,18.74 1.8,32.16 -0.13,3.37 0.83,3.76 0,7.02 -2.9,11.34 -2.53,29.46 -4.79,48.04" /></g></g></svg>