<svg width="15" height="24" viewBox="0 0 15 24" fill="none" xmlns="http://www.w3.org/2000/svg">
<g clip-path="url(#clip0_1_263)">
<path d="M7.986 3.422C8.86767 3.42385 9.71251 3.77581 10.3347 4.40046C10.9569 5.02512 11.3056 5.87133 11.304 6.753C11.3049 7.18964 11.2198 7.6222 11.0536 8.02596C10.8873 8.42972 10.6432 8.79678 10.3351 9.10618C10.027 9.41559 9.66095 9.66128 9.25789 9.82922C8.85484 9.99717 8.42265 10.0841 7.986 10.085C7.54936 10.0841 7.11717 9.99717 6.71411 9.82922C6.31105 9.66128 5.94502 9.41559 5.63692 9.10618C5.32881 8.79678 5.08467 8.42972 4.91842 8.02596C4.75217 7.6222 4.66708 7.18964 4.668 6.753C4.66641 5.87133 5.01506 5.02512 5.63727 4.40046C6.25949 3.77581 7.10433 3.42385 7.986 3.422ZM7.991 12.927C8.80191 12.9265 9.60478 12.7662 10.3538 12.4554C11.1027 12.1446 11.7832 11.6893 12.3562 11.1156C12.9292 10.5418 13.3836 9.86076 13.6935 9.11137C14.0033 8.36199 14.1625 7.55891 14.162 6.748C14.1628 5.11063 13.5133 3.53999 12.3562 2.38144C11.1992 1.2229 9.62937 0.571325 7.992 0.57C7.18109 0.570394 6.37819 0.730505 5.62916 1.04119C4.88012 1.35188 4.19962 1.80706 3.62649 2.38074C3.05337 2.95442 2.59885 3.63536 2.2889 4.3847C1.97894 5.13404 1.81961 5.93709 1.82 6.748C1.82079 8.38514 2.47095 9.95513 3.62783 11.1135C4.78472 12.2719 6.35386 12.9241 7.991 12.927Z" fill="#8b008b"/>
<path d="M14.036 15.86C14.3663 15.6419 14.6374 15.3454 14.825 14.9969C15.0126 14.6484 15.1109 14.2588 15.111 13.863C15.1157 13.5363 15.0275 13.215 14.8567 12.9365C14.6858 12.658 14.4394 12.4338 14.146 12.29C13.8443 12.1393 13.5064 12.0763 13.1707 12.1081C12.835 12.1399 12.515 12.2653 12.247 12.47C11.0114 13.3723 9.52098 13.8585 7.991 13.8585C6.46102 13.8585 4.97063 13.3723 3.735 12.47C3.46661 12.2666 3.14685 12.142 2.81159 12.1102C2.47633 12.0784 2.13884 12.1407 1.837 12.29C1.54341 12.4337 1.29666 12.6578 1.12547 12.9363C0.954282 13.2148 0.865689 13.5361 0.87 13.863C0.870684 14.2587 0.969301 14.648 1.15705 14.9963C1.3448 15.3446 1.61585 15.6409 1.946 15.859C2.806 16.431 3.742 16.879 4.728 17.189C4.895 17.241 5.068 17.289 5.245 17.334L2.376 20.143C2.01475 20.4944 1.80766 20.9748 1.80016 21.4787C1.79266 21.9827 1.98537 22.469 2.336 22.831C2.51334 23.0139 2.72571 23.1593 2.96045 23.2584C3.19519 23.3574 3.44748 23.4082 3.70227 23.4077C3.95707 23.4071 4.20913 23.3552 4.44343 23.2551C4.67773 23.155 4.88947 23.0087 5.066 22.825L7.991 19.795L10.921 22.831C11.651 23.585 12.853 23.604 13.606 22.873C13.7889 22.6953 13.9343 22.4827 14.0334 22.2477C14.1326 22.0127 14.1835 21.7602 14.1831 21.5052C14.1827 21.2501 14.1311 20.9978 14.0313 20.7631C13.9314 20.5284 13.7855 20.3162 13.602 20.139L10.737 17.333C10.915 17.287 11.088 17.239 11.257 17.187C12.241 16.879 13.177 16.431 14.036 15.86Z" fill="#8b008b"/>
</g>
<defs>
<clipPath id="clip0_1_263">
<rect width="15" height="24" fill="white"/>
</clipPath>
</defs>
</svg>
