<svg width="45" height="44" viewBox="0 0 45 44" fill="none" xmlns="http://www.w3.org/2000/svg">
<g clip-path="url(#clip0_1_83)">
<path d="M7.715 37.89C7.15696 37.8892 6.62201 37.6672 6.22742 37.2726C5.83283 36.878 5.61079 36.343 5.61 35.785C5.61 34.625 6.555 33.68 7.715 33.68C7.90118 33.68 8.07974 33.754 8.21139 33.8856C8.34304 34.0173 8.417 34.1958 8.417 34.382C8.417 34.5682 8.34304 34.7467 8.21139 34.8784C8.07974 35.01 7.90118 35.084 7.715 35.084C7.53353 35.0908 7.36178 35.1678 7.23582 35.2986C7.10986 35.4294 7.03949 35.6039 7.03949 35.7855C7.03949 35.9671 7.10986 36.1416 7.23582 36.2724C7.36178 36.4032 7.53353 36.4801 7.715 36.487C7.90118 36.487 8.07974 36.561 8.21139 36.6926C8.34304 36.8243 8.417 37.0028 8.417 37.189C8.417 37.3752 8.34304 37.5537 8.21139 37.6854C8.07974 37.817 7.90118 37.891 7.715 37.891V37.89ZM20.352 40.698C20.1658 40.698 19.9873 40.624 19.8556 40.4924C19.724 40.3607 19.65 40.1822 19.65 39.996C19.65 39.8098 19.724 39.6313 19.8556 39.4996C19.9873 39.368 20.1658 39.294 20.352 39.294C21.512 39.294 22.457 38.349 22.457 37.189C22.4562 36.631 22.2342 36.096 21.8396 35.7014C21.445 35.3068 20.91 35.0848 20.352 35.084C20.1658 35.084 19.9873 35.01 19.8556 34.8784C19.724 34.7467 19.65 34.5682 19.65 34.382C19.65 34.1958 19.724 34.0173 19.8556 33.8856C19.9873 33.754 20.1658 33.68 20.352 33.68C21.2823 33.6811 22.1742 34.0511 22.8321 34.7089C23.4899 35.3668 23.8599 36.2587 23.861 37.189C23.8599 38.1195 23.4898 39.0115 22.8317 39.6694C22.1737 40.3273 21.2815 40.6972 20.351 40.698H20.352Z" fill="#BB9D60"/>
<path d="M20.353 35.083H7.722C7.53595 35.083 7.35752 35.0091 7.22596 34.8775C7.09441 34.746 7.0205 34.5675 7.0205 34.3815C7.0205 34.1954 7.09441 34.017 7.22596 33.8855C7.35752 33.7539 7.53595 33.68 7.722 33.68H20.353C20.5391 33.68 20.7175 33.7539 20.849 33.8855C20.9806 34.017 21.0545 34.1954 21.0545 34.3815C21.0545 34.5675 20.9806 34.746 20.849 34.8775C20.7175 35.0091 20.5391 35.083 20.353 35.083ZM7.722 40.704C7.54053 40.6971 7.36878 40.6202 7.24282 40.4894C7.11686 40.3586 7.04649 40.1841 7.04649 40.0025C7.04649 39.8209 7.11686 39.6464 7.24282 39.5156C7.36878 39.3848 7.54053 39.3078 7.722 39.301L20.352 39.3C20.5382 39.3 20.7167 39.374 20.8484 39.5056C20.98 39.6373 21.054 39.8158 21.054 40.002C21.054 40.1882 20.98 40.3667 20.8484 40.4984C20.7167 40.63 20.5382 40.704 20.352 40.704H7.722ZM17.546 37.893H7.722C7.53595 37.893 7.35752 37.8191 7.22596 37.6875C7.09441 37.556 7.0205 37.3775 7.0205 37.1915C7.0205 37.0054 7.09441 36.827 7.22596 36.6955C7.35752 36.5639 7.53595 36.49 7.722 36.49H17.546C17.732 36.49 17.9105 36.5639 18.042 36.6955C18.1736 36.827 18.2475 37.0054 18.2475 37.1915C18.2475 37.3775 18.1736 37.556 18.042 37.6875C17.9105 37.8191 17.732 37.893 17.546 37.893Z" fill="#BB9D60"/>
<path d="M17.542 37.891C17.4498 37.8911 17.3584 37.8731 17.2732 37.8378C17.188 37.8026 17.1105 37.7509 17.0453 37.6857C16.9801 37.6205 16.9284 37.543 16.8932 37.4578C16.8579 37.3726 16.8399 37.2812 16.84 37.189V34.382C16.84 34.196 16.9139 34.0175 17.0455 33.886C17.177 33.7544 17.3555 33.6805 17.5415 33.6805C17.7275 33.6805 17.906 33.7544 18.0375 33.886C18.1691 34.0175 18.243 34.196 18.243 34.382V37.189C18.2431 37.2811 18.2251 37.3724 18.1899 37.4576C18.1548 37.5427 18.1031 37.6201 18.038 37.6853C17.9729 37.7505 17.8956 37.8023 17.8105 37.8375C17.7254 37.8728 17.6341 37.891 17.542 37.891ZM7.722 40.705C6.41965 40.7032 5.17119 40.1849 4.25038 39.2639C3.32958 38.3429 2.81159 37.0944 2.81 35.792C2.81185 34.4898 3.32996 33.2415 4.25074 32.3207C5.17151 31.4 6.41982 30.8819 7.722 30.88C7.90818 30.88 8.08674 30.954 8.21839 31.0856C8.35004 31.2173 8.424 31.3958 8.424 31.582C8.424 31.7682 8.35004 31.9467 8.21839 32.0784C8.08674 32.21 7.90818 32.284 7.722 32.284C6.79203 32.2853 5.90052 32.6553 5.24293 33.3129C4.58534 33.9705 4.21532 34.862 4.214 35.792C4.21506 36.7222 4.58496 37.6139 5.24258 38.2717C5.9002 38.9295 6.79185 39.2997 7.722 39.301C7.90818 39.301 8.08674 39.375 8.21839 39.5066C8.35004 39.6383 8.424 39.8168 8.424 40.003C8.424 40.1892 8.35004 40.3677 8.21839 40.4994C8.08674 40.631 7.90818 40.705 7.722 40.705Z" fill="#BB9D60"/>
<path d="M20.353 32.284H7.722C7.53582 32.284 7.35726 32.21 7.22561 32.0784C7.09396 31.9467 7.02 31.7682 7.02 31.582C7.02 31.3958 7.09396 31.2173 7.22561 31.0856C7.35726 30.954 7.53582 30.88 7.722 30.88H20.353C20.5392 30.88 20.7177 30.954 20.8494 31.0856C20.981 31.2173 21.055 31.3958 21.055 31.582C21.055 31.7682 20.981 31.9467 20.8494 32.0784C20.7177 32.21 20.5392 32.284 20.353 32.284Z" fill="#BB9D60"/>
<path d="M20.352 43.512C20.1658 43.512 19.9873 43.438 19.8556 43.3064C19.724 43.1747 19.65 42.9962 19.65 42.81C19.65 42.6238 19.724 42.4453 19.8556 42.3136C19.9873 42.182 20.1658 42.108 20.352 42.108C21.6542 42.1062 22.9025 41.588 23.8233 40.6673C24.744 39.7465 25.2621 38.4982 25.264 37.196C25.2621 35.8938 24.744 34.6455 23.8233 33.7247C22.9025 32.804 21.6542 32.2859 20.352 32.284C20.1658 32.284 19.9873 32.21 19.8556 32.0784C19.724 31.9467 19.65 31.7682 19.65 31.582C19.65 31.3958 19.724 31.2173 19.8556 31.0856C19.9873 30.954 20.1658 30.88 20.352 30.88C22.0265 30.8819 23.632 31.5479 24.816 32.732C26.0001 33.916 26.6661 35.5215 26.668 37.196C26.6661 38.8705 26.0001 40.476 24.816 41.66C23.632 42.8441 22.0265 43.5102 20.352 43.512ZM7.72 43.509C3.463 43.509 0 40.045 0 35.789C0 31.533 3.463 28.07 7.72 28.07C7.90618 28.07 8.08474 28.144 8.21639 28.2756C8.34804 28.4073 8.422 28.5858 8.422 28.772C8.422 28.9582 8.34804 29.1367 8.21639 29.2684C8.08474 29.4 7.90618 29.474 7.72 29.474C6.04563 29.4759 4.44036 30.1418 3.25631 31.3256C2.07226 32.5095 1.40612 34.1146 1.404 35.789C1.40585 37.4634 2.07174 39.0686 3.25561 40.2527C4.43947 41.4367 6.04463 42.1029 7.719 42.105C7.90518 42.105 8.08374 42.179 8.21539 42.3106C8.34704 42.4423 8.421 42.6208 8.421 42.807C8.421 42.9932 8.34704 43.1717 8.21539 43.3034C8.08374 43.435 7.90518 43.509 7.719 43.509H7.72Z" fill="#BB9D60"/>
<path d="M20.353 43.514H7.722C7.53582 43.514 7.35726 43.44 7.22561 43.3084C7.09396 43.1767 7.02 42.9982 7.02 42.812C7.02 42.6258 7.09396 42.4473 7.22561 42.3156C7.35726 42.184 7.53582 42.11 7.722 42.11H20.353C20.5392 42.11 20.7177 42.184 20.8494 42.3156C20.981 42.4473 21.055 42.6258 21.055 42.812C21.055 42.9982 20.981 43.1767 20.8494 43.3084C20.7177 43.44 20.5392 43.514 20.353 43.514ZM21.055 29.474H7.722C7.53582 29.474 7.35726 29.4 7.22561 29.2684C7.09396 29.1367 7.02 28.9582 7.02 28.772C7.02 28.5858 7.09396 28.4073 7.22561 28.2756C7.35726 28.144 7.53582 28.07 7.722 28.07H21.055C21.2412 28.07 21.4197 28.144 21.5514 28.2756C21.683 28.4073 21.757 28.5858 21.757 28.772C21.757 28.9582 21.683 29.1367 21.5514 29.2684C21.4197 29.4 21.2412 29.474 21.055 29.474ZM0.702001 30.881C0.609776 30.8811 0.518431 30.8631 0.433201 30.8278C0.347971 30.7926 0.270531 30.7409 0.205318 30.6757C0.140105 30.6105 0.0884013 30.533 0.0531691 30.4478C0.017937 30.3626 -0.000130942 30.2712 7.14351e-07 30.179C7.14351e-07 25.923 3.463 22.46 7.72 22.46C7.81219 22.46 7.90347 22.4782 7.98864 22.5134C8.07381 22.5487 8.1512 22.6004 8.21639 22.6656C8.28158 22.7308 8.33329 22.8082 8.36856 22.8934C8.40384 22.9785 8.422 23.0698 8.422 23.162C8.422 23.2542 8.40384 23.3455 8.36856 23.4306C8.33329 23.5158 8.28158 23.5932 8.21639 23.6584C8.1512 23.7236 8.07381 23.7753 7.98864 23.8106C7.90347 23.8458 7.81219 23.864 7.72 23.864C6.04563 23.8659 4.44036 24.5317 3.25631 25.7156C2.07226 26.8995 1.40612 28.5046 1.404 30.179C1.40413 30.2712 1.38606 30.3626 1.35083 30.4478C1.3156 30.533 1.2639 30.6105 1.19868 30.6757C1.13347 30.7409 1.05603 30.7926 0.9708 30.8278C0.88557 30.8631 0.794226 30.8811 0.702001 30.881ZM0.702001 8.421C0.609776 8.42113 0.518431 8.40306 0.433201 8.36783C0.347971 8.3326 0.270531 8.2809 0.205318 8.21568C0.140105 8.15047 0.0884013 8.07303 0.0531691 7.9878C0.017937 7.90257 -0.000130942 7.81122 7.14351e-07 7.719C7.14351e-07 3.463 3.463 0 7.72 0C7.90618 0 8.08474 0.0739605 8.21639 0.205611C8.34804 0.337262 8.422 0.515818 8.422 0.702C8.422 0.888182 8.34804 1.06674 8.21639 1.19839C8.08474 1.33004 7.90618 1.404 7.72 1.404C6.04563 1.40585 4.44036 2.07174 3.25631 3.25561C2.07226 4.43947 1.40612 6.04463 1.404 7.719C1.40413 7.81122 1.38606 7.90257 1.35083 7.9878C1.3156 8.07303 1.2639 8.15047 1.19868 8.21568C1.13347 8.2809 1.05603 8.3326 0.9708 8.36783C0.88557 8.40306 0.794226 8.42113 0.702001 8.421Z" fill="#BB9D60"/>
<path d="M43.511 1.404H7.721C7.53482 1.404 7.35626 1.33004 7.22461 1.19839C7.09296 1.06674 7.019 0.888182 7.019 0.702C7.019 0.515818 7.09296 0.337262 7.22461 0.205611C7.35626 0.0739605 7.53482 0 7.721 0L43.511 0C43.6972 0 43.8757 0.0739605 44.0074 0.205611C44.139 0.337262 44.213 0.515818 44.213 0.702C44.213 0.888182 44.139 1.06674 44.0074 1.19839C43.8757 1.33004 43.6972 1.404 43.511 1.404ZM43.508 29.474H21.052C20.8658 29.474 20.6873 29.4 20.5556 29.2684C20.424 29.1367 20.35 28.9582 20.35 28.772C20.35 28.5858 20.424 28.4073 20.5556 28.2756C20.6873 28.144 20.8658 28.07 21.052 28.07H43.508C43.6942 28.07 43.8727 28.144 44.0044 28.2756C44.136 28.4073 44.21 28.5858 44.21 28.772C44.21 28.9582 44.136 29.1367 44.0044 29.2684C43.8727 29.4 43.6942 29.474 43.508 29.474ZM0.702001 36.494C0.609776 36.4941 0.518431 36.4761 0.433201 36.4408C0.347971 36.4056 0.270531 36.3539 0.205318 36.2887C0.140105 36.2235 0.0884013 36.146 0.0531691 36.0608C0.017937 35.9756 -0.000130942 35.8842 7.14351e-07 35.792V7.722C7.14351e-07 7.53582 0.0739612 7.35726 0.205612 7.22561C0.337262 7.09396 0.515819 7.02 0.702001 7.02C0.888183 7.02 1.06674 7.09396 1.19839 7.22561C1.33004 7.35726 1.404 7.53582 1.404 7.722V35.792C1.40413 35.8842 1.38606 35.9756 1.35083 36.0608C1.3156 36.146 1.2639 36.2235 1.19868 36.2887C1.13347 36.3539 1.05603 36.4056 0.9708 36.4408C0.88557 36.4761 0.794226 36.4941 0.702001 36.494Z" fill="#BB9D60"/>
<path d="M25.962 37.895C25.8698 37.8951 25.7784 37.877 25.6932 37.8418C25.608 37.8066 25.5305 37.7549 25.4653 37.6897C25.4001 37.6244 25.3484 37.547 25.3132 37.4618C25.2779 37.3766 25.2599 37.2852 25.26 37.193V28.772C25.26 28.5859 25.3339 28.4075 25.4655 28.2759C25.597 28.1444 25.7755 28.0705 25.9615 28.0705C26.1476 28.0705 26.326 28.1444 26.4575 28.2759C26.5891 28.4075 26.663 28.5859 26.663 28.772V37.192C26.6633 37.2842 26.6453 37.3756 26.6102 37.4609C26.5751 37.5461 26.5235 37.6237 26.4584 37.689C26.3933 37.7543 26.3159 37.8061 26.2307 37.8414C26.1455 37.8768 26.0542 37.895 25.962 37.895ZM43.511 29.476C43.3914 29.4758 43.2738 29.4451 43.1694 29.3868C43.065 29.3285 42.9773 29.2444 42.9145 29.1427C42.8517 29.0409 42.8159 28.9247 42.8106 28.8053C42.8052 28.6858 42.8305 28.5669 42.884 28.46L43.586 27.057C43.6726 26.8963 43.8183 26.7757 43.9923 26.7207C44.1663 26.6656 44.3549 26.6805 44.5181 26.7622C44.6813 26.8439 44.8063 26.9859 44.8666 27.1581C44.9269 27.3304 44.9177 27.5194 44.841 27.685L44.14 29.088C44.0815 29.2047 43.9917 29.3028 43.8806 29.3713C43.7695 29.4398 43.6415 29.4761 43.511 29.476Z" fill="#BB9D60"/>
<path d="M44.215 28.067C44.0844 28.0672 43.9564 28.031 43.8453 27.9625C43.7342 27.8939 43.6444 27.7958 43.586 27.679L42.884 26.276C42.8007 26.1095 42.787 25.9166 42.8459 25.74C42.9048 25.5633 43.0314 25.4173 43.198 25.334C43.3646 25.2507 43.5574 25.237 43.734 25.2959C43.9107 25.3548 44.0567 25.4815 44.14 25.648L44.841 27.051C44.8945 27.1579 44.9197 27.2767 44.9145 27.3961C44.9092 27.5154 44.8735 27.6315 44.8108 27.7333C44.7481 27.835 44.6605 27.9191 44.5562 27.9775C44.452 28.0359 44.3345 28.0667 44.215 28.067Z" fill="#BB9D60"/>
<path d="M43.511 26.667C43.3914 26.6668 43.2738 26.6361 43.1694 26.5778C43.065 26.5195 42.9773 26.4354 42.9145 26.3337C42.8517 26.2319 42.8159 26.1158 42.8106 25.9963C42.8052 25.8768 42.8305 25.7579 42.884 25.651L43.586 24.248C43.6758 24.0931 43.8212 23.9783 43.9927 23.927C44.1642 23.8757 44.3487 23.8917 44.5088 23.9718C44.6689 24.0519 44.7924 24.1901 44.8541 24.3581C44.9158 24.5261 44.9111 24.7113 44.841 24.876L44.14 26.279C44.0815 26.3957 43.9917 26.4938 43.8806 26.5623C43.7695 26.6308 43.6415 26.6671 43.511 26.667Z" fill="#BB9D60"/>
<path d="M44.215 25.267C44.0844 25.2672 43.9564 25.231 43.8453 25.1625C43.7342 25.0939 43.6444 24.9958 43.586 24.879L42.884 23.475C42.8428 23.3925 42.8182 23.3027 42.8116 23.2108C42.8051 23.1188 42.8167 23.0264 42.8459 22.939C42.8751 22.8515 42.9212 22.7706 42.9816 22.701C43.042 22.6313 43.1155 22.5742 43.198 22.533C43.2805 22.4918 43.3703 22.4672 43.4622 22.4606C43.5542 22.4541 43.6466 22.4657 43.734 22.4949C43.8215 22.5241 43.9024 22.5702 43.972 22.6306C44.0417 22.691 44.0988 22.7645 44.14 22.847L44.841 24.251C44.8945 24.3579 44.9197 24.4766 44.9145 24.596C44.9092 24.7154 44.8735 24.8315 44.8108 24.9332C44.7481 25.035 44.6605 25.119 44.5562 25.1774C44.452 25.2358 44.3345 25.2667 44.215 25.267Z" fill="#BB9D60"/>
<path d="M43.511 23.856C43.3914 23.8558 43.2738 23.8251 43.1694 23.7668C43.065 23.7085 42.9773 23.6244 42.9145 23.5227C42.8517 23.4209 42.8159 23.3048 42.8106 23.1853C42.8052 23.0658 42.8305 22.9469 42.884 22.84L43.586 21.437C43.6726 21.2763 43.8183 21.1557 43.9923 21.1007C44.1663 21.0456 44.3549 21.0605 44.5181 21.1422C44.6813 21.2239 44.8063 21.3659 44.8666 21.5382C44.9269 21.7104 44.9177 21.8994 44.841 22.065L44.14 23.469C44.0814 23.5855 43.9915 23.6834 43.8804 23.7517C43.7693 23.8201 43.6414 23.8562 43.511 23.856Z" fill="#BB9D60"/>
<path d="M44.215 22.457C44.0844 22.4572 43.9564 22.421 43.8453 22.3525C43.7342 22.2839 43.6444 22.1858 43.586 22.069L42.884 20.665C42.8007 20.4984 42.787 20.3056 42.8459 20.129C42.9048 19.9523 43.0314 19.8063 43.198 19.723C43.3646 19.6397 43.5574 19.626 43.734 19.6849C43.9107 19.7438 44.0567 19.8704 44.14 20.037L44.841 21.441C44.8945 21.5479 44.9197 21.6666 44.9145 21.786C44.9092 21.9054 44.8735 22.0215 44.8108 22.1232C44.7481 22.225 44.6605 22.309 44.5562 22.3674C44.452 22.4259 44.3345 22.4567 44.215 22.457Z" fill="#BB9D60"/>
<path d="M43.511 21.056C43.3914 21.0559 43.2738 21.0252 43.1694 20.9668C43.065 20.9085 42.9773 20.8244 42.9145 20.7227C42.8517 20.6209 42.8159 20.5048 42.8106 20.3853C42.8052 20.2658 42.8305 20.147 42.884 20.04L43.586 18.637C43.6726 18.4763 43.8183 18.3557 43.9923 18.3007C44.1663 18.2456 44.3549 18.2605 44.5181 18.3422C44.6813 18.4239 44.8063 18.5659 44.8666 18.7382C44.9269 18.9104 44.9177 19.0994 44.841 19.265L44.14 20.668C44.0815 20.7847 43.9917 20.8828 43.8806 20.9513C43.7695 21.0199 43.6415 21.0561 43.511 21.056Z" fill="#BB9D60"/>
<path d="M44.215 19.647C44.0844 19.6472 43.9564 19.611 43.8453 19.5424C43.7342 19.4739 43.6444 19.3757 43.586 19.259L42.884 17.856C42.8007 17.6894 42.787 17.4966 42.8459 17.3199C42.9048 17.1433 43.0314 16.9972 43.198 16.914C43.3646 16.8307 43.5574 16.817 43.734 16.8759C43.9107 16.9348 44.0567 17.0614 44.14 17.228L44.841 18.631C44.8945 18.7379 44.9197 18.8566 44.9145 18.976C44.9092 19.0954 44.8735 19.2115 44.8108 19.3132C44.7481 19.415 44.6605 19.499 44.5562 19.5574C44.452 19.6158 44.3345 19.6467 44.215 19.647Z" fill="#BB9D60"/>
<path d="M43.511 18.247C43.3914 18.2469 43.2738 18.2162 43.1694 18.1578C43.065 18.0995 42.9773 18.0154 42.9145 17.9137C42.8517 17.8119 42.8159 17.6958 42.8106 17.5763C42.8052 17.4568 42.8305 17.338 42.884 17.231L43.586 15.828C43.6758 15.6731 43.8212 15.5584 43.9927 15.507C44.1642 15.4557 44.3487 15.4718 44.5088 15.5519C44.6689 15.632 44.7924 15.7701 44.8541 15.9381C44.9158 16.1061 44.9111 16.2913 44.841 16.456L44.14 17.859C44.0815 17.9757 43.9917 18.0738 43.8806 18.1423C43.7695 18.2109 43.6415 18.2471 43.511 18.247Z" fill="#BB9D60"/>
<path d="M44.215 16.847C44.0844 16.8472 43.9564 16.811 43.8453 16.7425C43.7342 16.6739 43.6444 16.5758 43.586 16.459L42.884 15.055C42.8007 14.8884 42.787 14.6956 42.8459 14.519C42.9048 14.3423 43.0314 14.1963 43.198 14.113C43.3646 14.0297 43.5574 14.016 43.734 14.0749C43.9107 14.1338 44.0567 14.2604 44.14 14.427L44.841 15.831C44.8945 15.9379 44.9197 16.0567 44.9145 16.176C44.9092 16.2954 44.8735 16.4115 44.8108 16.5133C44.7481 16.615 44.6605 16.6991 44.5562 16.7575C44.452 16.8159 44.3345 16.8467 44.215 16.847Z" fill="#BB9D60"/>
<path d="M43.511 15.436C43.3914 15.4359 43.2738 15.4052 43.1694 15.3468C43.065 15.2885 42.9773 15.2044 42.9145 15.1027C42.8517 15.0009 42.8159 14.8848 42.8106 14.7653C42.8052 14.6458 42.8305 14.527 42.884 14.42L43.586 13.017C43.6726 12.8563 43.8183 12.7357 43.9923 12.6807C44.1663 12.6257 44.3549 12.6406 44.5181 12.7222C44.6813 12.8039 44.8063 12.9459 44.8666 13.1182C44.9269 13.2904 44.9177 13.4794 44.841 13.645L44.14 15.049C44.0814 15.1655 43.9915 15.2634 43.8804 15.3318C43.7693 15.4001 43.6414 15.4362 43.511 15.436Z" fill="#BB9D60"/>
<path d="M44.215 14.037C44.0844 14.0372 43.9564 14.001 43.8453 13.9325C43.7342 13.8639 43.6444 13.7658 43.586 13.649L42.884 12.245C42.8007 12.0785 42.787 11.8856 42.8459 11.709C42.9048 11.5323 43.0314 11.3863 43.198 11.303C43.3646 11.2197 43.5574 11.206 43.734 11.2649C43.9107 11.3238 44.0567 11.4505 44.14 11.617L44.841 13.021C44.8945 13.1279 44.9197 13.2467 44.9145 13.3661C44.9092 13.4854 44.8735 13.6015 44.8108 13.7033C44.7481 13.805 44.6605 13.8891 44.5562 13.9475C44.452 14.0059 44.3345 14.0367 44.215 14.037Z" fill="#BB9D60"/>
<path d="M43.511 12.636C43.3914 12.6359 43.2738 12.6052 43.1694 12.5468C43.065 12.4885 42.9773 12.4045 42.9145 12.3027C42.8517 12.2009 42.8159 12.0848 42.8106 11.9653C42.8052 11.8458 42.8305 11.727 42.884 11.62L43.586 10.217C43.6726 10.0564 43.8183 9.93572 43.9923 9.8807C44.1663 9.82567 44.3549 9.84057 44.5181 9.92223C44.6813 10.0039 44.8063 10.1459 44.8666 10.3182C44.9269 10.4904 44.9177 10.6794 44.841 10.845L44.14 12.249C44.0814 12.3655 43.9915 12.4634 43.8804 12.5318C43.7693 12.6001 43.6414 12.6362 43.511 12.636Z" fill="#BB9D60"/>
<path d="M44.215 11.227C44.0844 11.2272 43.9564 11.191 43.8453 11.1225C43.7342 11.0539 43.6444 10.9558 43.586 10.839L42.884 9.43599C42.8007 9.26943 42.787 9.07661 42.8459 8.89996C42.9048 8.7233 43.0314 8.57727 43.198 8.49399C43.3646 8.41071 43.5574 8.39701 43.734 8.45589C43.9107 8.51478 44.0567 8.64143 44.14 8.80799L44.841 10.211C44.8945 10.3179 44.9197 10.4366 44.9145 10.556C44.9092 10.6754 44.8735 10.7915 44.8108 10.8932C44.7481 10.995 44.6605 11.079 44.5562 11.1374C44.452 11.1958 44.3345 11.2267 44.215 11.227Z" fill="#BB9D60"/>
<path d="M43.511 9.82702C43.3914 9.82688 43.2738 9.79618 43.1694 9.73784C43.065 9.67951 42.9773 9.59547 42.9145 9.49369C42.8517 9.39192 42.8159 9.27579 42.8106 9.15631C42.8052 9.03684 42.8305 8.91798 42.884 8.81102L43.586 7.40802C43.6758 7.25317 43.8212 7.13838 43.9927 7.08707C44.1642 7.03575 44.3487 7.05178 44.5088 7.13187C44.6689 7.21197 44.7924 7.35011 44.8541 7.51811C44.9158 7.68612 44.9111 7.87135 44.841 8.03602L44.14 9.43902C44.0815 9.55571 43.9917 9.65382 43.8806 9.72235C43.7695 9.79087 43.6415 9.82712 43.511 9.82702Z" fill="#BB9D60"/>
<path d="M44.215 8.41701C44.0844 8.41722 43.9564 8.38103 43.8453 8.31249C43.7342 8.24395 43.6444 8.14578 43.586 8.02901L42.884 6.62501C42.8007 6.45846 42.787 6.26564 42.8459 6.08898C42.9048 5.91232 43.0314 5.76629 43.198 5.68301C43.3646 5.59973 43.5574 5.58603 43.734 5.64492C43.9107 5.7038 44.0567 5.83046 44.14 5.99701L44.841 7.40101C44.8945 7.5079 44.9197 7.62666 44.9145 7.74606C44.9092 7.86545 44.8735 7.98151 44.8108 8.08326C44.7481 8.18501 44.6605 8.26906 44.5562 8.32747C44.452 8.38588 44.3345 8.4167 44.215 8.41701Z" fill="#BB9D60"/>
<path d="M43.511 7.01602C43.3914 7.01587 43.2738 6.98518 43.1694 6.92684C43.065 6.86851 42.9773 6.78446 42.9145 6.68269C42.8517 6.58092 42.8159 6.46479 42.8106 6.34531C42.8052 6.22584 42.8305 6.10698 42.884 6.00002L43.586 4.59702C43.6726 4.43636 43.8183 4.31573 43.9923 4.2607C44.1663 4.20567 44.3549 4.22057 44.5181 4.30224C44.6813 4.38391 44.8063 4.52593 44.8666 4.69819C44.9269 4.87045 44.9177 5.05941 44.841 5.22502L44.14 6.63002C44.0814 6.74653 43.9915 6.84442 43.8804 6.91277C43.7693 6.98111 43.6414 7.01721 43.511 7.01702V7.01602Z" fill="#BB9D60"/>
<path d="M44.215 5.61703C44.0844 5.61724 43.9564 5.58104 43.8453 5.5125C43.7342 5.44396 43.6444 5.34579 43.586 5.22903L42.884 3.82502C42.8007 3.65847 42.787 3.46565 42.8459 3.28899C42.9048 3.11233 43.0314 2.9663 43.198 2.88302C43.3646 2.79975 43.5574 2.78604 43.734 2.84493C43.9107 2.90382 44.0567 3.03047 44.14 3.19702L44.841 4.60102C44.8945 4.70791 44.9197 4.82668 44.9145 4.94607C44.9092 5.06546 44.8735 5.18153 44.8108 5.28327C44.7481 5.38502 44.6605 5.46908 44.5562 5.52748C44.452 5.58589 44.3345 5.61671 44.215 5.61703Z" fill="#BB9D60"/>
<path d="M43.511 4.20602C43.3914 4.20588 43.2738 4.17518 43.1694 4.11684C43.065 4.05851 42.9773 3.97447 42.9145 3.87269C42.8517 3.77092 42.8159 3.65479 42.8106 3.53532C42.8052 3.41584 42.8305 3.29699 42.884 3.19002L43.586 1.78702C43.6726 1.62636 43.8183 1.50573 43.9923 1.4507C44.1663 1.39567 44.3549 1.41057 44.5181 1.49224C44.6813 1.57391 44.8063 1.71593 44.8666 1.88819C44.9269 2.06045 44.9177 2.24942 44.841 2.41502L44.14 3.82002C44.0814 3.93653 43.9915 4.03443 43.8804 4.10277C43.7693 4.17112 43.6414 4.20721 43.511 4.20702V4.20602Z" fill="#BB9D60"/>
<path d="M44.215 2.80703C44.0843 2.80715 43.9562 2.7708 43.8451 2.70208C43.734 2.63335 43.6443 2.53498 43.586 2.41803L42.884 1.01503C42.8428 0.932557 42.8182 0.842772 42.8116 0.7508C42.8051 0.658827 42.8167 0.566468 42.8459 0.478995C42.8751 0.391522 42.9212 0.310649 42.9816 0.240993C43.042 0.171337 43.1155 0.114262 43.198 0.0730268C43.2805 0.0317917 43.3703 0.00720409 43.4622 0.000667813C43.5542 -0.00586847 43.6466 0.00577457 43.734 0.0349322C43.9107 0.0938186 44.0567 0.220471 44.14 0.387027L44.841 1.79003C44.8947 1.89695 44.9202 2.01582 44.915 2.13536C44.9098 2.25489 44.8742 2.37112 44.8115 2.47301C44.7487 2.5749 44.661 2.65907 44.5566 2.71753C44.4522 2.77599 44.3346 2.8068 44.215 2.80703ZM43.511 23.864H7.721C7.53482 23.864 7.35626 23.7901 7.22461 23.6584C7.09296 23.5268 7.019 23.3482 7.019 23.162C7.019 22.9758 7.09296 22.7973 7.22461 22.6656C7.35626 22.534 7.53482 22.46 7.721 22.46H43.511C43.6032 22.46 43.6945 22.4782 43.7796 22.5135C43.8648 22.5487 43.9422 22.6005 44.0074 22.6656C44.0726 22.7308 44.1243 22.8082 44.1596 22.8934C44.1948 22.9786 44.213 23.0698 44.213 23.162C44.213 23.2542 44.1948 23.3455 44.1596 23.4307C44.1243 23.5158 44.0726 23.5932 44.0074 23.6584C43.9422 23.7236 43.8648 23.7753 43.7796 23.8106C43.6945 23.8459 43.6032 23.864 43.511 23.864ZM0.702 22.461C0.609859 22.4612 0.518597 22.4431 0.433432 22.408C0.348267 22.3728 0.270871 22.3212 0.205672 22.2561C0.140472 22.191 0.088747 22.1136 0.053456 22.0285C0.0181649 21.9434 -9.37529e-08 21.8522 0 21.76C0 17.504 3.463 14.041 7.72 14.041C7.90618 14.041 8.08474 14.115 8.21639 14.2466C8.34804 14.3783 8.422 14.5568 8.422 14.743C8.422 14.9292 8.34804 15.1078 8.21639 15.2394C8.08474 15.3711 7.90618 15.445 7.72 15.445C6.04563 15.4469 4.44036 16.1128 3.25631 17.2966C2.07226 18.4805 1.40612 20.0857 1.404 21.76C1.40413 21.8523 1.38606 21.9436 1.35083 22.0288C1.3156 22.1141 1.2639 22.1915 1.19868 22.2567C1.13347 22.3219 1.05603 22.3736 0.970799 22.4089C0.885569 22.4441 0.794225 22.4622 0.702 22.462V22.461Z" fill="#BB9D60"/>
<path d="M43.511 15.444H7.721C7.53482 15.444 7.35626 15.37 7.22461 15.2384C7.09296 15.1067 7.019 14.9282 7.019 14.742C7.019 14.5558 7.09296 14.3772 7.22461 14.2456C7.35626 14.1139 7.53482 14.04 7.721 14.04H43.511C43.6972 14.04 43.8757 14.1139 44.0074 14.2456C44.139 14.3772 44.213 14.5558 44.213 14.742C44.213 14.9282 44.139 15.1067 44.0074 15.2384C43.8757 15.37 43.6972 15.444 43.511 15.444ZM0.702 14.031C0.609775 14.0311 0.51843 14.0131 0.4332 13.9778C0.34797 13.9426 0.27053 13.8909 0.205317 13.8257C0.140104 13.7605 0.0884003 13.683 0.0531682 13.5978C0.017936 13.5126 -0.000131895 13.4212 -2.39323e-07 13.329C-2.39323e-07 9.07299 3.463 5.60999 7.72 5.60999C7.90618 5.60999 8.08474 5.68395 8.21639 5.8156C8.34804 5.94725 8.422 6.1258 8.422 6.31199C8.422 6.49817 8.34804 6.67672 8.21639 6.80837C8.08474 6.94002 7.90618 7.01399 7.72 7.01399C6.04563 7.01584 4.44036 7.68173 3.25631 8.86559C2.07226 10.0495 1.40612 11.6546 1.404 13.329C1.40413 13.4212 1.38606 13.5126 1.35083 13.5978C1.3156 13.683 1.2639 13.7605 1.19868 13.8257C1.13347 13.8909 1.05603 13.9426 0.970799 13.9778C0.885569 14.0131 0.794225 14.0311 0.702 14.031Z" fill="#BB9D60"/>
<path d="M43.511 7.01299H7.721C7.53495 7.01299 7.35652 6.93908 7.22497 6.80752C7.09341 6.67596 7.0195 6.49753 7.0195 6.31149C7.0195 6.12544 7.09341 5.94701 7.22497 5.81545C7.35652 5.68389 7.53495 5.60999 7.721 5.60999H43.511C43.6971 5.60999 43.8755 5.68389 44.007 5.81545C44.1386 5.94701 44.2125 6.12544 44.2125 6.31149C44.2125 6.49753 44.1386 6.67596 44.007 6.80752C43.8755 6.93908 43.6971 7.01299 43.511 7.01299Z" fill="#BB9D60"/>
<path d="M38.592 29.474C38.4998 29.4741 38.4084 29.4561 38.3232 29.4208C38.238 29.3856 38.1605 29.3339 38.0953 29.2687C38.0301 29.2035 37.9784 29.126 37.9432 29.0408C37.9079 28.9556 37.8899 28.8642 37.89 28.772V0.701988C37.89 0.515939 37.9639 0.33751 38.0955 0.205953C38.227 0.0743961 38.4054 0.000488323 38.5915 0.000488323C38.7775 0.000488323 38.956 0.0743961 39.0875 0.205953C39.2191 0.33751 39.293 0.515939 39.293 0.701988V28.772C39.2931 28.8641 39.2751 28.9554 39.2399 29.0406C39.2048 29.1257 39.1531 29.2031 39.088 29.2683C39.0229 29.3335 38.9456 29.3852 38.8605 29.4205C38.7754 29.4558 38.6841 29.474 38.592 29.474ZM30.172 29.474C30.0798 29.4741 29.9884 29.4561 29.9032 29.4208C29.818 29.3856 29.7405 29.3339 29.6753 29.2687C29.6101 29.2035 29.5584 29.126 29.5232 29.0408C29.4879 28.9556 29.4699 28.8642 29.47 28.772V0.701988C29.47 0.515939 29.5439 0.33751 29.6755 0.205953C29.807 0.0743961 29.9855 0.000488323 30.1715 0.000488323C30.3575 0.000488323 30.536 0.0743961 30.6675 0.205953C30.7991 0.33751 30.873 0.515939 30.873 0.701988V28.772C30.8731 28.8641 30.8551 28.9554 30.8199 29.0406C30.7848 29.1257 30.7331 29.2031 30.668 29.2683C30.6029 29.3335 30.5256 29.3852 30.4405 29.4205C30.3554 29.4558 30.2641 29.474 30.172 29.474ZM21.752 29.474C21.6598 29.4741 21.5684 29.4561 21.4832 29.4208C21.398 29.3856 21.3205 29.3339 21.2553 29.2687C21.1901 29.2035 21.1384 29.126 21.1032 29.0408C21.0679 28.9556 21.0499 28.8642 21.05 28.772V0.701988C21.05 0.609866 21.0681 0.518646 21.1034 0.433536C21.1387 0.348426 21.1903 0.271093 21.2555 0.205953C21.3206 0.140813 21.3979 0.0891405 21.483 0.0538868C21.5682 0.0186331 21.6594 0.000488281 21.7515 0.000488281C21.8436 0.000488281 21.9348 0.0186331 22.02 0.0538868C22.1051 0.0891405 22.1824 0.140813 22.2475 0.205953C22.3127 0.271093 22.3643 0.348426 22.3996 0.433536C22.4349 0.518646 22.453 0.609866 22.453 0.701988V28.772C22.4531 28.8641 22.4351 28.9554 22.3999 29.0406C22.3648 29.1257 22.3131 29.2031 22.248 29.2683C22.1829 29.3335 22.1056 29.3852 22.0205 29.4205C21.9354 29.4558 21.8441 29.474 21.752 29.474ZM13.332 29.474C13.2398 29.4741 13.1484 29.4561 13.0632 29.4208C12.978 29.3856 12.9005 29.3339 12.8353 29.2687C12.7701 29.2035 12.7184 29.126 12.6832 29.0408C12.6479 28.9556 12.6299 28.8642 12.63 28.772V0.701988C12.63 0.515939 12.7039 0.33751 12.8355 0.205953C12.967 0.0743961 13.1455 0.000488323 13.3315 0.000488323C13.5175 0.000488323 13.696 0.0743961 13.8275 0.205953C13.9591 0.33751 14.033 0.515939 14.033 0.701988V28.772C14.0331 28.8641 14.0151 28.9554 13.9799 29.0406C13.9448 29.1257 13.8931 29.2031 13.828 29.2683C13.7629 29.3335 13.6856 29.3852 13.6005 29.4205C13.5154 29.4558 13.4241 29.474 13.332 29.474ZM4.912 30.064C4.81977 30.0641 4.72843 30.0461 4.6432 30.0108C4.55797 29.9756 4.48053 29.9239 4.41532 29.8587C4.3501 29.7935 4.2984 29.716 4.26317 29.6308C4.22794 29.5456 4.20987 29.4542 4.21 29.362V1.29199C4.21 1.10581 4.28396 0.92725 4.41561 0.795599C4.54726 0.663949 4.72582 0.589988 4.912 0.589988C5.09818 0.589988 5.27674 0.663949 5.40839 0.795599C5.54004 0.92725 5.614 1.10581 5.614 1.29199V29.362C5.61413 29.4542 5.59606 29.5456 5.56083 29.6308C5.5256 29.716 5.4739 29.7935 5.40868 29.8587C5.34347 29.9239 5.26603 29.9756 5.1808 30.0108C5.09557 30.0461 5.00422 30.0641 4.912 30.064Z" fill="#BB9D60"/>
</g>
<defs>
<clipPath id="clip0_1_83">
<rect width="45" height="44" fill="white"/>
</clipPath>
</defs>
</svg>
