<svg width="27" height="37" fill="none" xmlns="http://www.w3.org/2000/svg"><g clip-path="url(#clip0_1_321)" fill="#BB9D60"><path d="M22.658 15.518a.714.714 0 00-.193.595l.516 3.665-3.628.64a.714.714 0 00-.507.369l-1.725 3.265-.012-.004-3.296-1.618a.742.742 0 00-.63 0l-3.295 1.618-.011.004-1.725-3.265a.715.715 0 00-.508-.37l-3.628-.639.516-3.665a.714.714 0 00-.192-.595l-2.564-2.66 2.564-2.662a.714.714 0 00.192-.595l-.516-3.665 3.628-.639a.714.714 0 00.508-.37l1.725-3.266 3.307 1.623a.715.715 0 00.63 0l3.306-1.623 1.726 3.266c.103.195.29.332.507.37l3.628.64-.516 3.664c-.03.218.04.437.193.595l2.563 2.661-2.563 2.661zm1.336 15.838l-3.052-.465a.715.715 0 00-.773.446l-1.123 2.876-4.723-8.179.793-1.373 1.234.606.96 1.66c.458.791 1.702.088 1.237-.716 0 0-.491-.871-.488-.877l1.175-2.224 4.76 8.246zM7.952 34.213l-1.124-2.876a.714.714 0 00-.773-.446l-3.052.465 4.76-8.246 1.185 2.24-.498.861c-.46.795.78 1.505 1.237.716l.96-1.66 2.852-1.4.332.163-5.879 10.183zm18.775-21.851l-2.799-2.906.564-4.004a.714.714 0 00-.583-.803l-3.963-.698-1.887-3.57a.714.714 0 00-.946-.308l-3.614 1.774L9.884.073a.714.714 0 00-.946.308L7.052 3.95l-3.963.698a.714.714 0 00-.584.803l.564 4.004-2.8 2.906a.715.715 0 000 .99l2.8 2.907-.564 4.003a.714.714 0 00.584.804l3.818.672-5.884 10.19c-.288.5.136 1.154.726 1.064l3.957-.603 1.456 3.728a.714.714 0 001.284.097l5.053-8.751 5.052 8.751a.715.715 0 001.284-.097l1.457-3.728 3.956.603c.571.087 1.016-.562.726-1.063l-5.883-10.191 3.818-.673a.714.714 0 00.583-.803l-.564-4.004 2.8-2.905a.714.714 0 000-.991l-.001.001z"/><path d="M20.286 12.146a.713.713 0 00-.715.714 6.078 6.078 0 01-6.071 6.071 6.078 6.078 0 01-6.071-6.071 6.078 6.078 0 018.337-5.635A.715.715 0 0016.3 5.9a7.46 7.46 0 00-2.8-.54c-4.136 0-7.5 3.364-7.5 7.5 0 4.135 3.364 7.5 7.5 7.5s7.5-3.365 7.5-7.5a.714.714 0 00-.714-.714z"/><path d="M11.58 11.5a.714.714 0 10-1.01 1.01l2.535 2.536c.262.262.747.263 1.01 0l5.507-5.507a.715.715 0 00-1.01-1.01l-5.002 5.002-2.03-2.031zm8.489 17.574a.714.714 0 11-1.429 0 .714.714 0 011.429 0zm-11.71 0a.714.714 0 11-1.429 0 .714.714 0 011.429 0z"/></g><defs><clipPath id="clip0_1_321"><path fill="#fff" d="M0 0h27v37H0z"/></clipPath></defs></svg>