<svg width="43" height="43" fill="none" xmlns="http://www.w3.org/2000/svg"><g clip-path="url(#clip0_1_80)" fill="#BB9D60"><path d="M2.576 38.895a6.504 6.504 0 005.283 2.718 6.502 6.502 0 005.908-3.805 16.533 16.533 0 001.491-6.885c0-1.753.58-3.49 1.631-4.894l.228-.302-1.947-1.947-11.565 7.71a4.97 4.97 0 00-2.218 4.143c0 1.044.32 2.046.927 2.895l.262.367zm24.472-8.377l-4.083-6.244H20.4l-1.844 1.844-.106.141 8.598 10.093v-5.834zm1.397 11.085h13.168V22.188h-2.08v-1.386h2.08V1.387H28.445v4.96l1.534-1.8a3.061 3.061 0 014.503-.181l1.09 1.09-7.127 10.902v1.383l3.06 3.06h2.485v1.387h-2.485l-3.06 3.061v16.354zm-4.502-18.37l3.105 4.752V24.68l3.182-3.18-3.115-3.116-3.172 4.849zm-5.91 1.448l1.793-1.794h2.686L33.788 5.64l-.293-.293c-.665-.666-1.857-.62-2.47.1L16.201 22.849l1.832 1.832zm-2.775-9.136c0-2.393-.502-4.709-1.492-6.885a6.502 6.502 0 00-5.907-3.805 6.502 6.502 0 00-5.282 2.718l-.261.366a4.942 4.942 0 00-.929 2.896 4.97 4.97 0 002.218 4.144L14.738 22.4l.055-.036 1.892-2.222a8.206 8.206 0 01-1.427-4.597zM2.835 30.335l10.653-7.101-10.652-7.101A6.354 6.354 0 010 10.835c0-1.336.41-2.616 1.186-3.702l.261-.366a7.893 7.893 0 016.412-3.3 7.892 7.892 0 017.17 4.619 17.9 17.9 0 011.616 7.459 6.811 6.811 0 00.979 3.496l9.424-11.064V0H43v43H27.048v-4.509l-9.425-11.064a6.817 6.817 0 00-.978 3.496c0 2.592-.544 5.1-1.616 7.46A7.892 7.892 0 017.86 43a7.892 7.892 0 01-6.41-3.298l-.262-.368a6.33 6.33 0 01-1.186-3.7 6.353 6.353 0 012.834-5.3l-.001.001z"/><path d="M4.836 37.28a3.722 3.722 0 003.023 1.555 3.722 3.722 0 003.382-2.18 13.754 13.754 0 001.242-5.734c0-.729.073-1.452.218-2.163l-7.555 5.037a2.2 2.2 0 00-.573 3.115l.263.37zm8.695-10.744a.694.694 0 011.03.835 9.51 9.51 0 00-.689 3.55c0 2.192-.46 4.316-1.367 6.31a5.114 5.114 0 01-4.646 2.992 5.111 5.111 0 01-4.153-2.136l-.264-.37a3.578 3.578 0 01-.667-2.087 3.586 3.586 0 011.601-2.99l9.155-6.104zm-2.29-16.73a3.723 3.723 0 00-3.382-2.179 3.72 3.72 0 00-3.023 1.557l-.263.366a2.203 2.203 0 00.573 3.118l7.555 5.039a10.824 10.824 0 01-.217-2.164c0-1.994-.418-3.924-1.243-5.737zm2.29 10.12l-9.155-6.104a3.584 3.584 0 01-1.6-2.99c0-.752.23-1.474.667-2.088l.263-.367A5.112 5.112 0 017.86 6.24a5.112 5.112 0 014.645 2.992 15.137 15.137 0 011.368 6.31 9.52 9.52 0 00.688 3.55.691.691 0 01-.644.95.694.694 0 01-.385-.116h-.001zm8.659.184h-1.387v1.387h1.387V20.11zm15.96.7h-2.774v1.387h2.774V20.81z"/></g><defs><clipPath id="clip0_1_80"><path fill="#fff" d="M0 0h43v43H0z"/></clipPath></defs></svg>