<svg width="10" height="6" viewBox="0 0 10 6" fill="none" xmlns="http://www.w3.org/2000/svg">
<g clip-path="url(#clip0_1_14)">
<path d="M4.505 5.78398L0.205 1.25798C0.0731285 1.11655 -0.000202179 0.930363 -0.000202179 0.736985C-0.000202179 0.543607 0.0731285 0.357423 0.205 0.215985C0.268266 0.147962 0.344872 0.0937087 0.430039 0.0566107C0.515205 0.0195127 0.607104 0.000366211 0.7 0.000366211C0.792896 0.000366211 0.884795 0.0195127 0.969961 0.0566107C1.05513 0.0937087 1.13173 0.147962 1.195 0.215985L5 4.21998L8.805 0.215985C8.86827 0.147962 8.94487 0.0937087 9.03004 0.0566107C9.11521 0.0195127 9.2071 0.000366211 9.3 0.000366211C9.3929 0.000366211 9.48479 0.0195127 9.56996 0.0566107C9.65513 0.0937087 9.73173 0.147962 9.795 0.215985C9.92665 0.357534 9.99984 0.543676 9.99984 0.736985C9.99984 0.930294 9.92665 1.11644 9.795 1.25798L5.495 5.78398C5.43162 5.85189 5.355 5.90609 5.26986 5.94323C5.18473 5.98038 5.09289 5.9997 5 5.99998C4.90711 5.9997 4.81527 5.98038 4.73014 5.94323C4.645 5.90609 4.56838 5.85189 4.505 5.78398V5.78398Z" fill="white"/>
</g>
<defs>
<clipPath id="clip0_1_14">
<rect width="10" height="6" fill="white"/>
</clipPath>
</defs>
</svg>
