<svg width="16" height="17" viewBox="0 0 16 17" fill="none" xmlns="http://www.w3.org/2000/svg">
<g clip-path="url(#clip0_1_334)">
<path d="M6.737 1.684C8.07656 1.68559 9.36078 2.2185 10.3079 3.1658C11.255 4.11311 11.7877 5.39744 11.789 6.737C11.7874 8.07639 11.2546 9.36046 10.3075 10.3075C9.36046 11.2546 8.07639 11.7874 6.737 11.789C5.39744 11.7877 4.11311 11.255 3.1658 10.3079C2.2185 9.36078 1.68559 8.07656 1.684 6.737C1.68532 5.39727 2.21812 4.11279 3.16545 3.16545C4.11279 2.21812 5.39727 1.68532 6.737 1.684ZM15.757 15.34L11.812 11.172C12.829 9.94223 13.3843 8.39579 13.382 6.8C13.382 3.05 10.381 0 6.692 0C3.001 0 0 3.05 0 6.8C0 10.55 3.002 13.6 6.691 13.6C8.06648 13.6029 9.40794 13.1726 10.525 12.37L14.499 16.57C14.5775 16.6542 14.672 16.7218 14.7771 16.7688C14.8822 16.8157 14.9956 16.8412 15.1107 16.8435C15.2258 16.8458 15.3402 16.825 15.4471 16.7823C15.5539 16.7397 15.6512 16.676 15.733 16.595C15.9001 16.4304 15.9962 16.2069 16.0007 15.9724C16.0052 15.7379 15.9177 15.5109 15.757 15.34Z" fill="grey"/>
</g>
<defs>
<clipPath id="clip0_1_334">
<rect width="16" height="17" fill="grey"/>
</clipPath>
</defs>
</svg>
