<svg width="13" height="10" viewBox="0 0 13 10" fill="none" xmlns="http://www.w3.org/2000/svg">
<g clip-path="url(#clip0_1_120)">
<path d="M4.198 5.25099L10.052 2.07099C10.157 2.01399 10.265 2.13999 10.175 2.21399L5.344 6.17399C5.17853 6.30611 5.06805 6.495 5.034 6.70399L4.869 7.77899C4.847 7.92299 4.618 7.93699 4.573 7.79799L3.94 5.83599C3.868 5.61299 3.973 5.37399 4.198 5.25099ZM0.23 4.79499L3.225 5.78299L4.385 9.07699C4.459 9.28799 4.751 9.36599 4.945 9.22599L6.615 8.02299C6.70353 7.96118 6.8083 7.9268 6.91624 7.92414C7.02418 7.92147 7.13052 7.95063 7.222 8.00799L10.233 9.93999C10.44 10.073 10.734 9.97299 10.786 9.75199L12.992 0.375988C13.049 0.133988 12.78 -0.068012 12.52 0.020988L0.226 4.21099C-0.0770003 4.31499 -0.0740003 4.69399 0.23 4.79499Z" fill="#8b008b"/>
</g>
<defs>
<clipPath id="clip0_1_120">
<rect width="13" height="10" fill="white"/>
</clipPath>
</defs>
</svg>
