<svg width="48" height="49" fill="none" xmlns="http://www.w3.org/2000/svg"><g clip-path="url(#clip0_1_200)" fill="#BB9D60"><path d="M24.8 46.251v-27.2l21.6-8.192v27.17l-21.6 8.222zM1.6 10.86l7.2 2.732v13.093a.8.8 0 00.514.747l5.6 2.144A.8.8 0 0016 28.828V16.321l7.2 2.731v27.195L1.6 37.951V10.86zm10.074 2.11L21.35 9.3l3.714 1.408-9.68 3.667-3.71-1.405zM10.4 14.197l4 1.52v11.949l-4-1.532V14.197zM23.995 1.755l20.94 7.94-20.94 7.94-6.36-2.412 9.954-3.769a.8.8 0 000-1.495l-5.966-2.263a.8.8 0 00-.567 0l-11.64 4.411-6.36-2.412 20.939-7.94zm23.488 7.197l-23.2-8.8a.794.794 0 00-.566 0l-23.2 8.8A.8.8 0 000 9.7v28.8a.8.8 0 00.514.747l23.2 8.912a.8.8 0 00.57 0l23.2-8.832A.8.8 0 0048 38.58V9.7a.8.8 0 00-.517-.748z"/><path d="M32.518 38.518l-4.812 1.83a.8.8 0 10.57 1.496l4.81-1.831a.802.802 0 00.317-1.31.8.8 0 00-.885-.185zm4.789-1.83l-1.61.612a.8.8 0 00.568 1.496l1.61-.613a.8.8 0 10-.568-1.495zm-4.789-1.37l-4.812 1.83a.8.8 0 00.57 1.496l4.81-1.831a.8.8 0 10-.568-1.495zm4.789-1.83l-1.61.612a.8.8 0 00.568 1.496l1.61-.613a.802.802 0 00.317-1.31.8.8 0 00-.885-.185zm-4.789-1.37l-4.812 1.83a.8.8 0 10.57 1.496l4.81-1.831a.8.8 0 10-.568-1.495zm4.789-1.83l-1.61.612a.8.8 0 00.568 1.496l1.61-.613a.8.8 0 10-.568-1.495z"/></g><defs><clipPath id="clip0_1_200"><path fill="#fff" d="M0 0h48v49H0z"/></clipPath></defs></svg>