<svg width="25" height="24" viewBox="0 0 25 24" fill="none" xmlns="http://www.w3.org/2000/svg">
<mask id="path-1-outside-1_134_7" maskUnits="userSpaceOnUse" x="0" y="0" width="25" height="24" fill="black">
<rect fill="white" width="25" height="24"/>
<path fill-rule="evenodd" clip-rule="evenodd" d="M1.28435 1.07026C1.14503 1.13772 1 1.35906 1 1.50411C1 1.64535 1.12474 1.8659 1.25255 1.95068C1.3705 2.02896 1.4894 2.03895 2.552 2.05976C3.65864 2.08145 3.73201 2.08812 3.91465 2.18329C4.1645 2.31344 4.43171 2.58572 4.54157 2.82204C4.58939 2.92498 5.38545 5.25194 6.31058 7.99309L7.99263 12.977L7.91174 13.1842C7.57687 14.0424 7.59172 13.979 7.59401 14.5402C7.5959 15.0061 7.61061 15.1067 7.71547 15.3699C8.03433 16.1704 8.65589 16.7188 9.47796 16.9249C9.87244 17.0238 20.4148 17.0269 20.6092 16.9282C21.0286 16.7152 20.9501 16.1038 20.4871 15.9776C20.3783 15.9479 18.5073 15.9322 15.0519 15.9321C9.07772 15.9318 9.49267 15.9565 9.09617 15.5772C8.75977 15.2555 8.67497 15.0568 8.67227 14.5844C8.67033 14.2433 8.68824 14.1446 8.79787 13.8906C8.92203 13.6031 8.9312 13.5938 9.11277 13.5694C9.21565 13.5556 11.7392 13.2965 14.7206 12.9937C18.129 12.6475 20.2832 12.4103 20.5237 12.3545C21.419 12.1471 22.0919 11.6217 22.4883 10.8206C22.6539 10.486 22.7322 10.1901 23.5862 6.67096C24.0927 4.58381 24.089 4.61999 23.8179 4.42449C23.6386 4.29514 23.2108 4.28383 14.6081 4.18071C10.3772 4.12999 6.73034 4.07755 6.50392 4.06416L6.09226 4.03982L5.8578 3.32569C5.53723 2.34949 5.40938 2.10288 5.02728 1.72355C4.68188 1.38067 4.23913 1.1371 3.79814 1.04746C3.66327 1.02003 3.09673 0.999437 2.49356 1.00001C1.61765 1.00081 1.40186 1.01335 1.28435 1.07026ZM15.7777 5.24646C19.6375 5.29913 22.8025 5.34768 22.811 5.3544C22.8196 5.36107 22.5589 6.44653 22.2317 7.76645C21.8202 9.42705 21.5978 10.2428 21.51 10.4146C21.2669 10.89 20.7115 11.2919 20.2012 11.3616C20.0858 11.3773 17.5082 11.6426 14.4734 11.951C9.6005 12.4461 8.9514 12.5037 8.91978 12.4435C8.88631 12.3798 7.81539 9.20137 6.86646 6.34938L6.44904 5.09484L7.60454 5.12276C8.24005 5.13813 11.918 5.1938 15.7777 5.24646ZM8.04022 18.3017C6.84356 18.4799 5.94601 19.488 5.94907 20.6502C5.95245 21.9341 7.05531 23.0034 8.37249 23C8.99108 22.9984 9.57274 22.7515 10.0404 22.292C10.7776 21.5677 10.9523 20.5487 10.4971 19.6268C10.118 18.8589 9.35911 18.354 8.50546 18.3018C8.32381 18.2907 8.11445 18.2906 8.04022 18.3017ZM18.1288 18.3167C17.1805 18.4838 16.4213 19.1577 16.1805 20.0464C16.0961 20.3577 16.0977 20.9285 16.184 21.2537C16.3273 21.7941 16.699 22.2932 17.202 22.6208C18.1264 23.2228 19.3852 23.0911 20.1813 22.3093C20.6614 21.8378 20.884 21.3078 20.883 20.6388C20.8818 19.8229 20.5028 19.1364 19.7987 18.6746C19.3417 18.3749 18.6455 18.2257 18.1288 18.3167ZM8.81451 19.4279C9.52393 19.6844 9.88535 20.5563 9.54867 21.1989C9.30562 21.6629 8.93827 21.9004 8.41617 21.931C8.11949 21.9484 8.03932 21.9362 7.83135 21.8423C7.48861 21.6876 7.32302 21.534 7.16562 21.2246C6.84995 20.6042 7.0774 19.8807 7.70823 19.4989C8.00824 19.3173 8.43335 19.29 8.81451 19.4279ZM18.8851 19.3985C20.0315 19.7328 20.1578 21.2667 19.0842 21.8149C18.7876 21.9663 18.2073 21.9636 17.8997 21.8093C17.2434 21.48 16.9944 20.725 17.3247 20.066C17.6172 19.4826 18.248 19.2127 18.8851 19.3985Z"/>
</mask>
<path fill-rule="evenodd" clip-rule="evenodd" d="M1.28435 1.07026C1.14503 1.13772 1 1.35906 1 1.50411C1 1.64535 1.12474 1.8659 1.25255 1.95068C1.3705 2.02896 1.4894 2.03895 2.552 2.05976C3.65864 2.08145 3.73201 2.08812 3.91465 2.18329C4.1645 2.31344 4.43171 2.58572 4.54157 2.82204C4.58939 2.92498 5.38545 5.25194 6.31058 7.99309L7.99263 12.977L7.91174 13.1842C7.57687 14.0424 7.59172 13.979 7.59401 14.5402C7.5959 15.0061 7.61061 15.1067 7.71547 15.3699C8.03433 16.1704 8.65589 16.7188 9.47796 16.9249C9.87244 17.0238 20.4148 17.0269 20.6092 16.9282C21.0286 16.7152 20.9501 16.1038 20.4871 15.9776C20.3783 15.9479 18.5073 15.9322 15.0519 15.9321C9.07772 15.9318 9.49267 15.9565 9.09617 15.5772C8.75977 15.2555 8.67497 15.0568 8.67227 14.5844C8.67033 14.2433 8.68824 14.1446 8.79787 13.8906C8.92203 13.6031 8.9312 13.5938 9.11277 13.5694C9.21565 13.5556 11.7392 13.2965 14.7206 12.9937C18.129 12.6475 20.2832 12.4103 20.5237 12.3545C21.419 12.1471 22.0919 11.6217 22.4883 10.8206C22.6539 10.486 22.7322 10.1901 23.5862 6.67096C24.0927 4.58381 24.089 4.61999 23.8179 4.42449C23.6386 4.29514 23.2108 4.28383 14.6081 4.18071C10.3772 4.12999 6.73034 4.07755 6.50392 4.06416L6.09226 4.03982L5.8578 3.32569C5.53723 2.34949 5.40938 2.10288 5.02728 1.72355C4.68188 1.38067 4.23913 1.1371 3.79814 1.04746C3.66327 1.02003 3.09673 0.999437 2.49356 1.00001C1.61765 1.00081 1.40186 1.01335 1.28435 1.07026ZM15.7777 5.24646C19.6375 5.29913 22.8025 5.34768 22.811 5.3544C22.8196 5.36107 22.5589 6.44653 22.2317 7.76645C21.8202 9.42705 21.5978 10.2428 21.51 10.4146C21.2669 10.89 20.7115 11.2919 20.2012 11.3616C20.0858 11.3773 17.5082 11.6426 14.4734 11.951C9.6005 12.4461 8.9514 12.5037 8.91978 12.4435C8.88631 12.3798 7.81539 9.20137 6.86646 6.34938L6.44904 5.09484L7.60454 5.12276C8.24005 5.13813 11.918 5.1938 15.7777 5.24646ZM8.04022 18.3017C6.84356 18.4799 5.94601 19.488 5.94907 20.6502C5.95245 21.9341 7.05531 23.0034 8.37249 23C8.99108 22.9984 9.57274 22.7515 10.0404 22.292C10.7776 21.5677 10.9523 20.5487 10.4971 19.6268C10.118 18.8589 9.35911 18.354 8.50546 18.3018C8.32381 18.2907 8.11445 18.2906 8.04022 18.3017ZM18.1288 18.3167C17.1805 18.4838 16.4213 19.1577 16.1805 20.0464C16.0961 20.3577 16.0977 20.9285 16.184 21.2537C16.3273 21.7941 16.699 22.2932 17.202 22.6208C18.1264 23.2228 19.3852 23.0911 20.1813 22.3093C20.6614 21.8378 20.884 21.3078 20.883 20.6388C20.8818 19.8229 20.5028 19.1364 19.7987 18.6746C19.3417 18.3749 18.6455 18.2257 18.1288 18.3167ZM8.81451 19.4279C9.52393 19.6844 9.88535 20.5563 9.54867 21.1989C9.30562 21.6629 8.93827 21.9004 8.41617 21.931C8.11949 21.9484 8.03932 21.9362 7.83135 21.8423C7.48861 21.6876 7.32302 21.534 7.16562 21.2246C6.84995 20.6042 7.0774 19.8807 7.70823 19.4989C8.00824 19.3173 8.43335 19.29 8.81451 19.4279ZM18.8851 19.3985C20.0315 19.7328 20.1578 21.2667 19.0842 21.8149C18.7876 21.9663 18.2073 21.9636 17.8997 21.8093C17.2434 21.48 16.9944 20.725 17.3247 20.066C17.6172 19.4826 18.248 19.2127 18.8851 19.3985Z" fill="#7A7A7A"/>
<path d="M1.28435 1.07026L1.37152 1.25026L1.37152 1.25026L1.28435 1.07026ZM1.25255 1.95068L1.36315 1.78404L1.36311 1.78401L1.25255 1.95068ZM2.552 2.05976L2.55592 1.8598L2.55591 1.8598L2.552 2.05976ZM3.91465 2.18329L3.82224 2.36065L3.82225 2.36066L3.91465 2.18329ZM4.54157 2.82204L4.72295 2.73778L4.72293 2.73773L4.54157 2.82204ZM6.31058 7.99309L6.50008 7.92914L6.50008 7.92914L6.31058 7.99309ZM7.99263 12.977L8.17894 13.0498L8.20539 12.982L8.18213 12.9131L7.99263 12.977ZM7.91174 13.1842L7.72544 13.1115L7.72543 13.1115L7.91174 13.1842ZM7.59401 14.5402L7.79401 14.5394L7.79401 14.5394L7.59401 14.5402ZM7.71547 15.3699L7.90128 15.2959L7.90127 15.2959L7.71547 15.3699ZM9.47796 16.9249L9.5266 16.7309L9.52659 16.7309L9.47796 16.9249ZM20.6092 16.9282L20.5186 16.7498L20.5186 16.7498L20.6092 16.9282ZM20.4871 15.9776L20.5397 15.7846L20.5397 15.7846L20.4871 15.9776ZM15.0519 15.9321L15.0519 16.1321L15.0519 16.1321L15.0519 15.9321ZM9.09617 15.5772L9.23442 15.4327L9.23441 15.4327L9.09617 15.5772ZM8.67227 14.5844L8.47227 14.5855L8.47227 14.5855L8.67227 14.5844ZM8.79787 13.8906L8.61426 13.8113L8.61424 13.8113L8.79787 13.8906ZM9.11277 13.5694L9.08621 13.3711L9.08614 13.3711L9.11277 13.5694ZM14.7206 12.9937L14.7004 12.7947L14.7004 12.7947L14.7206 12.9937ZM20.5237 12.3545L20.5688 12.5494L20.5688 12.5494L20.5237 12.3545ZM22.4883 10.8206L22.309 10.7319L22.309 10.7319L22.4883 10.8206ZM23.5862 6.67096L23.3918 6.62379L23.3918 6.6238L23.5862 6.67096ZM23.8179 4.42449L23.7009 4.58669L23.7009 4.5867L23.8179 4.42449ZM14.6081 4.18071L14.6057 4.38069L14.6057 4.38069L14.6081 4.18071ZM6.50392 4.06416L6.49212 4.26381L6.49212 4.26381L6.50392 4.06416ZM6.09226 4.03982L5.90224 4.10221L5.94467 4.23144L6.08046 4.23947L6.09226 4.03982ZM5.8578 3.32569L6.04782 3.26331L6.04782 3.2633L5.8578 3.32569ZM5.02728 1.72355L5.16818 1.58161L5.16818 1.58161L5.02728 1.72355ZM3.79814 1.04746L3.75827 1.24345L3.7583 1.24345L3.79814 1.04746ZM2.49356 1.00001L2.49374 1.20001L2.49375 1.20001L2.49356 1.00001ZM22.811 5.3544L22.6875 5.51166L22.688 5.51206L22.811 5.3544ZM22.2317 7.76645L22.4259 7.81456L22.4259 7.81456L22.2317 7.76645ZM21.51 10.4146L21.6881 10.5057L21.6881 10.5057L21.51 10.4146ZM20.2012 11.3616L20.1742 11.1634L20.1742 11.1634L20.2012 11.3616ZM14.4734 11.951L14.4532 11.752L14.4532 11.752L14.4734 11.951ZM8.91978 12.4435L8.74272 12.5365L8.74274 12.5366L8.91978 12.4435ZM6.86646 6.34938L7.05623 6.28623L7.05623 6.28623L6.86646 6.34938ZM6.44904 5.09484L6.45387 4.8949L6.16945 4.88802L6.25927 5.15798L6.44904 5.09484ZM7.60454 5.12276L7.60938 4.92282L7.60937 4.92282L7.60454 5.12276ZM8.04022 18.3017L8.06968 18.4995L8.06977 18.4995L8.04022 18.3017ZM5.94907 20.6502L6.14907 20.6497L6.14907 20.6497L5.94907 20.6502ZM8.37249 23L8.37197 22.8L8.37197 22.8L8.37249 23ZM10.0404 22.292L10.1806 22.4347L10.1806 22.4347L10.0404 22.292ZM10.4971 19.6268L10.6764 19.5382L10.6764 19.5382L10.4971 19.6268ZM8.50546 18.3018L8.49323 18.5014L8.49325 18.5014L8.50546 18.3018ZM18.1288 18.3167L18.0941 18.1198L18.0941 18.1198L18.1288 18.3167ZM16.1805 20.0464L16.3735 20.0987L16.3735 20.0987L16.1805 20.0464ZM16.184 21.2537L15.9907 21.305L15.9907 21.305L16.184 21.2537ZM17.202 22.6208L17.0929 22.7884L17.0929 22.7884L17.202 22.6208ZM20.1813 22.3093L20.3215 22.452L20.1813 22.3093ZM20.883 20.6388L21.083 20.6385L21.083 20.6385L20.883 20.6388ZM19.7987 18.6746L19.9084 18.5074L19.9084 18.5074L19.7987 18.6746ZM8.81451 19.4279L8.88253 19.2398L8.88253 19.2398L8.81451 19.4279ZM9.54867 21.1989L9.37152 21.1061L9.37151 21.1061L9.54867 21.1989ZM8.41617 21.931L8.40446 21.7313L8.40445 21.7313L8.41617 21.931ZM7.83135 21.8423L7.91364 21.6601L7.91364 21.6601L7.83135 21.8423ZM7.16562 21.2246L6.98736 21.3153L6.98736 21.3153L7.16562 21.2246ZM7.70823 19.4989L7.60467 19.3278L7.60466 19.3278L7.70823 19.4989ZM18.8851 19.3985L18.8291 19.5905L18.8291 19.5905L18.8851 19.3985ZM19.0842 21.8149L18.9932 21.6367L18.9932 21.6367L19.0842 21.8149ZM17.8997 21.8093L17.81 21.988L17.81 21.988L17.8997 21.8093ZM17.3247 20.066L17.5035 20.1557L17.5035 20.1557L17.3247 20.066ZM1.19719 0.890252C1.08278 0.945649 0.987154 1.05004 0.922654 1.14846C0.859107 1.24543 0.8 1.37596 0.8 1.50411H1.2C1.2 1.48721 1.21341 1.43455 1.25721 1.36772C1.30006 1.30234 1.3466 1.26233 1.37152 1.25026L1.19719 0.890252ZM0.8 1.50411C0.8 1.62361 0.848971 1.74926 0.90426 1.84702C0.960444 1.94636 1.0427 2.05148 1.14199 2.11734L1.36311 1.78401C1.33459 1.7651 1.29058 1.71755 1.25244 1.65011C1.2134 1.58109 1.2 1.52584 1.2 1.50411H0.8ZM1.14195 2.11731C1.24195 2.18369 1.3405 2.21005 1.5313 2.22607C1.71655 2.24162 2.01966 2.24937 2.54808 2.25972L2.55591 1.8598C2.02174 1.84934 1.73409 1.84169 1.56476 1.82747C1.40098 1.81372 1.38109 1.79595 1.36315 1.78404L1.14195 2.11731ZM2.54808 2.25972C3.10516 2.27064 3.39116 2.27769 3.56177 2.29315C3.64511 2.30071 3.69211 2.30962 3.725 2.31909C3.75604 2.32802 3.78121 2.33928 3.82224 2.36065L4.00707 2.00592C3.95677 1.97971 3.90428 1.95445 3.83562 1.93469C3.7688 1.91546 3.69405 1.90351 3.59788 1.89479C3.40948 1.87771 3.10548 1.87057 2.55592 1.8598L2.54808 2.25972ZM3.82225 2.36066C4.03636 2.4722 4.27047 2.71331 4.36021 2.90635L4.72293 2.73773C4.59296 2.45813 4.29264 2.15468 4.00705 2.00591L3.82225 2.36066ZM4.36019 2.9063C4.35915 2.90407 4.36217 2.91104 4.37168 2.93663C4.37993 2.95883 4.39106 2.98953 4.40501 3.02862C4.43289 3.10668 4.47131 3.21612 4.51916 3.35367C4.6148 3.62866 4.74758 4.01447 4.90785 4.48297C5.22837 5.4199 5.65858 6.68666 6.12108 8.05705L6.50008 7.92914C6.03745 6.55838 5.60706 5.29108 5.28632 4.3535C5.12596 3.88475 4.99293 3.4982 4.89695 3.22227C4.84899 3.08436 4.81014 2.97371 4.78172 2.8941C4.75555 2.82083 4.7339 2.76134 4.72295 2.73778L4.36019 2.9063ZM6.12108 8.05705L7.80313 13.041L8.18213 12.9131L6.50008 7.92914L6.12108 8.05705ZM7.80632 12.9043L7.72544 13.1115L8.09805 13.257L8.17894 13.0498L7.80632 12.9043ZM7.72543 13.1115C7.56163 13.5313 7.47376 13.7485 7.43172 13.9279C7.38722 14.1178 7.39291 14.2701 7.39401 14.541L7.79401 14.5394C7.79282 14.249 7.78994 14.1524 7.82117 14.0192C7.85484 13.8755 7.92699 13.6953 8.09806 13.257L7.72543 13.1115ZM7.39401 14.541C7.39495 14.7724 7.39887 14.9277 7.41824 15.06C7.43853 15.1986 7.47481 15.3062 7.52967 15.4439L7.90127 15.2959C7.85127 15.1703 7.82777 15.096 7.81402 15.0021C7.79935 14.9018 7.79496 14.7738 7.79401 14.5394L7.39401 14.541ZM7.52967 15.4439C7.87184 16.303 8.54368 16.8969 9.42932 17.1189L9.52659 16.7309C8.76811 16.5408 8.19682 16.0379 7.90128 15.2959L7.52967 15.4439ZM9.42931 17.1189C9.47686 17.1308 9.56361 17.137 9.65487 17.142C9.75637 17.1476 9.89194 17.1527 10.0558 17.1574C10.3838 17.1668 10.8301 17.1747 11.3539 17.181C12.4018 17.1937 13.7635 17.2003 15.1186 17.2007C16.4736 17.2011 17.8228 17.1953 18.8458 17.1832C19.3571 17.1772 19.7878 17.1696 20.0972 17.1603C20.2517 17.1557 20.3776 17.1507 20.4687 17.1451C20.514 17.1423 20.553 17.1393 20.5836 17.1359C20.5988 17.1342 20.6145 17.1321 20.6292 17.1293C20.6369 17.1279 20.6683 17.1224 20.6998 17.1065L20.5186 16.7498C20.544 16.737 20.5643 16.7345 20.5559 16.7361C20.5546 16.7363 20.5495 16.7372 20.5389 16.7384C20.5182 16.7407 20.487 16.7432 20.4443 16.7458C20.3594 16.751 20.2385 16.7559 20.0853 16.7605C19.7795 16.7696 19.3516 16.7772 18.8411 16.7832C17.8203 16.7953 16.4728 16.8011 15.1187 16.8007C13.7645 16.8003 12.4045 16.7937 11.3587 16.7811C10.8357 16.7747 10.392 16.7669 10.0673 16.7576C9.90474 16.7529 9.77317 16.7479 9.6768 16.7427C9.62851 16.74 9.59044 16.7373 9.56239 16.7348C9.53009 16.7318 9.52213 16.7298 9.5266 16.7309L9.42931 17.1189ZM20.6998 17.1065C21.2994 16.802 21.1606 15.9539 20.5397 15.7846L20.4344 16.1705C20.7396 16.2537 20.7578 16.6284 20.5186 16.7498L20.6998 17.1065ZM20.5397 15.7846C20.5125 15.7772 20.4807 15.7744 20.463 15.7729C20.439 15.7709 20.4088 15.769 20.3736 15.7673C20.3028 15.764 20.2054 15.7609 20.0825 15.758C19.8363 15.7524 19.4831 15.7476 19.0262 15.7438C18.112 15.7361 16.7798 15.7322 15.0519 15.7321L15.0519 16.1321C16.7794 16.1322 18.1104 16.1361 19.0228 16.1438C19.4792 16.1476 19.83 16.1523 20.0733 16.1579C20.195 16.1607 20.2886 16.1637 20.3545 16.1669C20.3876 16.1685 20.4121 16.17 20.4291 16.1715C20.4524 16.1734 20.448 16.1742 20.4345 16.1705L20.5397 15.7846ZM15.0519 15.7321C12.0592 15.732 10.6791 15.738 9.9943 15.6972C9.64768 15.6765 9.51028 15.6447 9.43794 15.6112C9.36785 15.5787 9.36046 15.5533 9.23442 15.4327L8.95791 15.7217C9.03012 15.7908 9.11956 15.9045 9.26987 15.9741C9.41794 16.0427 9.62452 16.0758 9.97051 16.0964C10.6709 16.1382 12.0704 16.132 15.0519 16.1321L15.0519 15.7321ZM9.23441 15.4327C9.07362 15.2789 8.99095 15.171 8.94302 15.0588C8.89494 14.9462 8.87356 14.8098 8.87226 14.5832L8.47227 14.5855C8.47368 14.8314 8.49604 15.0306 8.57514 15.2158C8.65438 15.4014 8.78231 15.5538 8.95792 15.7217L9.23441 15.4327ZM8.87226 14.5832C8.8713 14.4136 8.87567 14.3198 8.89003 14.2405C8.90388 14.164 8.9286 14.0924 8.98149 13.9699L8.61424 13.8113C8.55751 13.9428 8.51846 14.0475 8.49643 14.1692C8.47492 14.288 8.4713 14.4141 8.47227 14.5855L8.87226 14.5832ZM8.98147 13.9699C9.01312 13.8966 9.03445 13.8482 9.05226 13.8131C9.07042 13.7773 9.07787 13.77 9.07661 13.7713C9.0615 13.7867 9.03649 13.7814 9.13939 13.7676L9.08614 13.3711C9.00748 13.3817 8.8871 13.3933 8.79097 13.4913C8.7492 13.5339 8.71973 13.5844 8.69557 13.632C8.67107 13.6803 8.6447 13.7408 8.61426 13.8113L8.98147 13.9699ZM9.13932 13.7676C9.23799 13.7544 11.7557 13.4959 14.7408 13.1927L14.7004 12.7947C11.7226 13.0972 9.1933 13.3568 9.08621 13.3711L9.13932 13.7676ZM14.7408 13.1927C16.4452 13.0196 17.8365 12.8737 18.832 12.764C19.3297 12.7092 19.7289 12.6634 20.0192 12.6277C20.303 12.5929 20.4958 12.5663 20.5688 12.5494L20.4785 12.1597C20.4313 12.1706 20.2647 12.1946 19.9704 12.2307C19.6826 12.2661 19.2852 12.3117 18.7882 12.3664C17.7943 12.4759 16.4043 12.6217 14.7004 12.7947L14.7408 13.1927ZM20.5688 12.5494C21.5206 12.3288 22.2438 11.7658 22.6675 10.9093L22.309 10.7319C21.9401 11.4776 21.3175 11.9653 20.4785 12.1597L20.5688 12.5494ZM22.6675 10.9093C22.7595 10.7234 22.8246 10.55 22.9724 9.99111C23.1201 9.43292 23.3538 8.47666 23.7805 6.71813L23.3918 6.6238C22.9645 8.38438 22.7321 9.33562 22.5857 9.8888C22.4396 10.4413 22.3827 10.5831 22.309 10.7319L22.6675 10.9093ZM23.7805 6.71813C24.0313 5.68497 24.1623 5.15272 24.1926 4.85888C24.2079 4.71049 24.2033 4.58097 24.1434 4.46962C24.0862 4.36342 23.9886 4.30104 23.9349 4.26229L23.7009 4.5867C23.7827 4.6457 23.7873 4.65211 23.7912 4.65933C23.7923 4.6614 23.8079 4.68994 23.7947 4.81783C23.768 5.07656 23.6476 5.5698 23.3918 6.62379L23.7805 6.71813ZM23.9349 4.2623C23.8452 4.19753 23.7396 4.16892 23.5338 4.14741C23.3252 4.12563 22.9788 4.10876 22.3771 4.09283C21.1705 4.0609 18.9109 4.03227 14.6105 3.98072L14.6057 4.38069C18.9079 4.43226 21.1636 4.46085 22.3665 4.49269C22.9695 4.50865 23.3013 4.5253 23.4922 4.54525C23.5878 4.55523 23.6397 4.56526 23.6692 4.57359C23.6934 4.58042 23.6983 4.58482 23.7009 4.58669L23.9349 4.2623ZM14.6105 3.98072C10.3746 3.92994 6.73591 3.87753 6.51573 3.86451L6.49212 4.26381C6.72477 4.27757 10.3799 4.33004 14.6057 4.38069L14.6105 3.98072ZM6.51573 3.86451L6.10407 3.84017L6.08046 4.23947L6.49212 4.26381L6.51573 3.86451ZM6.28228 3.97743L6.04782 3.26331L5.66778 3.38808L5.90224 4.10221L6.28228 3.97743ZM6.04782 3.2633C5.8878 2.776 5.77132 2.45595 5.64318 2.20875C5.51115 1.95406 5.36918 1.78115 5.16818 1.58161L4.88637 1.86548C5.06748 2.04527 5.18049 2.18534 5.28806 2.39284C5.3995 2.60783 5.50723 2.89918 5.66778 3.38809L6.04782 3.2633ZM5.16818 1.58161C4.79746 1.21359 4.32035 0.949523 3.83798 0.851469L3.7583 1.24345C4.15791 1.32468 4.5663 1.54775 4.88637 1.86549L5.16818 1.58161ZM3.83801 0.851475C3.75095 0.833765 3.55712 0.821669 3.32873 0.813365C3.09199 0.804756 2.79704 0.799723 2.49337 0.800012L2.49375 1.20001C2.79324 1.19973 3.08316 1.2047 3.3142 1.2131C3.55359 1.22181 3.71046 1.23372 3.75827 1.24345L3.83801 0.851475ZM2.49338 0.800012C2.05646 0.800408 1.77776 0.803693 1.59295 0.814431C1.41249 0.824916 1.29436 0.843195 1.19718 0.890255L1.37152 1.25026C1.39185 1.24042 1.44036 1.22397 1.61615 1.21376C1.7876 1.2038 2.05475 1.20041 2.49374 1.20001L2.49338 0.800012ZM15.775 5.44645C17.7048 5.47278 19.4609 5.49808 20.7355 5.51764C21.3728 5.52742 21.8897 5.53576 22.2477 5.54207C22.4268 5.54523 22.5658 5.54788 22.6603 5.54994C22.7076 5.55098 22.7433 5.55185 22.767 5.55257C22.7791 5.55293 22.7872 5.55322 22.7919 5.55344C22.7946 5.55356 22.7946 5.55359 22.7933 5.55349C22.793 5.55347 22.7896 5.55322 22.7849 5.55262C22.783 5.55237 22.7769 5.55159 22.7692 5.54996C22.7651 5.54903 22.7546 5.54626 22.7483 5.5443C22.7376 5.54043 22.7066 5.52495 22.6875 5.51166L22.9346 5.19713C22.9154 5.18381 22.8843 5.16831 22.8735 5.16441C22.8672 5.16242 22.8566 5.15963 22.8523 5.15868C22.8443 5.15699 22.838 5.15615 22.8356 5.15584C22.8299 5.15512 22.8252 5.15476 22.8233 5.15461C22.8187 5.15426 22.8139 5.15402 22.8102 5.15385C22.8022 5.15349 22.7916 5.15312 22.779 5.15275C22.7536 5.15198 22.7166 5.15108 22.669 5.15004C22.5737 5.14796 22.4339 5.1453 22.2548 5.14214C21.8963 5.13581 21.3791 5.12747 20.7416 5.11768C19.4667 5.09812 17.7104 5.07282 15.7804 5.04648L15.775 5.44645ZM22.688 5.51206C22.6511 5.48328 22.6342 5.44942 22.6272 5.43312C22.6195 5.41503 22.6161 5.39965 22.6145 5.39121C22.6114 5.3744 22.6112 5.3611 22.6112 5.35641C22.6112 5.34554 22.6121 5.33748 22.6122 5.33623C22.6127 5.33199 22.6131 5.33024 22.6125 5.33343C22.6116 5.33862 22.6097 5.34858 22.6063 5.36448C22.5997 5.39559 22.5893 5.4423 22.5752 5.50367C22.5471 5.62605 22.5052 5.80286 22.4528 6.02125C22.3479 6.45784 22.2011 7.05869 22.0376 7.71834L22.4259 7.81456C22.5895 7.15428 22.7366 6.55245 22.8417 6.11466C22.8943 5.89586 22.9365 5.71756 22.965 5.59329C22.9793 5.53133 22.9904 5.48183 22.9977 5.44715C23.0013 5.43016 23.0044 5.41482 23.0065 5.40273C23.0074 5.39729 23.0089 5.3889 23.0098 5.38008C23.0102 5.37654 23.0113 5.36671 23.0112 5.35458C23.0112 5.34927 23.011 5.33546 23.0078 5.31829C23.0062 5.30967 23.0028 5.29413 22.995 5.27593C22.988 5.25951 22.971 5.22557 22.9341 5.19673L22.688 5.51206ZM22.0376 7.71834C21.8319 8.54827 21.6739 9.16555 21.5565 9.59625C21.4978 9.81172 21.4496 9.97899 21.4111 10.1022C21.371 10.2301 21.3451 10.2978 21.3319 10.3236L21.6881 10.5057C21.7188 10.4455 21.7536 10.3468 21.7928 10.2216C21.8335 10.0916 21.8831 9.91896 21.9424 9.70143C22.0611 9.26614 22.22 8.64523 22.4259 7.81456L22.0376 7.71834ZM21.3319 10.3236C21.1173 10.7433 20.6168 11.103 20.1742 11.1634L20.2283 11.5597C20.8061 11.4809 21.4165 11.0368 21.6881 10.5057L21.3319 10.3236ZM20.1742 11.1634C20.0632 11.1785 17.4919 11.4432 14.4532 11.752L14.4936 12.1499C17.5245 11.842 20.1083 11.5761 20.2283 11.5597L20.1742 11.1634ZM14.4532 11.752C12.0162 11.9996 10.6372 12.1377 9.86344 12.2063C9.47553 12.2407 9.24424 12.2572 9.10902 12.2617C9.03998 12.264 9.00453 12.2627 8.98875 12.2611C8.98014 12.2602 8.98733 12.2601 9.00152 12.2652C9.01145 12.2687 9.06421 12.2884 9.09682 12.3505L8.74274 12.5366C8.7793 12.6061 8.84084 12.6324 8.86613 12.6415C8.89568 12.6522 8.92481 12.6565 8.9465 12.6588C8.99131 12.6636 9.04982 12.6639 9.12222 12.6615C9.26988 12.6566 9.51135 12.6391 9.89878 12.6047C10.6757 12.5358 12.0577 12.3975 14.4936 12.1499L14.4532 11.752ZM9.09683 12.3505C9.10258 12.3615 9.10506 12.3692 9.10053 12.3573C9.09811 12.351 9.09456 12.3413 9.08976 12.328C9.08022 12.3016 9.06682 12.2636 9.04973 12.2146C9.0156 12.1166 8.96748 11.9765 8.90755 11.8009C8.78774 11.4498 8.62118 10.9576 8.42595 10.3782C8.0355 9.21937 7.53062 7.712 7.05623 6.28623L6.67669 6.41252C7.15123 7.83875 7.65627 9.3466 8.04688 10.5059C8.24218 11.0856 8.40893 11.5782 8.52898 11.9301C8.58899 12.106 8.63744 12.247 8.67199 12.3461C8.68924 12.3957 8.70321 12.4353 8.7135 12.4638C8.71861 12.478 8.72309 12.4902 8.72675 12.4997C8.72829 12.5038 8.73488 12.5216 8.74272 12.5365L9.09683 12.3505ZM7.05623 6.28623L6.63881 5.0317L6.25927 5.15798L6.67669 6.41252L7.05623 6.28623ZM6.44421 5.29478L7.59971 5.3227L7.60937 4.92282L6.45387 4.8949L6.44421 5.29478ZM7.5997 5.3227C8.23656 5.33811 11.9159 5.39379 15.775 5.44645L15.7804 5.04648C11.92 4.99381 8.24354 4.93816 7.60938 4.92282L7.5997 5.3227ZM8.01077 18.1039C6.722 18.2958 5.74574 19.3832 5.74907 20.6508L6.14907 20.6497C6.14629 19.5928 6.96513 18.664 8.06968 18.4995L8.01077 18.1039ZM5.74907 20.6508C5.75275 22.0498 6.95024 23.2037 8.373 23.2L8.37197 22.8C7.16038 22.8031 6.15214 21.8183 6.14907 20.6497L5.74907 20.6508ZM8.373 23.2C9.04721 23.1983 9.67811 22.9283 10.1806 22.4347L9.90024 22.1493C9.46738 22.5746 8.93495 22.7985 8.37197 22.8L8.373 23.2ZM10.1806 22.4347C10.979 21.6503 11.1701 20.5381 10.6764 19.5382L10.3178 19.7153C10.7344 20.5592 10.5763 21.4851 9.90024 22.1493L10.1806 22.4347ZM10.6764 19.5382C10.2656 18.7061 9.44304 18.1588 8.51767 18.1022L8.49325 18.5014C9.27518 18.5493 9.97034 19.0116 10.3178 19.7153L10.6764 19.5382ZM8.5177 18.1022C8.33623 18.0911 8.10791 18.0894 8.01067 18.1039L8.06977 18.4995C8.12099 18.4919 8.31139 18.4903 8.49323 18.5014L8.5177 18.1022ZM18.0941 18.1198C17.0739 18.2995 16.2497 19.0263 15.9874 19.9941L16.3735 20.0987C16.5929 19.2892 17.287 18.6681 18.1635 18.5137L18.0941 18.1198ZM15.9874 19.9941C15.9387 20.1739 15.9176 20.4143 15.9182 20.6454C15.9189 20.8771 15.9415 21.1197 15.9907 21.305L16.3773 21.2024C16.3402 21.0625 16.3189 20.8572 16.3182 20.6443C16.3176 20.4309 16.3379 20.2302 16.3735 20.0987L15.9874 19.9941ZM15.9907 21.305C16.1477 21.8969 16.5517 22.4359 17.0929 22.7884L17.3112 22.4533C16.8463 22.1504 16.5069 21.6913 16.3773 21.2024L15.9907 21.305ZM17.0929 22.7884C18.0972 23.4425 19.4596 23.2985 20.3215 22.452L20.0412 22.1666C19.3109 22.8838 18.1555 23.0031 17.3112 22.4532L17.0929 22.7884ZM20.3215 22.452C20.8397 21.943 21.0841 21.3616 21.083 20.6385L20.683 20.6391C20.6839 21.254 20.4832 21.7325 20.0412 22.1666L20.3215 22.452ZM21.083 20.6385C21.0817 19.7527 20.6666 19.0046 19.9084 18.5074L19.6891 18.8419C20.339 19.2682 20.6819 19.893 20.683 20.6391L21.083 20.6385ZM19.9084 18.5074C19.4108 18.181 18.6632 18.0195 18.0941 18.1198L18.1635 18.5137C18.6278 18.4319 19.2727 18.5688 19.6891 18.8419L19.9084 18.5074ZM8.7465 19.6159C9.35055 19.8344 9.64777 20.5788 9.37152 21.1061L9.72583 21.2917C10.1229 20.5338 9.69731 19.5344 8.88253 19.2398L8.7465 19.6159ZM9.37151 21.1061C9.26301 21.3132 9.13207 21.4602 8.97849 21.5595C8.82492 21.6587 8.63737 21.7177 8.40446 21.7313L8.42787 22.1306C8.71706 22.1137 8.97424 22.0385 9.19564 21.8954C9.41702 21.7523 9.59128 21.5486 9.72584 21.2917L9.37151 21.1061ZM8.40445 21.7313C8.25621 21.74 8.18075 21.7398 8.12046 21.7306C8.06457 21.7222 8.01234 21.7046 7.91364 21.6601L7.74907 22.0246C7.85834 22.074 7.95017 22.1094 8.06053 22.1261C8.16648 22.1422 8.27944 22.1393 8.42788 22.1306L8.40445 21.7313ZM7.91364 21.6601C7.75352 21.5878 7.64744 21.5213 7.56502 21.4449C7.48336 21.3691 7.41551 21.2747 7.34387 21.1339L6.98736 21.3153C7.07313 21.4839 7.16677 21.621 7.29295 21.7381C7.41835 21.8544 7.56645 21.9422 7.74907 22.0246L7.91364 21.6601ZM7.34387 21.1339C7.08005 20.6154 7.26214 20.0027 7.8118 19.67L7.60466 19.3278C6.89266 19.7588 6.61985 20.593 6.98736 21.3153L7.34387 21.1339ZM7.81179 19.67C8.0517 19.5248 8.41222 19.4951 8.7465 19.6159L8.88253 19.2398C8.45448 19.085 7.96478 19.1098 7.60467 19.3278L7.81179 19.67ZM18.8291 19.5905C19.7934 19.8717 19.9133 21.1669 18.9932 21.6367L19.1751 21.993C20.4022 21.3664 20.2695 19.5939 18.9411 19.2065L18.8291 19.5905ZM18.9932 21.6367C18.8845 21.6922 18.7012 21.7277 18.497 21.7267C18.2935 21.7258 18.1055 21.6888 17.9894 21.6305L17.81 21.988C18.0014 22.0841 18.2574 22.1256 18.4951 22.1267C18.7321 22.1278 18.9872 22.0889 19.1751 21.993L18.9932 21.6367ZM17.9894 21.6305C17.4325 21.3511 17.2223 20.7165 17.5035 20.1557L17.1459 19.9764C16.7664 20.7334 17.0544 21.6089 17.81 21.988L17.9894 21.6305ZM17.5035 20.1557C17.7516 19.6607 18.2824 19.4311 18.8291 19.5905L18.9411 19.2065C18.2136 18.9943 17.4827 19.3044 17.1459 19.9764L17.5035 20.1557Z" fill="#7A7A7A" mask="url(#path-1-outside-1_134_7)"/>
</svg>
