<svg width="16" height="17" fill="none" xmlns="http://www.w3.org/2000/svg"><g clip-path="url(#clip0_1_334)"><path d="M6.737 1.684a5.058 5.058 0 015.052 5.053 5.058 5.058 0 01-5.052 5.052 5.058 5.058 0 01-5.053-5.052 5.058 5.058 0 015.053-5.053zm9.02 13.656l-3.945-4.168a6.845 6.845 0 001.57-4.372c0-3.75-3.001-6.8-6.69-6.8C3.001 0 0 3.05 0 6.8s3.002 6.8 6.691 6.8a6.547 6.547 0 003.834-1.23l3.974 4.2a.86.86 0 001.234.025.898.898 0 00.024-1.255z" fill="gray"/></g><defs><clipPath id="clip0_1_334"><path fill="gray" d="M0 0h16v17H0z"/></clipPath></defs></svg>