<svg width="53" height="42" fill="none" xmlns="http://www.w3.org/2000/svg"><g clip-path="url(#clip0_1_73)" fill="#BB9D60"><path d="M39.763 23.761l-.004.001-1.172.362 5.838-5.828 4.841 2.533-9.503 2.932zm-28.315-5.164l-4.2 4.2-3.433-1.8 7.633-2.4zm-7.617-7.51l28.79-8.89 16.645 8.719-9.503 2.935-.003.001-6.101 1.884a34.58 34.58 0 01-2.281.618l-2.168-.634a10.33 10.33 0 01-6.198-4.98 1.035 1.035 0 00-1.72-.14 9.917 9.917 0 01-7.86 3.83h-3.04a34.201 34.201 0 01-2.135-1.024l-4.426-2.319zm19.348 8.211a35.153 35.153 0 007.965-.765l-7.966 7.973a1.037 1.037 0 00-.198.279l-2.799 2.801-4.777-2.506 7.775-7.782zm-2.776-.155l-6.92 6.934-4.318-2.268 5.645-5.656c1.825.477 3.693.808 5.593.99zm1.56-6.18a12.335 12.335 0 005.002 4.13c-3.756.367-7.529.09-11.183-.816 2.346-.46 4.5-1.614 6.182-3.314h-.001zm20.555 4.328l-8.155 8.15-10.309 3.185L35.275 17.41l4.7-1.452 2.543 1.333zm10.474 3.885a1.034 1.034 0 00-.549-1.01l-9.676-5.072 9.502-2.937a1.032 1.032 0 00.174-1.902L33.203.168a1.033 1.033 0 00-.786-.072L.828 9.859a1.034 1.034 0 00-.174 1.902l6.643 3.483a35.76 35.76 0 003.207 1.484l-9.68 3.044a1.033 1.033 0 00-.17 1.9l9.677 5.073-9.503 2.937a1.034 1.034 0 00-.174 1.902l19.241 10.087c.242.127.524.153.785.072l11.781-3.641a1.032 1.032 0 10-.61-1.974l-11.374 3.515L3.83 30.917l9.095-2.811 6.97 3.653c.242.127.523.152.784.072l14.518-4.487.01-.003 4.759-1.47 9.3 4.875-9.51 2.938a1.033 1.033 0 00.61 1.974L52.27 31.98a1.032 1.032 0 00.174-1.902l-9.677-5.073 9.503-2.937c.4-.123.685-.475.723-.892h-.001z"/><path d="M36.103 34.86a1.038 1.038 0 00-1.033 1.033 1.034 1.034 0 001.764.731 1.04 1.04 0 00.302-.73c0-.272-.11-.539-.302-.731a1.04 1.04 0 00-.73-.303h-.001z"/></g><defs><clipPath id="clip0_1_73"><path fill="#fff" d="M0 0h53v42H0z"/></clipPath></defs></svg>