<svg width="40" height="50" fill="none" xmlns="http://www.w3.org/2000/svg"><g clip-path="url(#clip0_1_61)" fill="#BB9D60"><path d="M22.818 25.785a.99.99 0 00.988-.987.99.99 0 00-1.686-.698.994.994 0 00-.29.698.992.992 0 00.988.988z"/><path d="M34.07 42.753a.988.988 0 00-1.965 0H1.975V18.957h3.753v16.884c0 .545.443.988.988.988h3.16a.987.987 0 100-1.975H7.704V13.132h6.32v11.663c0 .545.443.988.988.988h4.148a.988.988 0 000-1.975H16V6.825h16.1v.382a.989.989 0 101.975 0v-.382h3.852v16.983H33.49a.987.987 0 00.585-.901v-.988a.988.988 0 10-1.975 0v.988c0 .401.24.747.586.9h-6.119a.988.988 0 000 1.976h11.36v9.07H17.68a.988.988 0 000 1.976h14.818a.984.984 0 00-.397.79v.987a.987.987 0 101.975 0v-.988a.985.985 0 00-.396-.79h4.248v5.925H34.07zM15.013 4.85a.987.987 0 00-.987.988v5.32h-7.31a.988.988 0 00-.988.988v4.84H.988a.988.988 0 00-.988.987V43.75c0 .546.442.988.988.988H32.66a.98.98 0 00.856 0h5.399a.988.988 0 00.988-.988V5.838a.988.988 0 00-.988-.988H15.013z"/><path d="M13.828 34.86a.995.995 0 00-.698.29.995.995 0 00-.29.698.994.994 0 00.988.988.994.994 0 00.988-.988.995.995 0 00-.29-.698.995.995 0 00-.698-.29zm19.26-31.897a.988.988 0 00.987-.988V.988a.988.988 0 00-1.975 0v.987c0 .546.442.988.988.988zm0 26.17a.988.988 0 00.987-.988v-.987a.988.988 0 00-1.975 0v.987c0 .546.442.988.988.988zm0 17.977a.988.988 0 00-.988.988v.987a.988.988 0 001.975 0v-.987a.988.988 0 00-.987-.988zm0-28.447a.988.988 0 00.987-.988v-.987a.989.989 0 10-1.975 0v.987c0 .546.442.988.988.988zm0 15.71a.988.988 0 00.987-.988v-.987a.988.988 0 00-1.975 0v.987c0 .546.442.988.988.988zm0-20.94a.986.986 0 00.987-.988v-.987a.987.987 0 10-1.975 0v.987c0 .546.442.988.988.988z"/></g><defs><clipPath id="clip0_1_61"><path fill="#fff" d="M0 0h40v50H0z"/></clipPath></defs></svg>