<svg xmlns="http://www.w3.org/2000/svg" height="1242.667" width="5093.333"><path d="M3270.363 739.98c10.783-4.147 21.565-10.576 32.348-19.284 10.76-8.71 21.131-18.868 31.093-30.48-14.11 4.149-27.378 7.878-39.801 11.195-12.447 3.319-23.64 7.05-33.601 11.197-11.604 4.979-20.517 9.745-26.74 14.31-6.223 4.56-10.577 8.5-13.062 11.816-.843.83-1.254 1.66-1.254 2.49v1.244c0 1.658 1.254 2.902 3.739 3.73 9.118 4.978 24.87 2.904 47.278-6.219zm415.5-638.203c5.814-16.586 9.142-31.1 9.962-43.542.821-12.438-1.253-21.978-6.223-28.612-6.633-9.122-17.006-13.686-31.093-13.686-18.26 0-37.956 8.088-59.11 24.261-21.132 16.174-42.902 37.944-65.31 65.313-22.386 27.369-44.771 58.884-67.18 94.546-22.385 35.664-43.95 72.78-64.694 111.344-20.722 38.566-40.007 77.132-57.833 115.698-17.827 38.566-32.963 74.435-45.41 107.612 30.683-17.42 61.367-38.358 92.05-62.827a1126.283 1126.283 0 0088.334-78.375c28.198-27.783 54.528-56.397 78.988-85.838 24.482-29.443 46.252-58.266 65.332-86.464 14.088-21.563 26.535-42.505 37.317-62.826 10.783-20.32 19.08-39.186 24.87-56.604zm17.417-83.35c12.446 17.415 12.036 45.614-1.231 84.595-6.634 18.248-15.547 37.736-26.763 58.471-11.192 20.733-24.254 42.298-39.186 64.69-19.9 29.858-42.924 60.336-69.048 91.439-26.125 31.103-54.095 61.373-83.958 90.816-29.862 29.443-60.956 56.605-93.303 81.486-32.347 24.882-65.105 46.03-98.296 63.446l-17.416 49.761c9.962-14.097 19.924-26.122 29.863-36.075 11.603-13.269 23.844-24.054 36.701-32.345 12.857-8.295 25.509-12.442 37.955-12.442 16.573 0 28.609 3.94 36.063 11.82 7.477 7.878 11.398 18.453 11.831 31.723.41 13.27-2.485 27.989-8.708 44.162-6.223 16.172-14.726 32.14-25.508 47.897 19.9-6.636 41.055-13.477 63.44-20.528 22.386-7.046 43.13-17.209 62.21-30.478 6.634-4.147 11.193-4.356 13.678-.622 2.485 3.731-.41 8.085-8.708 13.062-23.229 15.758-47.484 27.783-72.787 36.079-25.28 8.293-49.536 15.758-72.765 22.392-14.088 16.589-30.067 31.725-47.894 45.407-17.826 13.684-37.111 24.26-57.856 31.725-28.198 9.12-47.689 10.783-58.471 4.976-4.97-1.657-8.298-4.976-9.94-9.952-1.663-4.979 0-10.368 4.97-16.174 7.455-11.61 24.05-23.222 49.764-34.832 10.782-4.149 22.796-8.295 36.086-12.442 13.267-4.147 27.355-8.293 42.286-12.44l11.193-2.489c9.962-14.927 18.67-30.273 26.124-46.03 7.477-15.758 12.857-30.065 16.185-42.92 3.305-12.854 3.944-23.429 1.87-31.722-2.075-8.293-7.683-12.442-16.801-12.442-9.962 0-20.106 3.317-30.478 9.953-10.373 6.635-20.13 15.343-29.248 26.126-11.603 12.44-21.975 26.126-31.093 41.053-9.118 14.929-16.185 29.443-21.155 43.54-.82 2.49-2.28 4.564-4.354 6.223-2.074 1.658-3.943 2.49-5.585 2.49-1.664 0-3.328-.623-4.992-1.867-1.664-1.245-2.074-3.527-1.231-6.846 3.305-29.856 11.398-66.762 24.255-110.72 12.857-43.954 29.43-90.401 49.763-139.335 20.311-48.931 43.745-97.657 70.28-146.174 26.557-48.518 54.756-92.268 84.595-131.247 29.863-38.98 60.751-70.498 92.688-94.55 31.937-24.05 63.646-36.077 95.173-36.077 19.08 0 32.347 5.804 39.802 17.416" fill="#bf2329"/><path d="M3237.101 606.867c5.81-4.975 10.381-6.218 13.695-3.733 3.314 2.49 1.657 7.051-4.99 13.685-9.943 10.785-21.562 20.114-34.818 27.994-13.276 7.878-27.37 15.548-42.303 23.014-33.999 16.588-65.522 25.708-94.55 27.369-32.34.828-54.74-7.465-67.177-24.883-12.438-17.415-17.409-38.563-14.933-63.446-12.438 10.781-27.37 22.81-44.78 36.08-17.428 13.267-36.074 25.709-55.978 37.318-19.904 11.613-40.227 21.359-60.97 29.237-20.722 7.88-40.227 11.818-58.474 11.818-21.56 0-36.474-5.182-44.779-15.55-8.285-10.369-11.4-23.43-9.323-39.187 2.076-15.757 8.904-32.76 20.523-51.007 11.619-18.245 26.751-35.248 45.398-51.006 18.666-15.757 40.447-28.822 65.321-39.187 24.875-10.367 51.427-15.55 79.616-15.55 17.429.827 33.38 5.183 47.894 13.062 14.513 7.88 20.123 21.356 16.81 40.431-1.658 4.977-4.992 7.463-9.963 7.463-4.97 0-7.047-2.486-6.228-7.463 1.677-13.27-2.895-22.806-13.676-28.612-10.78-5.805-23.637-8.708-38.57-8.708-26.532 0-52.245 9.329-77.12 27.99-24.895 18.66-45.618 39.396-62.208 62.2-16.59 22.81-26.532 43.544-29.866 62.206-3.314 18.66 3.734 27.99 21.162 27.99 18.247 0 38.151-4.562 59.712-13.686a442.592 442.592 0 0062.207-32.345c19.904-12.44 38.351-25.5 55.36-39.185 16.99-13.686 30.884-25.504 41.665-35.456 0-1.66.22-2.695.619-3.113.419-.413.639-1.451.639-3.108 2.475-7.464 6.628-13.272 12.437-17.418 5.81-4.145 11.599-6.427 17.408-6.84 5.81-.417 10.581 1.034 14.315 4.352 3.733 3.318 4.352 8.295 1.856 14.929-4.152 14.098-7.247 27.37-9.323 39.808-2.076 12.441-2.276 23.64-.619 33.591 1.657 9.952 5.79 17.83 12.438 23.637 6.628 5.806 17.408 8.707 32.341 8.707 13.276-.829 27.37-3.524 42.304-8.086 14.913-4.561 29.846-10.573 44.779-18.037 14.094-6.634 27.37-13.685 39.808-21.148 12.437-7.466 23.217-16.175 32.341-26.127m-925.617 16.443c-6.229 24.468-11.411 45.41-15.547 62.824 4.136-4.145 8.5-9.122 13.062-14.926 4.561-5.807 9.319-12.44 14.305-19.907 8.288-13.27 17.623-27.161 27.988-41.675 10.365-14.515 21.139-27.784 32.337-39.809 11.199-12.026 22.806-21.77 34.839-29.234 12.032-7.466 24.26-11.197 36.702-11.197 20.73.829 33.17 6.636 37.323 17.416 4.136 10.78 3.94 24.26-.62 40.431-4.562 16.174-11.412 33.384-20.534 51.63-9.123 18.243-16.382 35.247-21.777 51.005-5.378 15.759-7.454 28.821-6.212 39.188 1.243 10.366 10.577 15.55 27.989 15.55 12.44 0 26.533-3.94 42.293-11.818 15.76-7.88 31.732-17.416 47.9-28.613a560.16 560.16 0 0046.659-36.078c14.926-12.856 27.367-24.674 37.323-35.456 6.621-7.463 11.82-9.953 15.548-7.463 3.727 2.488 2.272 7.048-4.365 13.685-11.608 12.438-25.291 25.71-41.051 39.808a503.46 503.46 0 01-49.765 39.188c-17.41 12.027-34.822 21.978-52.25 29.858-17.41 7.877-33.17 11.817-47.262 11.817-25.716 0-42.506-5.183-50.386-15.55-7.88-10.367-10.365-23.637-7.471-39.81 2.91-16.173 8.713-33.38 17.427-51.629 8.697-18.243 16.79-35.453 24.245-51.627 7.47-16.175 11.82-29.443 13.062-39.81 1.259-10.366-3.924-15.55-15.547-15.55-9.956 0-19.896 3.523-29.852 10.574-9.957 7.05-19.7 15.964-29.231 26.748-9.548 10.781-18.67 22.6-27.368 35.453-8.713 12.858-16.806 25.505-24.26 37.946-6.638 9.122-12.654 17.208-18.05 24.26-5.378 7.047-10.985 13.062-16.79 18.037-6.637 6.634-12.849 10.989-18.653 13.062-5.82 2.075-8.305-2.694-7.47-14.307 2.484-28.199 8.713-65.313 18.653-111.344 5.15-23.767 11.231-48.42 18.245-73.958 10.152-36.959 46.952-44.55 32.762-6.678-6.245 16.62-16.447 48.103-34.201 117.96m-139.337-3.977c7.195-4.115 11.8-4.167 13.813-.158 2 4.012-.134 7.717-6.403 11.112-40.632 24.184-82.552 45.284-125.747 63.296-43.21 18.013-87.64 35.87-133.305 53.577-13.168 25.102-30.135 55.582-50.9 91.438-20.779 35.856-44.632 72.997-71.572 111.426-26.94 38.429-56.108 76.163-87.465 113.202-31.37 37.042-64.484 69.685-99.357 97.932-34.86 28.246-70.793 49.884-107.76 64.911-36.981 15.03-73.935 19.821-110.875 14.378-27.155-3.388-47.531-14.289-61.108-32.699-9.262-12.857-13.226-27.979-11.892-45.363.306-9.156 1.871-18.363 4.7-27.62 2.825-9.262 6.142-19.085 9.945-29.478 20.878-46.708 51.08-87.862 90.624-123.464 39.544-35.603 83.599-67.092 132.15-94.467 48.538-27.378 98.794-51.613 150.728-72.716 51.947-21.1 101.116-40.04 147.506-56.818a64.342 64.342 0 0012.497-4.712 64.832 64.832 0 0112.497-4.707c10.9-20.372 21.114-40.2 30.618-59.491 9.517-19.292 18.738-37.991 27.691-56.1-12.55 13.48-26.228 24.311-41.047 32.493-14.806 8.181-31.263 11.142-49.37 8.883-17.29-2.157-29.558-7.656-36.806-16.5-7.249-8.845-10.994-19.131-11.195-30.86-.215-11.726 2-24.406 6.617-38.037 4.631-13.633 9.772-26.365 15.423-38.196 3.396-7.098 8.202-12.14 14.43-15.125 6.229-2.985 12.014-4.144 17.356-3.476 5.356.667 9.208 3.24 11.57 7.714 2.377 4.474 1.397 10.621-2.912 18.439-5.356 9.363-10.416 19.806-15.195 31.328-4.778 11.522-8.228 22.375-10.336 32.56-2.107 10.186-2.134 18.751-.067 25.694 2.054 6.942 8.027 11.03 17.893 12.263 14.82 1.848 28.296-.648 40.43-7.494 12.135-6.845 23.088-15.924 32.86-27.242 9.772-11.32 18.444-23.82 26-37.504 7.558-13.684 14.578-26.39 21.048-38.12l1.691-3.546c2.376-5.557 5.692-10.368 9.96-14.432 4.269-4.065 8.323-6.482 12.188-7.254 3.853-.773 6.86.23 9.02 3.007 2.162 2.774 2.377 7.816.618 15.12-7.195 24.177-17.396 52.366-30.604 84.568-13.209 32.202-29.169 66.357-47.894 102.47 43.008-16.365 84.606-33.324 124.835-50.873a1136.992 1136.992 0 00117.102-59.359zm-774.014 606.761c32.82 4.93 65.612.037 98.364-14.68 32.766-14.72 64.592-35.405 95.506-62.056 30.9-26.651 60.47-57.648 88.7-92.99 28.228-35.344 54.376-70.737 78.444-106.182 24.054-35.446 45.651-69.526 64.78-102.243 19.127-32.716 34.658-60.03 46.577-81.948l-13.114 4.634c-44.74 16.984-92.391 35.485-142.942 55.506a1180.215 1180.215 0 00-146.66 70.09c-47.21 26.706-90.311 57.269-129.278 91.688-38.98 34.42-68.404 74.212-88.243 119.376-9.045 18.933-13.67 35.907-13.872 50.927-.306 15.842 3.042 29.214 10.033 40.116 12.255 15.735 29.49 24.99 51.705 27.762m3340.045-621.111c49.246 7.63 95.555 12.315 138.895 14.049 43.372 1.734 81.337-1.91 113.928-10.924 15.968-4.162 30.53-10.406 43.716-18.73 13.155-8.321 24.248-19.42 33.278-33.291 4.875-8.324 8.312-17.686 10.406-28.091 2.093-13.871.187-26.01-5.719-36.413-5.905-10.406-14.061-19.42-24.466-27.051-4.844-3.469-6.219-6.937-4.156-10.405 2.093-3.469 5.905-3.469 11.468 0 12.467 9.014 22.185 19.942 29.122 32.772 6.937 12.833 9 27.226 6.25 43.178-2.094 11.79-6.25 22.542-12.5 32.253-9.717 15.952-22.029 28.439-36.934 37.453-14.905 9.015-31.029 15.952-48.37 20.808-33.31 9.709-71.964 14.218-116.023 13.524-44.027-.69-90.836-4.68-140.457-11.961-85.556-12.568-166.55-34.241-252.23-45.147-67.182-5.806-125.833-3.109-176.017 8.087-50.183 11.196-95.18 24.882-134.989 41.053-39.809 16.174-76.494 31.516-110.085 46.03-33.59 14.515-66.994 22.186-100.148 23.014-32.34.832-54.745-7.462-67.182-24.879-12.436-17.417-17.436-38.566-14.936-63.448-12.436 10.78-27.373 22.808-44.778 36.078-17.436 13.271-36.09 25.71-55.995 37.32-19.905 11.614-40.216 21.36-60.964 29.238-20.717 7.88-40.215 11.817-58.464 11.817-21.56 0-36.497-5.184-44.778-15.552-8.311-10.367-11.405-23.426-9.342-39.184 2.093-15.758 8.936-32.763 20.53-51.008 11.623-18.246 26.747-35.247 45.402-51.005 18.686-15.759 40.434-28.823 65.338-39.188 24.873-10.368 51.402-15.552 79.619-15.552 18.248.828 34.403 5.184 48.496 13.065 14.124 7.877 19.498 21.354 16.186 40.43-.844 4.979-3.937 7.463-9.343 7.463-5.375 0-7.656-2.484-6.843-7.462 1.656-13.27-2.688-22.808-13.062-28.613-10.374-5.806-23.435-8.71-39.184-8.71-26.53 0-52.246 9.331-77.119 27.992-24.873 18.658-45.621 39.394-62.213 62.202-16.593 22.807-26.53 43.54-29.842 62.204-3.343 18.66 3.719 27.988 21.123 27.988 18.249 0 38.154-4.559 59.714-13.683a441.272 441.272 0 0062.214-32.344c19.905-12.443 38.372-25.501 55.37-39.188 17-13.686 30.873-25.504 41.685-35.456l2.468-6.218c1.656-7.469 5.406-13.274 11.187-17.42 5.812-4.147 11.624-6.428 17.436-6.84 5.812-.417 10.562 1.033 14.311 4.352 3.719 3.318 4.344 8.296 1.844 14.93-4.125 14.099-7.25 27.37-9.312 39.81-2.093 12.439-2.28 23.635-.625 33.587 1.656 9.952 6 17.833 13.062 23.639 7.062 5.806 17.623 8.705 31.716 8.705 31.528-.828 63.463-8.705 95.805-23.632 32.34-14.93 68.4-30.482 108.24-46.653 39.779-16.173 85.213-29.65 136.208-40.43 50.996-10.784 110.523-13.275 178.517-7.469 90.868 8.259 161.862 28.86 252.542 42.906m-2743.242 382.67h-8.54v-31.648h-34.806v31.648h-8.541v-67.892h8.54v28.717h34.808v-28.717h8.539zm129.36 0l-8.173-21.046h-26.928l-8.071 21.046h-8.638l26.503-68.176h7.725l26.443 68.176zm-10.728-28.62l-7.604-20.572-3.244-10.157c-.933 3.709-1.906 7.1-2.94 10.157l-7.686 20.572zm118.645 28.62h-8.597V927.29h-21.19v-7.529h50.856v7.53h-21.069zm103.964.951c-3.487 0-6.59-.46-9.246-1.391v-8.085c2.818 1.268 5.82 1.904 8.962 1.904 3.326 0 5.982-.762 8.01-2.317 2.028-1.552 3.995-4.374 5.88-8.462l-26.158-50.492h9.389l19.426 37.765a28.414 28.414 0 011.987 4.837h.365l.386-1.112 1.419-3.82 16.263-37.67h9.044l-21.677 48.59c-2.576 5.75-4.907 9.954-6.996 12.586-2.109 2.628-4.522 4.579-7.24 5.816-2.696 1.232-5.96 1.851-9.814 1.851zm166.643-48.873c0 6.924-2.373 12.25-7.118 15.942-4.724 3.695-11.396 5.546-20.014 5.546h-7.787v26.434h-8.536v-67.892h17.966c16.992 0 25.489 6.657 25.489 19.97zm-34.919 14.15h6.834c6.753 0 11.62-1.094 14.66-3.263 3.043-2.188 4.563-5.69 4.563-10.524 0-4.358-1.42-7.623-4.238-9.795-2.818-2.17-7.219-3.248-13.18-3.248h-8.639zm159.769 33.772l-8.192-21.046h-26.93l-8.05 21.046h-8.638l26.503-68.176h7.706l26.442 68.176zm-10.747-28.62l-7.605-20.572-3.244-10.157c-.933 3.709-1.906 7.1-2.92 10.157l-7.706 20.572zm146 28.62h-8.538V927.29h-21.514l-1.42 11.045c-1.946 15.213-3.67 26.13-5.13 32.727-1.44 6.592-3.326 11.173-5.658 13.756-2.352 2.581-5.535 3.883-9.57 3.883-2.272 0-4.34-.38-6.165-1.158v-7.147c1.602.76 3.366 1.157 5.252 1.157 2.453 0 4.4-1.539 5.84-4.629 1.42-3.07 2.98-10.048 4.664-20.902 1.703-10.871 3.406-22.949 5.09-36.26h37.148zm133.63-19.87c0 6.385-2.13 11.282-6.429 14.721-4.258 3.44-10.32 5.149-18.189 5.149h-22.325v-67.892h8.536v28.717h12.735c8.314 0 14.68 1.649 19.081 4.944 4.38 3.297 6.59 8.083 6.59 14.36zm-38.407 12.533h12.958c11.072 0 16.628-4.183 16.628-12.533 0-4.106-1.42-7.118-4.259-9.018-2.839-1.904-7.36-2.857-13.626-2.857h-11.7zm172.625 7.337h-8.537v-31.648h-34.817v31.648h-8.537v-67.892h8.537v28.717h34.817v-28.717h8.537zm130.893-19.87c0 6.416-2.028 11.329-6.084 14.738-4.076 3.423-10.058 5.132-17.946 5.132h-20.075v-67.892h8.558v28.717h10.443c8.212 0 14.458 1.633 18.716 4.881 4.279 3.249 6.388 8.05 6.388 14.424zm-35.547 12.629h10.727c5.515 0 9.55-1.047 12.126-3.137 2.555-2.079 3.852-5.244 3.852-9.492 0-4.139-1.338-7.148-3.994-9.004-2.677-1.855-7.057-2.774-13.201-2.774h-9.51zm54.608 7.24h-8.598v-67.89h8.598zm124.545 0h-37.919v-67.89h37.92v7.528h-29.383v21.188h27.659v7.43h-27.659v24.218h29.382zm-946.524 154.58h-8.597v-60.363h-21.21v-7.529h50.876v7.529h-21.069zm149.123 0h-10.301l-30.68-34.405v34.405h-8.537v-67.892h8.537v32.885l29.93-32.885h9.713l-29.484 32.964zm120.024 0l-8.172-21.047h-26.929l-8.05 21.047h-8.659l26.503-68.176h7.726l26.442 68.176zm-10.727-28.62l-7.604-20.57-3.245-10.16c-.932 3.71-1.906 7.1-2.94 10.16l-7.685 20.57zm149.041 28.62h-8.537v-31.647h-34.817v31.647h-8.537v-67.892h8.537v28.717h34.817v-28.717h8.537zm86.89-67.892h7.99v37.29c0 2.632-.081 6.119-.244 10.445-.162 4.34-.304 7.162-.446 8.464h.406l37.31-56.199h9.531v67.892h-7.989v-36.925c0-3.215.122-6.975.345-11.252.202-4.297.365-7.07.446-8.337h-.406l-37.432 56.514h-9.51v-67.892M1201.673 600.819c-23.273 34.305-47.172 68.313-67.216 104.572l-28.046 44.966c-26.087 31.52-49.331 27.859-37.952 1.263 34.741-81.207 110.656-179.647 160.41-258.635 16.127-25.478 31.042-50.282 44.8-74.345 9.344-16.177 16.772-29.456 22.362-39.836 5.644-10.312 12.304-23.59 20.057-39.835 7.773-16.312 13.659-30.533 17.699-42.8 4.013-12.2 7.226-25.48 9.6-39.769 2.373-14.29 2.773-27.433 1.333-39.364-1.253-10.852-4.973-20.423-11.133-28.848-10.59-13.817-25.847-22.11-45.619-24.872-12.185-1.752-25.067-1.55-38.623.539a179.428 179.428 0 00-40.097 11.257c-13.241 5.46-25.775 11.593-37.819 18.603-12.022 6.942-23.981 14.896-35.736 23.658-25.358 19.008-46.246 41.588-62.706 67.875-16.514 26.221-25.11 51.43-25.82 75.492-.32 12.403 1.893 23.59 6.816 33.5 4.844 9.908 11.91 18.132 21.046 24.67 9.212 6.538 19.522 11.795 31.058 15.84 11.558 3.977 24.38 6.874 38.352 8.56 2.601.269 3.841 1.685 3.622 4.313-.12 2.562-1.336 3.977-3.92 4.381-.656.135-1.193.135-1.765 0-15.068-1.617-28.908-4.448-41.455-8.695-12.569-4.178-23.692-9.773-33.621-16.716-9.873-6.874-17.71-15.569-23.46-26.017-5.728-10.516-8.69-22.243-8.947-35.252-.6-18.47 3.38-37.341 11.886-56.687 8.504-19.344 19.528-37.678 33.126-54.933 13.502-17.188 29.475-33.701 47.846-49.543 22.71-19.613 48.053-35.656 76.198-48.192 28.048-12.47 55.076-18.806 80.907-18.94 21.916-.136 40.919 5.055 56.984 15.638 16.093 10.514 27.16 24.264 33.373 41.25 3.627 10.111 5.774 21.03 6.387 32.69.627 11.594-.373 23.726-2.827 36.332-2.52 12.536-5.52 24.67-9.08 36.397-3.56 11.728-8.453 24.535-14.6 38.352-6.213 13.817-11.88 25.883-16.986 36.196a1274.78 1274.78 0 01-18.511 35.455c-10.584 19.656-22.939 41.286-37.148 64.946 93.032-74.34 229.979-168.849 272.965-196.2 122.48-74.122 218.654-109.369 288.32-103.646 10.014.822 16.24 5.777 18.134 11.485 3.786 11.424-2.867 26.273-13.734 18.275-5.2-3.83 10.214-16.847-16.573-17.075-35-.3-75.56 8.913-121.627 26.89-51.506 20.1-109.92 52.765-175.253 97.993-57.653 38.7-104.107 72.445-141.453 101.3a84.525 84.525 0 014.746-.128c10.147 0 18.694 2.77 25.627 8.313 8.773 6.003 15.693 15.932 20.773 29.787l3.467 11.774c6 24.476 6.693 58.88 2.08 103.214-3.227 34.636-4.96 65.922-5.2 93.861-.227 27.94 3.693 51.608 11.787 71.003 8.08 19.396 20.426 31.633 37.053 36.714 2.307.462 4.387.692 6.24.692 10.613 1.847 23.2 0 37.747-5.541 63.946-24.36 123.893-88.197 172.28-134.641 3.306-3.167 6.36-3.35 9.36-.347 3 3.001 2.946 6.187-.347 9.352-50.44 48.408-105.36 107.653-171.6 135.333-15.467 6.466-29.2 9.698-41.213 9.698-.454 0-1.387-.231-2.774-.692h-1.386c-16.16-.924-30.24-4.619-42.254-11.083-12-6.467-21.36-15.587-28.053-27.363a196.714 196.714 0 01-16.28-37.06c-4.147-12.93-6.573-28.169-7.267-45.718-.693-17.548-.813-33.712-.346-48.49.453-14.777 1.613-31.402 3.466-49.874 2.84-25.254 4.04-48.726 3.6-70.418 0-.018-3.813-42.578-3.92-43.189-1.213-6.548-2.48-11.76-4.533-15.237-2.533-4.303-6.467-6.464-11.08-6.927-1.973 0-3.8.073-5.493.216-4.36.37-7.76 1.221-10.2 2.552-1.854.456-3.427.907-4.187 1.29-1.76.898-3.76 1.173-5.853 1.571-77.488 61.911-108.399 97.524-118.876 107.591-9.324 8.957-33.204 42.152-48.918 61.259M118.8 497.305a5.039 5.039 0 017.225 7.025 24.646 24.646 0 01-3.411 2.891c-7.346 5.211-17.739 6.624-29.169 3.763-10.775-2.699-22.632-9.241-33.689-20.045-4.488-4.39-8.858-9.484-12.957-15.284C11.805 426.136.842 370.103 7.6 314.376c5.784-47.704 24.59-95.177 52.416-138.104 27.76-42.83 64.534-81.17 106.326-110.703 61.956-43.782 135.032-68.3 206.356-59.652 20.382 2.474 35.018 9.786 43.202 18.628 4.206 4.542 6.797 9.524 7.678 14.544.927 5.255.014 10.503-2.812 15.323-3.894 6.64-11.465 12.321-22.857 15.752a5.046 5.046 0 01-2.881-9.67c8.782-2.643 14.404-6.653 17.056-11.173 1.558-2.66 2.062-5.57 1.548-8.494-.558-3.156-2.276-6.394-5.108-9.452-6.692-7.227-19.175-13.272-37.011-15.435-68.704-8.33-139.33 15.452-199.368 57.877-40.763 28.81-76.623 66.19-103.685 107.94-27 41.655-45.24 87.655-50.837 133.803-6.473 53.367 3.993 106.98 37.428 154.292 3.749 5.31 7.702 9.924 11.733 13.864 9.703 9.487 19.937 15.187 29.11 17.481 8.521 2.132 15.972 1.29 20.919-2.205a13.079 13.079 0 001.987-1.687zm146.68 345.903a332.703 332.703 0 003.516 14.664c1.628-16.2 7.61-32.916 13.59-49.63 7.401-20.68 14.806-41.366 13.422-60.285-1.47-20.144-11.784-39.293-22.093-58.433-5.23-9.705-10.46-19.413-14.617-29.339-3.08 21.374-10.728 38.179-18.171 54.534-9.71 21.336-19.07 41.893-16.681 71.052.378 4.59 12.88 38.042 28.809 68.382 2.56 4.872 5.2 9.65 7.885 14.191-10.236-35.248-6.874-66.65-3.768-95.623 2.79-26.033 5.366-50.062-2.686-72.626-.74-2.071.637-4.334 3.072-5.048 2.434-.715 5.013.39 5.753 2.462 8.585 24.058 5.93 48.823 3.056 75.652-2.337 21.806-4.823 45.02-1.333 70.1zm44.678 105.044c17.806 25.41 36.396 41.979 49.313 51.663l-.221.297c16.265 11.163 31.124 21.468 52.864 47.836 2.436 2.953 4.418 6.776 5.95 11.133 7.196-4.68 15.966-9.732 25.988-14.225 22.516-10.093 51.35-17.363 83.008-11.359a4.78 4.78 0 013.81 5.582 4.78 4.78 0 01-5.582 3.809c-29.338-5.567-56.242 1.25-77.313 10.697-10.785 4.836-20.057 10.366-27.367 15.295.824 4.548 1.262 9.35 1.307 14.137.072 7.722-.872 15.551-2.839 22.322-2.08 7.176-5.362 13.243-9.881 16.964-3.13 2.58-6.787 4.062-10.977 4.102-4.036.04-7.476-1.079-10.247-3.08-3.536-2.562-5.83-6.487-6.767-11.217-.846-4.273-.573-9.236.912-14.38 2.388-8.284 7.968-17.28 17.087-24.788a208.94 208.94 0 0110.663-8.24c-1.246-4.315-2.963-8.017-5.146-10.661-17.434-21.148-30.296-31.566-43.182-40.688a4.442 4.442 0 01-.542.154c-161.456 35.307-195.388-7.166-229.431-49.788-9.771-12.232-19.56-24.481-32.415-34.516-1.933-1.513-2.428-4.289-1.056-6.382a4.777 4.777 0 016.61-1.388c36.007 23.504 68.707 21.925 101.244 20.348 19.36-.938 38.671-1.874 58.671 2.094-76.39-48.44-58.539-83.884-96.227-148.882-12.964-18.819-34.157-33.476-55.344-48.124-21.985-15.198-43.977-30.403-57.904-50.703-14.818-21.603-21.071-47.555-27.312-73.5-6.038-25.079-12.079-50.172-25.88-70.285l-.022-.038a4.782 4.782 0 011.284-6.632 4.786 4.786 0 016.61 1.248l.258.38c24.904 36.642 51.269 52.043 76.623 66.848 24.52 14.32 48.149 28.119 69.134 59.215 3.396 5.03 19.197 46.873 29.319 87.257 22.121 88.294 3.956 124.655 93.109 180.538l.305.174 3.655 2.292 14.656 9.376a375.67 375.67 0 0110.255 6.986 258.316 258.316 0 01-4.695-6.482c-10.423-14.872-20.577-32.644-29.257-53.669-9.623-9.665-19.53-25.5-28.363-42.319-16.296-31.036-29.148-66.033-29.56-71.041-2.536-30.955 7.201-52.348 17.307-74.548 10.452-22.957 21.316-46.83 18.461-83.401l-.03-.379c-.153-2.16 1.755-4.093 4.274-4.325 2.533-.234 4.735 1.345 4.912 3.52l.004.036c1.47 20.141 11.784 39.292 22.096 58.43 10.667 19.8 21.33 39.611 22.913 61.242 1.486 20.328-6.176 41.738-13.837 63.141-7.381 20.628-14.765 41.265-13.43 60.137 5.478 33.662 10.635 46.982 32.225 77.787zm101.705 126.984a200.26 200.26 0 00-6.57 5.197c-7.509 6.182-12.062 13.446-13.967 20.054-1.066 3.688-1.295 7.098-.742 9.883.462 2.33 1.483 4.193 3.003 5.291 1.132.82 2.653 1.277 4.54 1.258 1.856-.017 3.52-.708 4.977-1.91 2.962-2.438 5.239-6.84 6.8-12.232 1.684-5.792 2.488-12.664 2.426-19.569a79.903 79.903 0 00-.467-7.972zM309.217 973.515c-36.47-25.291-69.55-23.696-102.786-22.082-25.607 1.239-51.311 2.486-78.895-7.67 3.969 4.626 7.743 9.346 11.513 14.068 31.616 39.581 63.148 79.026 211.72 48.172a533.482 533.482 0 01-8.096-5.67l-.466-.186c-29.844-13.796-58.355-12.938-86.138-12.099-31.038.935-61.221 1.843-92.402-16.677-2.242-1.332-3-4.263-1.696-6.538a4.655 4.655 0 016.428-1.704c28.816 17.12 57.673 16.251 87.346 15.355 20.91-.632 42.214-1.272 64.494 4.033a201.33 201.33 0 00-11.022-9.002zM180.148 781.833a429.083 429.083 0 00-4.283-18.756c-9.9-39.477-24.83-79.616-27.941-84.229-19.77-29.29-42.472-42.55-66.035-56.312-18.064-10.55-36.622-21.39-54.946-39.628 4.074 12.21 7.135 24.93 10.193 37.65 6.037 25.078 12.079 50.169 25.879 70.285 12.962 18.893 34.21 33.582 55.45 48.268 18.32 12.666 36.642 25.333 50.298 40.946-17.335-35.884-41.378-61.376-63.645-84.988-22.22-23.554-42.727-45.298-53.79-73.893a4.79 4.79 0 012.74-6.19 4.787 4.787 0 016.188 2.738c10.374 26.819 30.275 47.916 51.835 70.772 23.994 25.436 49.993 53.01 68.057 93.337zm300.547-544.357c6.562 11.9 12.841 22.944 18.997 33.275 16.197-18.374 18.47-37.408-3.207-56.779-6.346-5.672-11.177-8.001-14.616-7.997-1.43.004-2.588.54-3.454 1.456-1.142 1.196-1.97 3.065-2.459 5.365-1.445 6.79.128 16.313 4.739 24.68zM290.21 565.486c-4.058-5.911-6.442-13.109-6.442-20.858 0-8.739 3.027-16.768 8.063-23.043-11.339 3.67-25.487 11.568-35.121 18.942 9.398 11.294 20.889 19.525 33.5 24.958zm60.848-37.437a36.811 36.811 0 013.914 16.58c0 10-3.974 19.087-10.388 25.67a36.883 36.883 0 01-3.282 2.976c17.285-1.446 34.409-6.65 49.525-15.108-9.35-8.484-18.448-16.264-27.764-22.7-3.936-2.718-7.923-5.206-12.005-7.418zm-19.867-1.446c-2.335-2.394-5.568-3.878-9.139-3.878-3.572 0-6.808 1.484-9.14 3.878-2.373 2.433-3.841 5.816-3.841 9.56 0 3.753 1.468 7.133 3.841 9.564 2.332 2.396 5.568 3.88 9.14 3.88 3.571 0 6.804-1.484 9.139-3.88 2.372-2.43 3.841-5.81 3.841-9.564 0-3.744-1.469-7.127-3.841-9.56zm13.445 14.44a23.664 23.664 0 01-6.225 11.712c-4.185 4.298-9.973 6.956-16.359 6.956-6.386 0-12.176-2.658-16.36-6.956a23.713 23.713 0 01-6.724-16.592c0-3.53.77-6.887 2.142-9.896-4.478 4.733-7.239 11.212-7.239 18.361 0 7.296 2.873 13.885 7.508 18.644 4.596 4.716 10.963 7.637 17.992 7.637 7.03 0 13.393-2.924 17.99-7.637 4.635-4.759 7.51-11.348 7.51-18.644 0-1.216-.083-2.415-.235-3.585zm417.056-112.67l.184-2.42a436.785 436.785 0 001.171-29.097c.567-89.581-26.465-158.599-69.877-207.3-48.844-54.787-118.522-83.976-192.994-87.88-20.928-1.096-40.502-.704-58.825.973a5.053 5.053 0 01-3.961.402c-148.356 15.246-212.854 115.968-239.559 198.304-8.657 26.685-13.367 51.481-15.679 70.832-1.388 11.606-1.914 21.118-1.925 27.836 1.725-3.188 3.755-7.144 6.1-11.71 33.437-65.066 127.89-248.849 357.216-207.753 48.423 8.677 115.385 34.647 162.904 98.15 27.212 36.363 48.024 85 55.245 149.662zM590.83 583.962a35.188 35.188 0 01-6.296-20.15c0-8.998 3.36-17.21 8.888-23.454a136.905 136.905 0 00-10.346 3.733c-10.542 4.268-21.107 9.868-32.052 16.087 11.544 10.33 25.21 18.478 39.806 23.784zm56.95-41.998a35.236 35.236 0 017.546 21.847c0 10.33-4.425 19.623-11.482 26.095 10.18-1.5 20.136-4.65 29.493-9.642l.103-.061a313.423 313.423 0 006.18-3.632 88.463 88.463 0 006.15-4.344c-2-2.383-4.081-4.704-6.236-6.941-9.484-9.854-20.324-18.072-31.754-23.322zm-52.71 14.052l.003-.136a26.049 26.049 0 00-1.23 7.931c0 14.407 11.678 26.085 26.085 26.085 14.413 0 26.09-11.678 26.09-26.085a25.95 25.95 0 00-3.621-13.263c.41 1.754.63 3.588.63 5.468 0 15.958-12.165 23.586-24.231 23.804-10.378.188-23.726-8.022-23.726-23.804zm37.816.007c0-7.513-6.092-13.603-13.602-13.603-7.515 0-13.604 6.09-13.604 13.603 0 8.75 6.609 13.23 13.31 13.376 6.895.15 13.896-4.284 13.896-13.376zm202.131 237.524a5.05 5.05 0 01-1.127 7.044 5.048 5.048 0 01-7.044-1.127c-27.705-29.217-51.76 19.274-11.012 36.994 6.766 2.937 14.548 4.277 22.552 3.585 8.032-.692 16.275-3.444 23.93-8.672 9.328-6.37 17.841-16.445 24.164-30.983 24.593-56.568 8.802-119.837-31.01-181.078l-.809-1.226c-55.068 57.236-111.099 131.318-135.805 201.318-19.054 53.982-19.351 105.44 14.34 144.352 6.326 7.308 12.774 11.52 18.73 13.557 7.055 2.417 13.376 1.773 17.847-.29a5.046 5.046 0 016.69 2.469 5.044 5.044 0 01-2.469 6.685c-6.532 3.017-15.54 4.027-25.306.685-7.5-2.566-15.487-7.713-23.106-16.513-36.481-42.132-36.446-97.039-16.234-154.299 25.465-72.144 83.184-148.214 139.552-206.509-47.835-68.945-125.115-134.59-208.688-184.732-43.004-25.803-72.884-49.284-98.166-77.447-15.922-17.737-29.981-37.294-44.313-60.416-34.617 31.243-100.34 60.247-159.43 86.322-47.225 20.833-90.153 39.782-108.26 55.805-7.347 6.504-10.027 12.125-6.06 16.608 3.913 4.423 13.858 3.417 30.287 1.757 15.151-1.53 35.296-3.57 61.568-2.192 46.935 2.464 84.702 14.918 109.078 40.522 24.47 25.698 35.202 64.266 27.914 118.789-1.385 10.413-3.214 20.384-5.265 29.9-2.05 9.516-4.361 18.72-6.696 27.527-2.228 8.389-6.896 16.212-11.241 23.49-2.386 3.998-4.676 7.83-6.271 11.36-3.397 7.518-4.36 13.794-3.85 18.414.253 2.278.851 4.044 1.646 5.233.476.69.932 1.092 1.296 1.16.136.027.316-.001.521-.09 10.343-4.514 17.426-1.571 25.08 1.605 4.454 1.848 9.166 3.8 14.69 3.644 3.349-.092 6.977-.784 10.657-1.486 9.332-1.774 19.01-3.618 30.39 1.912a5.043 5.043 0 012.347 6.731 5.04 5.04 0 01-6.729 2.345c-8.396-4.08-16.419-2.552-24.155-1.082-4.022.769-7.993 1.525-12.236 1.642-7.709.218-13.425-2.152-18.832-4.394-5.6-2.324-10.784-4.474-17.189-1.682-2.139.931-4.332 1.167-6.436.763-3.037-.585-5.753-2.457-7.76-5.43-1.665-2.495-2.872-5.806-3.31-9.77-.687-6.216.46-14.345 4.674-23.66 1.779-3.935 4.248-8.073 6.824-12.387 3.99-6.686 8.277-13.866 10.139-20.882 2.276-8.584 4.54-17.61 6.574-27.051 2.034-9.436 3.824-19.18 5.151-29.117 6.847-51.206-2.881-87.06-25.236-110.539-22.443-23.57-57.896-35.073-102.288-37.404-25.547-1.341-45.25.652-60.067 2.15-19.613 1.983-31.476 3.182-38.814-5.109-8.714-9.852-5.179-20.102 6.932-30.816 19.338-17.118 62.922-36.352 110.861-57.505 59.312-26.173 125.404-55.339 158.16-85.83-6.663-11.093-13.436-22.991-20.539-35.867-5.769-10.467-7.673-22.692-5.766-31.624.868-4.088 2.545-7.622 5.018-10.222 2.74-2.884 6.336-4.56 10.76-4.572 5.767-.016 12.936 3.066 21.324 10.558 27.307 24.401 24.247 48.333 3.627 71.41l-1.696 1.846c14.439 23.464 28.503 43.15 44.421 60.886 24.603 27.406 53.776 50.316 95.84 75.551C729.407 466.58 807.25 532.594 856.02 602.15c103.775-109.756 107.137-243.494 57.303-354.172-19.032-42.274-45.807-81.189-77.684-114.13-31.862-32.923-68.843-59.89-108.302-78.288-88.689-41.356-190.058-39.272-274.088 36.09 15.019-.856 30.811-.904 47.442-.034 77.092 4.037 149.304 34.342 200.018 91.232 44.979 50.458 72.982 121.744 72.4 214.05a445.88 445.88 0 01-1.168 29.766c-.818 11.13-1.965 20.83-3.11 28.65-1.462 9.916-2.84 16.935-3.7 20.112-.25.894-.504 1.636-.756 2.206-3.104 7.073-6.392 7.18-9.5.261-.331-.745-.506-1.645-.51-2.713-.786-86.158-23.72-147.335-55.969-190.43-45.63-60.977-110.041-85.937-156.628-94.284-221.985-39.782-313.93 139.126-346.481 202.47-5.219 10.161-8.98 17.47-11.792 20.957-2.876 3.568-5.703 4.73-8.64 3.132-2.026-.672-3.386-2.652-3.987-5.85-1.001-5.343-1.141-20.062 1.264-40.169 2.37-19.836 7.208-45.277 16.11-72.726 27.717-85.46 94.711-190.066 248.94-205.382C526.401 5.871 636.104 1.873 731.6 46.403c40.553 18.91 78.54 46.612 111.259 80.418 32.702 33.79 60.152 73.686 79.66 117.011 51.624 114.647 47.849 253.32-60.692 366.819l2.086 3.176c41.599 63.989 57.926 130.501 31.802 190.586-7.138 16.418-16.922 27.91-27.719 35.283-9.187 6.277-19.092 9.577-28.744 10.41-9.679.84-19.153-.81-27.443-4.409-56.621-24.636-17.517-95.406 23.207-52.149zm-374.065 5.44c17.53-12.219 29.262-8.713 43.11 4.012l2.539 1.864c7.81 5.641 21.11 7.495 30.32 8.78 7.97 1.108 13.739 1.919 15.013 6.387a5.39 5.39 0 01.115 2.566l-.113.472a4.873 4.873 0 01-.787 1.595c-1.117 1.653-3.188 3.348-6.135 4.819l-.266.121c-2.94 1.433-7.111 3.027-12.38 4.493-17.915 4.984-49.531 8.8-90.967.695l-12.77-2.599c-13.794-2.845-25.56-5.274-30.674-4.836 5.283 11.992 14.465 20.54 25.013 26.219 13.892 7.485 30.119 10.055 43.156 9.093 6.163-.452 12.787-1.333 18.93-2.832 4.986-1.216 9.689-2.849 13.584-4.996a5.047 5.047 0 016.846 1.995 5.046 5.046 0 01-1.99 6.848c-4.687 2.575-10.238 4.517-16.074 5.939-6.802 1.66-13.985 2.628-20.585 3.11-14.67 1.08-32.952-1.82-48.64-10.278-12.796-6.894-23.917-17.482-30.097-32.595-2.371-5.8-.644-9.447 4.321-11.473 6.468-2.615 20.881.36 38.225 3.94 3.551.728 7.162 1.481 12.69 2.56 39.606 7.744 69.497 4.185 86.346-.5l3.603-1.078c-10.068-1.43-20.77-3.205-29.895-9.804l-2.58-1.898c-13.906-10.248-18.085-13.391-34.429-3.915-4.804 2.787-8.05 4.644-11.047.463a33.434 33.434 0 00-1.986-2.556c-5.13-5.996-11.004-8.716-16.835-8.984-13.745-.627-25.017 14.36-42.835 16.554-7.317.902-16.525.7-27.669-1.897-2.71-.628-4.399-3.345-3.77-6.059a5.05 5.05 0 016.058-3.766c9.824 2.286 17.841 2.477 24.16 1.702 10.556-1.304 16.008-5.158 17.323-6.286a49.577 49.577 0 013.293-2.598l.359-.234c7.114-5.008 15.301-7.856 23.513-7.48 8.505.392 16.901 4.162 24.007 12.437zM242.104 537.652c-3.137-4.655-7.787-11.804-11.673-18.747-3.434-6.133-6.358-12.273-7.358-16.81a5.034 5.034 0 013.828-5.998 5.036 5.036 0 015.999 3.827c.75 3.393 3.29 8.619 6.33 14.053 3.72 6.638 8.089 13.384 11.065 17.808 12.165-8.372 27.145-16.533 41.238-20.64 13.292-3.873 26.822-4.812 39.588-1.68 13.715 3.371 25.951 9.62 37.664 17.71 11.527 7.964 22.471 17.65 33.858 28.128a5.046 5.046 0 01.294 7.124 4.978 4.978 0 01-1.314 1.02c-25.136 15.898-56.38 23.092-85.72 19.313-25.666-3.303-49.91-14.952-67.464-36.41-19.25 14.265-29.62 33.386-34.786 53.167a34.128 34.128 0 00-3.52-.2c-2.59 0-5.074.32-7.458.919 5.185-23.127 16.642-45.89 39.429-62.584zm140.857 421.435c22.091 12.404 48.362 18.782 74.692 18.981 34.047.263 68.106-9.788 93.256-30.465 25.747-21.171 48.5-44.391 68.239-68.59l.079-.093.077-.095c21.836-26.797 39.968-54.788 54.363-82.534 31.254-60.248 44.85-119.143 40.402-161.854l-.057-.474c-1.287-16.86-9.443-36.268-21.77-53.408a257.464 257.464 0 01-7.54 4.733 98.197 98.197 0 01-6.175 3.633l-.079.048-.228.122-.115.057c-18.473 9.879-39.018 13.252-59.309 11.379-29.507-2.715-58.47-16.578-79.536-37.615a5.038 5.038 0 01.86-8.097c13.428-7.764 26.245-14.846 39.168-20.076 13.184-5.334 26.483-8.754 40.636-9.05 24.312-.517 48.157 13.166 66.872 32.612a144.807 144.807 0 017.636 8.59c21.67-15.458 31.741-29.606 32.568-42.864 1.401-22.355-21.903-37.384-40.02-44.708-39.381-15.923-98.061-15.926-138.003 12.04a5.031 5.031 0 01-5.763-8.25c42.853-30.005 105.54-30.113 147.513-13.142 22.634 9.15 48.045 27.312 46.337 54.688-1.001 15.976-12.265 32.693-36.525 50.21 13.261 18.539 22.07 39.666 23.52 58.186l.016.161c4.692 44.561-9.247 105.63-41.45 167.695-14.556 28.058-32.864 56.362-54.873 83.482-8.01 36.006-7.608 68.623-2.51 96.598 6.64 36.422 21.2 64.921 35.46 82.762a5.024 5.024 0 11-7.85 6.275c-15.125-18.92-30.544-49.01-37.516-87.26-4.463-24.476-5.481-52.336-.772-82.779-17.121 19.434-36.21 38.083-57.264 55.392-27.036 22.228-63.427 33.031-99.685 32.754-25.915-.194-51.819-6.044-74.255-17.415.216-1.096.31-2.499.24-4.288-.017-.45.11-.501 0-.936-.387-1.512-.337-3.928-.639-6.405" fill="#bf2329"/></svg>