<svg width="32" height="34" fill="none" xmlns="http://www.w3.org/2000/svg"><g clip-path="url(#clip0_1_187)" fill="#BB9D60"><path d="M12.57 29.898v-.643h1.306v.64a.73.73 0 001.012.674.73.73 0 00.453-.674v-.64h1.306v.64a.73.73 0 001.013.674.73.73 0 00.452-.674v-.64h1.307v.64a.73.73 0 001.25.516.73.73 0 00.214-.516v-.64h1.307v.64a.73.73 0 001.25.516.73.73 0 00.214-.516v-.64h1.307v.64a.73.73 0 001.012.674.73.73 0 00.453-.674v-.64h4.077v1.787H12.57v-1.144zm5.61-15.545c0 .885-.72 1.606-1.606 1.606-.886 0-1.607-.72-1.607-1.606a1.607 1.607 0 013.213 0zM1.484 2.84H19.43v10.357a3.076 3.076 0 00-2.847-1.916 3.075 3.075 0 00-3.073 3.072 3.075 3.075 0 005.92 1.155v4.65a3.788 3.788 0 00-4.209 4.469H1.484V2.84zm17.441 18.75c.168 0 .333.017.494.052v2.985H16.72a2.32 2.32 0 012.205-3.037zm6.036-15.585V27.79H7.027v-1.7h1.307v.644a.732.732 0 001.464 0v-.644h1.307v.644a.732.732 0 001.464 0v-.644h1.307v.644a.733.733 0 001.465 0v-.644h1.306v.644a.733.733 0 001.465 0v-.644h1.307v.644a.732.732 0 001.464 0V6.005h4.078zm5.532 3.26v1.641h-4.068v-1.64l4.068-.001zm-4.068 18.526v-1.912h4.068v1.912h-4.068zm0-13.508v-1.912h4.068v1.912h-4.068zm4.068 3.377h-4.068v-1.912h4.068v1.912zm0 3.387h-4.068v-1.922h4.068v1.922zm0 3.367h-4.068v-1.912h4.068v1.912zm1.475-17.256a.732.732 0 10-1.464 0V7.8h-1.307v-.643a.733.733 0 00-1.465 0V7.8h-1.307V3.897a.732.732 0 10-1.464 0v.643h-1.307v-.643a.732.732 0 10-1.464 0v.643h-1.307V.732a.732.732 0 10-1.464 0v.644h-1.307V.732a.733.733 0 00-1.465 0v.644h-1.306V.732a.733.733 0 00-1.465 0v.644H12.57V.732a.732.732 0 10-1.464 0v.644H9.798V.732a.732.732 0 10-1.464 0v.644H7.027V.732a.732.732 0 10-1.465 0v.644H4.256V.732a.732.732 0 10-1.465 0v.644H1.485V.732a.732.732 0 10-1.465 0v26.003a.733.733 0 101.465 0v-.644H2.79v.644a.733.733 0 101.465 0v-.644h1.306V29.9a.733.733 0 101.465 0v-.644h1.307v.644a.732.732 0 001.464 0v-.644h1.307v3.905a.732.732 0 101.464 0v-.643h1.307v.643a.733.733 0 001.465 0v-.643h1.306v.643a.733.733 0 001.465 0v-.643h1.307v.643a.732.732 0 001.464 0v-.643h1.307v.643a.732.732 0 001.464 0v-.643h1.307v.643a.733.733 0 001.465 0v-.643h1.306v.643a.733.733 0 001.465 0v-.643h1.307v.643a.732.732 0 001.464 0V7.158h.001z"/><path d="M5.915 5.865c1.23 0 2.23 1 2.23 2.23s-1 2.231-2.23 2.231-2.23-1-2.23-2.23 1-2.231 2.23-2.231zm4.316 4.583a1.451 1.451 0 01-2.589.9 3.707 3.707 0 001.8-2.191c.47.24.79.726.79 1.29l-.001.001zm-4.05 1.321a2.903 2.903 0 002.6 1.594 2.918 2.918 0 002.915-2.915c0-1.339-.89-2.464-2.124-2.807A3.695 3.695 0 005.91 4.4a3.694 3.694 0 00-3.69 3.69 3.694 3.694 0 003.962 3.68l-.001-.001zm6.066 5.925a.994.994 0 010 1.985.994.994 0 010-1.985zm-2.457.988c0 1.352 1.1 2.452 2.452 2.452 1.352 0 2.452-1.1 2.452-2.452 0-1.352-1.1-2.452-2.452-2.452a2.455 2.455 0 00-2.452 2.452zm5.95-11.385a.994.994 0 01-1.985 0 .994.994 0 011.984 0h.001zm1.454-.005c0-1.352-1.1-2.452-2.452-2.452a2.455 2.455 0 00-2.452 2.452c0 1.352 1.1 2.452 2.452 2.452 1.352 0 2.452-1.1 2.452-2.452zM3.522 20.16a3.462 3.462 0 001.928.417.988.988 0 01-1.376.656.989.989 0 01-.551-1.074l-.001.001zm3.691-3.056c0 1.113-.906 2.02-2.02 2.02a2.022 2.022 0 01-2.018-2.02c0-1.114.905-2.02 2.019-2.02 1.113 0 2.02.906 2.02 2.02h-.001zm-.278 3.016a3.485 3.485 0 001.743-3.016 3.488 3.488 0 00-3.484-3.484 3.488 3.488 0 00-3.484 3.484c0 .755.242 1.454.652 2.025-.21.369-.32.786-.321 1.21 0 1.352 1.1 2.452 2.452 2.452a2.455 2.455 0 002.442-2.671z"/></g><defs><clipPath id="clip0_1_187"><path fill="#fff" d="M0 0h32v34H0z"/></clipPath></defs></svg>