<svg width="15" height="24" fill="none" xmlns="http://www.w3.org/2000/svg"><g clip-path="url(#clip0_1_263)" fill="#8b008b"><path d="M7.986 3.422a3.325 3.325 0 013.318 3.331 3.326 3.326 0 01-3.318 3.332 3.325 3.325 0 01-3.318-3.332 3.325 3.325 0 013.318-3.331zm.005 9.505a6.175 6.175 0 006.171-6.179A6.175 6.175 0 007.992.57a6.175 6.175 0 00-4.364 10.543 6.182 6.182 0 004.363 1.814z"/><path d="M14.036 15.86a2.394 2.394 0 001.075-1.997 1.725 1.725 0 00-.965-1.573 1.802 1.802 0 00-1.899.18 7.217 7.217 0 01-8.512 0 1.812 1.812 0 00-1.898-.18 1.726 1.726 0 00-.967 1.573 2.397 2.397 0 001.076 1.996c.86.572 1.796 1.02 2.782 1.33.167.052.34.1.517.145l-2.869 2.809a1.903 1.903 0 001.326 3.265 1.898 1.898 0 001.364-.583l2.925-3.03 2.93 3.036a1.897 1.897 0 003.262-1.326 1.904 1.904 0 00-.581-1.366l-2.865-2.806c.178-.046.351-.094.52-.146a10.91 10.91 0 002.779-1.327z"/></g><defs><clipPath id="clip0_1_263"><path fill="#fff" d="M0 0h15v24H0z"/></clipPath></defs></svg>