<svg width="45" height="44" fill="none" xmlns="http://www.w3.org/2000/svg"><g clip-path="url(#clip0_1_83)" fill="#BB9D60"><path d="M7.715 37.89a2.108 2.108 0 01-2.105-2.105c0-1.16.945-2.105 2.105-2.105a.702.702 0 010 1.404.702.702 0 000 1.403.702.702 0 010 1.404v-.001zm12.637 2.808a.702.702 0 010-1.404c1.16 0 2.105-.945 2.105-2.105a2.108 2.108 0 00-2.105-2.105.702.702 0 010-1.404 3.514 3.514 0 013.509 3.509 3.513 3.513 0 01-3.51 3.509h.001z"/><path d="M20.353 35.083H7.722a.701.701 0 110-1.403h12.631a.701.701 0 110 1.403zM7.722 40.704a.702.702 0 010-1.403l12.63-.001a.702.702 0 010 1.404H7.722zm9.824-2.811H7.722a.701.701 0 110-1.403h9.824a.701.701 0 110 1.403z"/><path d="M17.542 37.891a.7.7 0 01-.702-.702v-2.807a.701.701 0 111.403 0v2.807a.701.701 0 01-.701.702zm-9.82 2.814a4.919 4.919 0 01-4.912-4.913 4.92 4.92 0 014.912-4.912.702.702 0 010 1.404 3.513 3.513 0 00-3.508 3.508 3.513 3.513 0 003.508 3.509.702.702 0 010 1.404z"/><path d="M20.353 32.284H7.722a.702.702 0 010-1.404h12.631a.702.702 0 010 1.404z"/><path d="M20.352 43.512a.702.702 0 010-1.404 4.92 4.92 0 004.912-4.912 4.92 4.92 0 00-4.912-4.912.702.702 0 010-1.404 6.323 6.323 0 016.316 6.316 6.323 6.323 0 01-6.316 6.316zM7.72 43.509c-4.257 0-7.72-3.464-7.72-7.72s3.463-7.719 7.72-7.719a.702.702 0 010 1.404 6.323 6.323 0 00-6.316 6.315 6.323 6.323 0 006.315 6.316.702.702 0 010 1.404h.001z"/><path d="M20.353 43.514H7.722a.702.702 0 010-1.404h12.631a.702.702 0 010 1.404zm.702-14.04H7.722a.702.702 0 010-1.404h13.333a.702.702 0 010 1.404zM.702 30.881A.7.7 0 010 30.179c0-4.256 3.463-7.719 7.72-7.719a.703.703 0 01.496 1.198.702.702 0 01-.496.206 6.323 6.323 0 00-6.316 6.315.701.701 0 01-.702.702zm0-22.46A.701.701 0 010 7.719C0 3.463 3.463 0 7.72 0a.702.702 0 010 1.404 6.323 6.323 0 00-6.316 6.315.701.701 0 01-.702.702z"/><path d="M43.511 1.404H7.721a.702.702 0 010-1.404h35.79a.702.702 0 010 1.404zm-.003 28.07H21.052a.702.702 0 010-1.404h22.456a.702.702 0 010 1.404zM.702 36.494A.7.7 0 010 35.792V7.722a.702.702 0 011.404 0v28.07a.701.701 0 01-.702.702z"/><path d="M25.962 37.895a.702.702 0 01-.702-.702v-8.421a.701.701 0 111.403 0v8.42a.7.7 0 01-.701.703zm17.549-8.419a.703.703 0 01-.627-1.016l.702-1.403a.702.702 0 011.255.628l-.701 1.403a.703.703 0 01-.629.388z"/><path d="M44.215 28.067a.702.702 0 01-.629-.388l-.702-1.403a.702.702 0 111.256-.628l.701 1.403a.703.703 0 01-.626 1.016z"/><path d="M43.511 26.667a.703.703 0 01-.627-1.016l.702-1.403a.703.703 0 011.255.628l-.701 1.403a.703.703 0 01-.629.388z"/><path d="M44.215 25.267a.702.702 0 01-.629-.388l-.702-1.404a.704.704 0 01.314-.942.704.704 0 01.942.314l.701 1.404a.702.702 0 01-.626 1.016z"/><path d="M43.511 23.856a.703.703 0 01-.627-1.016l.702-1.403a.702.702 0 011.255.628l-.701 1.404a.702.702 0 01-.629.387z"/><path d="M44.215 22.457a.702.702 0 01-.629-.388l-.702-1.404a.702.702 0 111.256-.628l.701 1.404a.702.702 0 01-.626 1.016z"/><path d="M43.511 21.056a.7.7 0 01-.627-1.016l.702-1.403a.702.702 0 011.255.628l-.701 1.403a.703.703 0 01-.629.388z"/><path d="M44.215 19.647a.702.702 0 01-.629-.388l-.702-1.403a.702.702 0 111.256-.628l.701 1.403a.702.702 0 01-.626 1.016z"/><path d="M43.511 18.247a.7.7 0 01-.627-1.016l.702-1.403a.703.703 0 011.255.628l-.701 1.403a.703.703 0 01-.629.388z"/><path d="M44.215 16.847a.702.702 0 01-.629-.388l-.702-1.404a.702.702 0 111.256-.628l.701 1.404a.703.703 0 01-.626 1.016z"/><path d="M43.511 15.436a.7.7 0 01-.627-1.016l.702-1.403a.702.702 0 011.255.628l-.701 1.404a.703.703 0 01-.629.387z"/><path d="M44.215 14.037a.702.702 0 01-.629-.388l-.702-1.404a.702.702 0 111.256-.628l.701 1.404a.703.703 0 01-.626 1.016z"/><path d="M43.511 12.636a.7.7 0 01-.627-1.016l.702-1.403a.702.702 0 011.255.628l-.701 1.404a.703.703 0 01-.629.387z"/><path d="M44.215 11.227a.702.702 0 01-.629-.388l-.702-1.403a.702.702 0 111.256-.628l.701 1.403a.702.702 0 01-.626 1.016z"/><path d="M43.511 9.827a.702.702 0 01-.627-1.016l.702-1.403a.703.703 0 011.255.628l-.701 1.403a.703.703 0 01-.629.388z"/><path d="M44.215 8.417a.702.702 0 01-.629-.388l-.702-1.404a.702.702 0 111.256-.628l.701 1.404a.702.702 0 01-.626 1.016z"/><path d="M43.511 7.016A.702.702 0 0142.884 6l.702-1.403a.702.702 0 011.255.628L44.14 6.63a.703.703 0 01-.629.387v-.001z"/><path d="M44.215 5.617a.702.702 0 01-.629-.388l-.702-1.404a.702.702 0 111.256-.628l.701 1.404a.703.703 0 01-.626 1.016z"/><path d="M43.511 4.206a.702.702 0 01-.627-1.016l.702-1.403a.702.702 0 011.255.628L44.14 3.82a.703.703 0 01-.629.387v-.001z"/><path d="M44.215 2.807a.702.702 0 01-.629-.389l-.702-1.403a.704.704 0 01.578-1.014.702.702 0 01.678.386l.701 1.403a.702.702 0 01-.626 1.017zm-.704 21.057H7.721a.702.702 0 110-1.404h35.79a.701.701 0 010 1.404zM.702 22.461A.7.7 0 010 21.76c0-4.256 3.463-7.719 7.72-7.719a.702.702 0 010 1.404 6.323 6.323 0 00-6.316 6.315.7.7 0 01-.702.702v-.001z"/><path d="M43.511 15.444H7.721a.702.702 0 010-1.404h35.79a.702.702 0 110 1.404zM.702 14.031A.7.7 0 010 13.329C0 9.073 3.463 5.61 7.72 5.61a.702.702 0 010 1.404 6.323 6.323 0 00-6.316 6.315.701.701 0 01-.702.702z"/><path d="M43.511 7.013H7.721a.701.701 0 110-1.403h35.79a.701.701 0 110 1.403z"/><path d="M38.592 29.474a.7.7 0 01-.702-.702V.702a.701.701 0 111.403 0v28.07a.701.701 0 01-.701.702zm-8.42 0a.7.7 0 01-.702-.702V.702a.701.701 0 111.403 0v28.07a.701.701 0 01-.701.702zm-8.42 0a.7.7 0 01-.702-.702V.702a.7.7 0 111.403 0v28.07a.701.701 0 01-.701.702zm-8.42 0a.7.7 0 01-.702-.702V.702a.701.701 0 111.403 0v28.07a.701.701 0 01-.701.702zm-8.42.59a.7.7 0 01-.702-.702V1.292a.702.702 0 011.404 0v28.07a.701.701 0 01-.702.702z"/></g><defs><clipPath id="clip0_1_83"><path fill="#fff" d="M0 0h45v44H0z"/></clipPath></defs></svg>