<svg width="13" height="10" fill="none" xmlns="http://www.w3.org/2000/svg"><g clip-path="url(#clip0_1_120)"><path d="M4.198 5.251l5.854-3.18c.105-.057.213.069.123.143l-4.831 3.96a.854.854 0 00-.31.53l-.165 1.075c-.022.144-.251.158-.296.019L3.94 5.836c-.072-.223.033-.462.258-.585zM.23 4.795l2.995.988 1.16 3.294c.074.211.366.289.56.149l1.67-1.203a.55.55 0 01.607-.015l3.011 1.932c.207.133.501.033.553-.188L12.992.376c.057-.242-.212-.444-.472-.355L.226 4.211c-.303.104-.3.483.004.584z" fill="#9F2925"/></g><defs><clipPath id="clip0_1_120"><path fill="#fff" d="M0 0h13v10H0z"/></clipPath></defs></svg>