<svg width="18" height="9" fill="none" xmlns="http://www.w3.org/2000/svg"><g clip-path="url(#clip0_1_114)"><path d="M17.905 8.128a1.033 1.033 0 00-.061-.103c-.313-.493-.91-1.098-1.79-1.815l-.02-.016-.008-.008-.01-.009h-.01c-.4-.334-.652-.558-.758-.673-.194-.22-.238-.44-.132-.666.075-.17.357-.528.844-1.075.256-.29.459-.523.609-.698C17.649 1.805 18.119 1 17.975.65l-.056-.082c-.038-.05-.134-.094-.29-.136-.197-.043-.4-.05-.6-.02l-2.7.016a.398.398 0 00-.187.004l-.122.025-.047.02-.037.025a.55.55 0 00-.197.23c-.283.643-.618 1.26-1.003 1.848-.23.34-.443.634-.637.883-.194.25-.356.433-.487.55-.132.118-.25.212-.356.284-.107.071-.188.101-.244.09a7.69 7.69 0 01-.16-.033.58.58 0 01-.21-.201.82.82 0 01-.108-.32 3.099 3.099 0 01-.029-.727c.006-.17.01-.285.01-.345 0-.208.004-.434.013-.678.01-.243.017-.437.024-.579.006-.142.009-.293.009-.452 0-.158-.011-.283-.033-.373a1.17 1.17 0 00-.098-.263.465.465 0 00-.192-.197 1.175 1.175 0 00-.314-.111A7.087 7.087 0 008.66 0C7.498-.01 6.75.055 6.42.197c-.131.06-.25.143-.356.247-.113.12-.128.186-.047.197.375.049.64.167.796.353l.057.098c.043.072.087.198.13.378.045.181.073.38.085.6.031.4.031.742 0 1.026-.031.285-.06.507-.089.666a1.21 1.21 0 01-.239.566.154.154 0 01-.047.041.79.79 0 01-.253.042.643.643 0 01-.318-.116 2.166 2.166 0 01-.39-.316 4.285 4.285 0 01-.454-.562 9.492 9.492 0 01-.525-.854l-.15-.239a19.61 19.61 0 01-.384-.669 12.167 12.167 0 01-.43-.85.555.555 0 00-.226-.263L3.533.518a.675.675 0 00-.15-.07 1.106 1.106 0 00-.215-.053L.6.412C.338.412.16.464.066.568L.028.617A.243.243 0 000 .748c0 .06.019.135.056.222.375.772.783 1.517 1.223 2.234.44.717.823 1.295 1.148 1.733.325.438.656.851.994 1.24.337.389.56.638.67.747.11.11.195.192.257.247l.235.197c.15.131.37.289.66.472.291.184.613.364.966.542a5.68 5.68 0 001.232.435c.469.113.925.158 1.369.136h1.077c.219-.016.385-.077.497-.18l.037-.042a.51.51 0 00.07-.152.736.736 0 00.033-.225 2.382 2.382 0 01.061-.637c.047-.189.1-.331.16-.427a1.069 1.069 0 01.361-.362.663.663 0 01.074-.028c.15-.044.327-.001.53.127.203.13.394.288.572.477.178.189.392.4.642.636s.468.41.656.526l.187.099c.125.065.288.126.488.18.2.055.374.069.524.041l2.4-.032c.237 0 .421-.035.552-.103.132-.069.21-.144.235-.226a.56.56 0 00.004-.28.934.934 0 00-.065-.217z" fill="#8b008b"/></g><defs><clipPath id="clip0_1_114"><path fill="#fff" d="M0 0h18v9H0z"/></clipPath></defs></svg>