<svg width="55" height="52" fill="none" xmlns="http://www.w3.org/2000/svg"><g clip-path="url(#clip0_1_3)" fill="#BB9D60"><path d="M43.769 4.67h-.01a.87.87 0 00-.869.874.878.878 0 001.497.618.874.874 0 00-.618-1.492zM31.7 49.36a.99.99 0 01-.99.99h-2.856v-3.375c0-.588.263-1.135.722-1.502l2.997-2.397c.082.215.127.449.127.69v5.594zm-5.602-2.385v3.375H7.34v-3.375a3.654 3.654 0 00-1.377-2.867l-2.778-2.223 5.457-2.275c2.88 3.562 5.79 4.542 7.202 4.811v2.958a.874.874 0 001.748 0V44.42c1.413-.269 4.323-1.249 7.202-4.81l5.458 2.274-2.778 2.223a3.655 3.655 0 00-1.377 2.867l.001.001zM2.736 50.35a.99.99 0 01-.988-.99v-5.594c0-.241.045-.474.127-.69l2.99 2.397c.457.367.72.914.72 1.502v3.375H2.736zm8.515-11.826a2.733 2.733 0 001.686-2.528v-.794l1.552.863c.7.388 1.467.583 2.235.583.768 0 1.536-.194 2.236-.583l1.552-.863v.794c0 1.11.662 2.101 1.685 2.528l.917.382c-1.64 1.904-3.224 2.85-4.297 3.312-1.188.511-2.01.553-2.093.557-.083-.003-.905-.046-2.092-.557-1.073-.462-2.658-1.408-4.298-3.312l.917-.382zm-.771-6.685A2.854 2.854 0 019.023 29.6l-.665-7.32a28.483 28.483 0 005.49-.59c4.793-.993 8.703-3.16 11.307-6.267a.873.873 0 00-1.339-1.123C18.132 21.08 7.6 20.526 7.455 20.517a.875.875 0 00-.925.95l.082.913h-.145c-.611 0-1.177.202-1.633.542a12.985 12.985 0 01-.289-2.724c0-3.147 1.234-6.117 3.473-8.364 2.286-2.293 5.376-3.556 8.701-3.556s6.415 1.263 8.701 3.556c2.24 2.247 3.473 5.217 3.473 8.364 0 1.061-.13 1.988-.289 2.724a2.723 2.723 0 00-1.633-.542h-.145l.083-.912a.874.874 0 00-.252-.697l-1.864-1.865a.874.874 0 00-1.236 1.236l1.575 1.576-.622 6.846c-.714.631-2.977 2.207-7.79 2.207a.874.874 0 000 1.748c3.344 0 5.633-.7 7.118-1.44a2.85 2.85 0 01-.879.76l-4.854 2.698a2.836 2.836 0 01-2.772 0l-4.853-2.698zm-4.012-3.875a.99.99 0 01-.99-.988v-1.86a.99.99 0 01.99-.988h.304l.35 3.836h-.654zM16.72 4.548c2.287 0 4.212 1.185 4.744 2.78a14.298 14.298 0 00-4.744-.798c-1.649 0-3.247.273-4.743.799.531-1.596 2.456-2.78 4.743-2.78v-.001zm11.252 22.428a.99.99 0 01-.99.988h-.654l.35-3.836h.303a.99.99 0 01.99.988l.001 1.86zm3.218 13.4l-8.32-3.466a.987.987 0 01-.609-.914V34.23l1.556-.864a4.6 4.6 0 002.349-3.607l.003-.038h.812a2.742 2.742 0 002.74-2.739V25.3c.244-.593.931-2.488.931-5.102 0-3.613-1.415-7.021-3.984-9.598a13.746 13.746 0 00-3.302-2.444c-.042-2.96-3.004-5.356-6.64-5.356-3.637 0-6.6 2.397-6.642 5.356A13.742 13.742 0 006.782 10.6c-2.57 2.577-3.985 5.985-3.985 9.598 0 2.614.688 4.51.933 5.102v1.683a2.742 2.742 0 002.738 2.739h.813l.003.038a4.6 4.6 0 002.349 3.607l1.555.864v1.765c0 .401-.239.76-.61.914L2.26 40.377A3.661 3.661 0 000 43.766v5.594a2.742 2.742 0 002.739 2.74h27.97a2.742 2.742 0 002.74-2.74v-5.593a3.663 3.663 0 00-2.26-3.39h.001z"/><path d="M15.65 24.737c-.418-.867-1.425-1.427-2.567-1.427-1.141 0-2.148.56-2.566 1.427a.874.874 0 001.575.759c.102-.212.484-.438.991-.438.508 0 .89.226.992.438a.874.874 0 101.575-.759zm7.28 0c-.418-.867-1.425-1.427-2.567-1.427-1.141 0-2.148.56-2.566 1.427a.875.875 0 001.575.759c.102-.212.484-.438.992-.438.507 0 .889.226.991.438a.875.875 0 001.575-.759zm20.83-4.226a9.377 9.377 0 01-2.813-.43.875.875 0 00-.777.128c-1.076.786-2.257 1.293-3.272 1.617.454-.598.939-1.318 1.393-2.148a.874.874 0 00-.234-1.113c-2.338-1.795-3.679-4.506-3.679-7.435 0-5.173 4.209-9.381 9.382-9.381s9.382 4.208 9.382 9.381-4.209 9.381-9.382 9.381zM43.76 0c-6.137 0-11.13 4.993-11.13 11.13 0 3.22 1.364 6.216 3.767 8.333-1.206 1.974-2.515 3.112-2.528 3.123a.874.874 0 00.636 1.536c.144-.011 3.427-.292 6.338-2.25.95.258 1.928.388 2.917.388 6.137 0 11.13-4.993 11.13-11.13C54.89 4.993 49.897 0 43.76 0z"/><path d="M44.699 15.859h-.058v-5.71h.058a.875.875 0 100-1.749h-1.865a.874.874 0 000 1.748h.058v5.71h-.058a.875.875 0 100 1.75H44.7a.875.875 0 100-1.75l-.001.001z"/></g><defs><clipPath id="clip0_1_3"><path fill="#fff" d="M0 0h55v52H0z"/></clipPath></defs></svg>