<svg width="18" height="12" fill="none" xmlns="http://www.w3.org/2000/svg"><g clip-path="url(#clip0_1_7)"><path d="M11.556 6.408L7.78 8.278a.606.606 0 01-.57-.018.545.545 0 01-.28-.47V4.062c0-.192.106-.37.28-.47a.607.607 0 01.568-.018l3.777 1.858a.547.547 0 01.313.487c0 .205-.12.394-.312.489zm5.742-5.378C16.648.298 15.45 0 13.158 0H4.842C2.498 0 1.278.318.632 1.097 0 1.857 0 2.975 0 4.524v2.952C0 10.476.749 12 4.842 12h8.316c1.987 0 3.088-.263 3.8-.909.73-.662 1.042-1.743 1.042-3.615V4.524c0-1.633-.049-2.759-.702-3.494z" fill="#9F2925"/></g><defs><clipPath id="clip0_1_7"><path fill="#fff" d="M0 0h18v12H0z"/></clipPath></defs></svg>